<svg width="117" height="74" viewBox="0 0 117 74" fill="none" xmlns="http://www.w3.org/2000/svg">
<path d="M77.5101 59.6789C65.1701 59.6789 55.1001 50.0189 55.1001 38.2789C55.1001 26.5389 65.1701 16.8789 77.5101 16.8789C89.8501 16.8789 99.9201 26.5389 99.9201 38.2789C99.9201 50.0189 89.8501 59.6789 77.5101 59.6789ZM77.5101 32.4589C73.7201 32.4589 70.6801 35.4389 70.6801 39.0889C70.6801 42.7389 73.7201 45.7189 77.5101 45.7189C81.3001 45.7189 84.3401 42.7389 84.3401 39.0889C84.3401 35.4389 81.3001 32.4589 77.5101 32.4589Z" fill="#F0B400"/>
<path d="M99.27 54.8102V59.0502H97.14V54.8102H95.96V52.9102H100.45V54.8102H99.27Z" fill="#966E00"/>
<path d="M104.21 59.0584V56.7684H103.36V59.0584H101.27V52.8984H103.36V54.9984H104.21V52.8984H106.3V59.0584H104.21Z" fill="#966E00"/>
<path d="M21.2899 71.1267H17.7L17.1199 72.8067H14.4399L18.1199 63.1367H20.8599L24.5399 72.8067H21.8599L21.2799 71.1267H21.2899ZM20.6199 69.2167L19.4899 65.9967L18.3599 69.2167H20.6199Z" fill="#966E00"/>
<path d="M25.6499 72.8067V63.1367H28.1599L32.7999 69.0467V63.1367H35.2999V72.8067H32.7999L28.1599 66.8967V72.8067H25.6499Z" fill="#966E00"/>
<path d="M37.3398 72.8067V63.1367H39.8499L44.4898 69.0467V63.1367H46.9898V72.8067H44.4898L39.8499 66.8967V72.8067H37.3398Z" fill="#966E00"/>
<path d="M51.5398 63.1367V72.8067H49.0298V63.1367H51.5398Z" fill="#966E00"/>
<path d="M55.28 63.1367L57.61 69.0267L59.9601 63.1367H62.69L58.61 72.8067H56.61L52.54 63.1367H55.27H55.28Z" fill="#966E00"/>
<path d="M69.21 65.2684H66.2199V66.8884H69.0399V69.0184H66.2199V70.6884H69.21V72.8184H63.71V63.1484H69.21V65.2784V65.2684Z" fill="#966E00"/>
<path d="M79.06 72.8067H75.93L73.53 69.0867V72.8067H71.02V63.1367H74.93C75.47 63.1367 75.94 63.2167 76.34 63.3767C76.74 63.5367 77.07 63.7467 77.33 64.0267C77.59 64.2967 77.79 64.6167 77.92 64.9767C78.05 65.3367 78.12 65.7167 78.12 66.1267C78.12 66.8667 77.94 67.4567 77.59 67.9167C77.24 68.3767 76.71 68.6867 76.02 68.8467L79.06 72.8067ZM73.53 67.4567H74C74.5 67.4567 74.88 67.3567 75.14 67.1467C75.41 66.9367 75.54 66.6467 75.54 66.2567C75.54 65.8667 75.41 65.5767 75.14 65.3767C74.88 65.1667 74.49 65.0667 74 65.0667H73.53V67.4567Z" fill="#966E00"/>
<path d="M85.4202 65.6172C85.1502 65.3972 84.8702 65.2272 84.6002 65.1272C84.3302 65.0272 84.0602 64.9672 83.8102 64.9672C83.4802 64.9672 83.2202 65.0472 83.0102 65.1972C82.8002 65.3472 82.7002 65.5472 82.7002 65.7972C82.7002 65.9672 82.7502 66.1072 82.8502 66.2172C82.9502 66.3272 83.0902 66.4272 83.2502 66.5072C83.4102 66.5872 83.6002 66.6572 83.8102 66.7172C84.0202 66.7772 84.2302 66.8372 84.4302 66.9072C85.2502 67.1772 85.8502 67.5472 86.2302 68.0072C86.6102 68.4672 86.8002 69.0572 86.8002 69.7972C86.8002 70.2972 86.7202 70.7372 86.5502 71.1472C86.3802 71.5472 86.1402 71.8972 85.8202 72.1772C85.5002 72.4572 85.1102 72.6872 84.6402 72.8472C84.1702 73.0072 83.6502 73.0872 83.0602 73.0872C81.8402 73.0872 80.7002 72.7272 79.6602 71.9972L80.7402 69.9672C81.1202 70.2972 81.4902 70.5472 81.8602 70.7072C82.2302 70.8672 82.5902 70.9472 82.9502 70.9472C83.3602 70.9472 83.6702 70.8572 83.8702 70.6672C84.0702 70.4772 84.1702 70.2672 84.1702 70.0272C84.1702 69.8772 84.1402 69.7572 84.0902 69.6472C84.0402 69.5372 83.9502 69.4472 83.8302 69.3572C83.7102 69.2672 83.5502 69.1872 83.3602 69.1072C83.1702 69.0272 82.9302 68.9472 82.6602 68.8472C82.3402 68.7472 82.0202 68.6272 81.7002 68.5072C81.3802 68.3872 81.1102 68.2172 80.8702 68.0172C80.6302 67.8072 80.4302 67.5572 80.2802 67.2372C80.1302 66.9272 80.0602 66.5272 80.0602 66.0472C80.0602 65.5672 80.1402 65.1372 80.3002 64.7472C80.4602 64.3572 80.6802 64.0272 80.9702 63.7472C81.2602 63.4672 81.6102 63.2572 82.0202 63.0972C82.4302 62.9472 82.9002 62.8672 83.4102 62.8672C83.8902 62.8672 84.3902 62.9372 84.9102 63.0672C85.4302 63.1972 85.9302 63.3972 86.4102 63.6472L85.4102 65.6072L85.4202 65.6172Z" fill="#966E00"/>
<path d="M94.1401 71.1267H90.55L89.97 72.8067H87.29L90.97 63.1367H93.7101L97.3901 72.8067H94.7101L94.1301 71.1267H94.1401ZM93.47 69.2167L92.3401 65.9967L91.2101 69.2167H93.47Z" fill="#966E00"/>
<path d="M106.54 72.8067H103.41L101.01 69.0867V72.8067H98.5V63.1367H102.41C102.95 63.1367 103.42 63.2167 103.82 63.3767C104.22 63.5367 104.55 63.7467 104.81 64.0267C105.07 64.3067 105.27 64.6167 105.4 64.9767C105.53 65.3367 105.6 65.7167 105.6 66.1267C105.6 66.8667 105.42 67.4567 105.07 67.9167C104.72 68.3767 104.19 68.6867 103.5 68.8467L106.54 72.8067ZM101.01 67.4567H101.48C101.98 67.4567 102.36 67.3567 102.62 67.1467C102.89 66.9367 103.02 66.6467 103.02 66.2567C103.02 65.8667 102.89 65.5767 102.62 65.3767C102.36 65.1667 101.97 65.0667 101.48 65.0667H101.01V67.4567Z" fill="#966E00"/>
<path d="M109.47 68.1667L105.94 63.1367H108.94L110.74 65.7767L112.52 63.1367H115.52L111.98 68.1667V72.8067H109.47V68.1667Z" fill="#966E00"/>
<path d="M66.3602 17.1977V2.09766H42.8802L27.2702 33.5277C28.3402 32.8577 29.6102 32.4577 30.9802 32.4577C34.7702 32.4577 37.8102 35.4377 37.8102 39.0877C37.8102 42.7377 34.7702 45.7177 30.9802 45.7177C27.4202 45.7177 24.5202 43.0877 24.1802 39.7477L16.7202 54.7577C20.6002 57.8277 25.5702 59.6777 30.9702 59.6777C43.3102 59.6777 53.3802 50.0177 53.3802 38.2777C53.3802 32.9777 51.3202 28.1077 47.9402 24.3477L51.5002 17.1877H66.3602V17.1977Z" fill="#966E00"/>
<mask id="mask0_2949_4194" style="mask-type:luminance" maskUnits="userSpaceOnUse" x="0" y="0" width="39" height="54">
<path d="M29.1301 0.078125L38.4401 11.0281L17.3101 53.5881L0.640137 23.2281L4.20013 8.8681L29.1301 0.078125Z" fill="white"/>
</mask>
<g mask="url(#mask0_2949_4194)">
<path d="M38.4204 18.2875C35.6304 10.6175 27.1504 6.66752 19.4804 9.45752C11.8104 12.2475 7.86038 20.7275 10.6504 28.3975C12.2104 32.6975 15.5704 35.8275 19.5604 37.2575C19.5104 38.7975 19.7404 40.3775 20.3004 41.9175C22.6404 48.3475 29.7504 51.6575 36.1804 49.3175C42.6104 46.9775 45.9204 39.8675 43.5804 33.4375C41.9404 28.9375 39.9204 28.9275 39.2104 26.9875C38.4704 24.9475 40.2204 23.2375 38.4104 18.2775L38.4204 18.2875Z" fill="white"/>
<path d="M30.86 12.207C28.68 13.457 25.9301 12.747 24.7201 10.647C23.5201 8.53703 24.3101 5.80702 26.4901 4.56702C28.6701 3.31702 31.4201 4.02701 32.6301 6.12701C33.8401 8.23701 33.04 10.967 30.86 12.207Z" fill="white"/>
<path d="M30.86 12.207C28.68 13.457 25.9301 12.747 24.7201 10.647C23.5201 8.53703 24.3101 5.80702 26.4901 4.56702C28.6701 3.31702 31.4201 4.02701 32.6301 6.12701C33.8401 8.23701 33.04 10.967 30.86 12.207ZM26.9901 5.44702C25.3001 6.41702 24.6801 8.51702 25.6001 10.137C26.5301 11.757 28.6601 12.287 30.3501 11.317C32.0401 10.347 32.6601 8.24701 31.7401 6.62701C30.8101 5.00701 28.6801 4.47702 26.9901 5.44702Z" fill="#005AAF"/>
<path d="M29.67 11.4174C28.4 12.1474 26.79 11.7374 26.09 10.4974C25.39 9.26743 25.84 7.66744 27.12 6.94744C28.39 6.21744 30 6.62742 30.7 7.86742C31.41 9.09742 30.94 10.6974 29.67 11.4174ZM27.62 7.83745C26.84 8.28745 26.55 9.25743 26.97 9.99743C27.4 10.7374 28.38 10.9874 29.16 10.5374C29.94 10.0874 30.23 9.11743 29.81 8.37743C29.38 7.63743 28.4 7.38745 27.62 7.83745Z" fill="#005AAF"/>
<path d="M17.3703 15.0373C15.1903 16.2873 12.4403 15.5873 11.2303 13.4773C10.0303 11.3673 10.8203 8.63739 13.0003 7.39739C15.1803 6.14739 17.9303 6.84738 19.1403 8.95738C20.3503 11.0674 19.5503 13.7973 17.3703 15.0373Z" fill="white"/>
<path d="M17.3703 15.0373C15.1903 16.2873 12.4403 15.5873 11.2303 13.4773C10.0303 11.3673 10.8203 8.63739 13.0003 7.39739C15.1803 6.14739 17.9303 6.84738 19.1403 8.95738C20.3503 11.0674 19.5503 13.7973 17.3703 15.0373ZM13.5003 8.27739C11.8103 9.24739 11.1903 11.3473 12.1103 12.9673C13.0303 14.5873 15.1603 15.1173 16.8603 14.1573C18.5503 13.1873 19.1703 11.0873 18.2503 9.46733C17.3203 7.84733 15.1903 7.31734 13.5003 8.28734V8.27739Z" fill="#005AAF"/>
<path d="M17.1304 14.3666C15.8604 15.0966 14.2504 14.6766 13.5504 13.4466C12.8504 12.2166 13.3004 10.6167 14.5804 9.89666C15.8504 9.16666 17.4604 9.57664 18.1604 10.8166C18.8704 12.0466 18.4104 13.6466 17.1404 14.3666H17.1304ZM15.0804 10.7866C14.3004 11.2366 14.0104 12.1966 14.4304 12.9466C14.8504 13.6866 15.8404 13.9366 16.6204 13.4866C17.4004 13.0366 17.6904 12.0666 17.2704 11.3266C16.8404 10.5866 15.8604 10.3366 15.0804 10.7866Z" fill="#005AAF"/>
<path d="M35.9805 23.3075C35.9805 23.3075 38.4604 24.1175 39.6104 24.7775L40.0204 25.0075C41.1604 25.6575 42.7205 26.5575 44.1305 27.2575C44.7005 27.5375 45.2304 27.5775 45.7104 27.3775C45.7304 27.3775 45.7504 27.3575 45.7704 27.3575C46.3304 27.0975 46.7505 26.5075 47.0405 25.6175C47.4905 24.2075 45.7504 22.3075 43.8304 21.0575C41.7004 19.6675 39.8705 19.1875 38.6805 18.9375" fill="white"/>
<path d="M45.7502 27.3575C46.3102 27.0975 46.7302 26.5075 47.0202 25.6175C47.4702 24.2075 45.7302 22.3075 43.8102 21.0575C41.6802 19.6675 39.8502 19.1875 38.6602 18.9375L38.4602 19.9375C39.5702 20.1675 41.2802 20.6175 43.2602 21.9075C45.1802 23.1575 46.2502 24.6775 46.0502 25.3075C45.8602 25.9175 45.5902 26.3275 45.3002 26.4475C45.2302 26.4775 45.0102 26.5675 44.5702 26.3475C43.2002 25.6675 41.6502 24.7775 40.5202 24.1275L40.1102 23.8975C38.8802 23.1875 36.4002 22.3775 36.2902 22.3475L35.9702 23.3175C35.9702 23.3175 38.4502 24.1275 39.6002 24.7875L40.0102 25.0175C41.1502 25.6675 42.7102 26.5675 44.1202 27.2675C44.6902 27.5475 45.2202 27.5875 45.7002 27.3875C45.7202 27.3875 45.7402 27.3675 45.7602 27.3675L45.7502 27.3575Z" fill="#005AAF"/>
<path d="M12.4202 25.3676C11.2502 25.6076 9.78022 25.5375 9.12022 24.8475C8.31022 24.0075 7.53022 22.8576 6.87022 21.5176C6.48022 20.7276 6.02021 19.9676 5.30021 19.7476C4.86021 19.6176 4.39022 19.6976 3.87022 19.9976C2.73022 20.6576 1.98021 21.2876 2.80021 23.3776C3.69021 25.6676 5.14024 28.7876 7.45024 29.4876C9.52024 30.1176 11.4802 30.2375 13.4402 29.8575" fill="white"/>
<path d="M13.44 29.8759L13.25 28.8759C11.46 29.2259 9.65998 29.1059 7.74998 28.5259C5.63998 27.8859 4.21998 24.2259 3.74998 23.0159C3.18998 21.5759 3.49 21.4059 4.39 20.8859C4.78 20.6559 4.94999 20.7158 5.00999 20.7258C5.35999 20.8358 5.71997 21.4858 5.95997 21.9658C6.66997 23.3958 7.51 24.6358 8.39 25.5458C9.39 26.5858 11.3 26.6358 12.63 26.3558L12.43 25.3558C11.26 25.5958 9.78999 25.5259 9.12999 24.8359C8.31999 23.9959 7.53999 22.8459 6.87999 21.5059C6.48999 20.7159 6.02998 19.9558 5.30998 19.7358C4.86998 19.6058 4.39999 19.6858 3.87999 19.9858C2.73999 20.6458 1.98998 21.2759 2.80998 23.3658C3.69998 25.6558 5.14997 28.7758 7.45997 29.4758C9.52997 30.1058 11.49 30.2258 13.45 29.8458L13.44 29.8759Z" fill="#005AAF"/>
<path d="M33.4001 45.8057C33.7501 45.6657 34.0901 45.6557 34.2301 46.0057C34.2901 46.1457 35.5901 49.3757 36.0001 50.8757L36.0601 51.1057C36.5101 52.7257 36.4701 53.5857 34.1301 54.4457C32.5701 55.0157 32.0101 53.7457 31.5201 52.6357C30.9801 51.3957 29.5701 47.4057 29.3901 46.7957C29.2801 46.4357 29.5501 46.2257 29.9101 46.1357L33.3901 45.8157L33.4001 45.8057Z" fill="white"/>
<path d="M34.1301 54.4467C32.5701 55.0167 32.0101 53.7467 31.5201 52.6367C30.9801 51.3967 29.5701 47.4067 29.3901 46.7967C29.2801 46.4367 29.4901 46.0467 29.8501 45.9567C30.2101 45.8567 30.5901 46.0566 30.6901 46.4166C30.8601 46.9966 32.2401 50.9166 32.7601 52.0966C33.2901 53.3066 33.3501 53.2867 33.6501 53.1767C34.5901 52.8367 34.9534 52.2733 34.7401 51.4867L34.6801 51.2567C34.2901 49.8267 32.9701 46.5666 32.9601 46.5366C32.8201 46.1866 32.9901 45.7967 33.3401 45.6467C33.6901 45.5067 34.0801 45.6767 34.2301 46.0267C34.2901 46.1667 35.5901 49.3967 36.0001 50.8967L36.0601 51.1267C36.5101 52.7467 36.4701 53.6066 34.1301 54.4666V54.4467Z" fill="#005AAF"/>
<path d="M39.5902 42.8275C39.4502 42.4775 39.6202 42.0775 39.9702 41.9475C40.3202 41.8075 40.7102 41.9775 40.8502 42.3275C40.9202 42.4975 42.5302 46.5775 42.9402 48.0775L43.0002 48.3075C43.4502 49.9275 43.4102 50.7875 41.0702 51.6375C39.5102 52.2075 38.9502 50.9375 38.4602 49.8275C37.9102 48.5675 37.1302 46.2874 36.9402 45.6674C36.8402 45.3074 37.0402 44.9175 37.4002 44.8275L39.5702 42.8375L39.5902 42.8275Z" fill="white"/>
<path d="M41.0805 51.6392C39.5205 52.2092 38.9605 50.9392 38.4705 49.8292C37.9205 48.5692 37.1405 46.2892 36.9505 45.6692C36.8505 45.3092 37.0505 44.9192 37.4105 44.8292C37.7705 44.7192 38.1505 44.9291 38.2505 45.2891C38.4205 45.8691 39.1805 48.0891 39.7005 49.2891C40.2305 50.4991 40.2905 50.4792 40.5905 50.3692C41.5305 50.0292 41.8938 49.4658 41.6805 48.6792L41.6105 48.4492C41.2205 47.0192 39.5805 42.8792 39.5705 42.8392C39.4305 42.4892 39.6005 42.0892 39.9505 41.9592C40.3005 41.8192 40.6905 41.9892 40.8305 42.3392C40.9005 42.5092 42.5105 46.5892 42.9205 48.0892L42.9805 48.3192C43.4305 49.9392 43.3905 50.7992 41.0505 51.6492L41.0805 51.6392Z" fill="#005AAF"/>
<path d="M37.3 24.035C38.51 23.895 39.38 22.7951 39.23 21.5751C39.1 20.4551 38.83 19.3351 38.44 18.2651C35.65 10.5951 27.15 6.63505 19.49 9.42505C11.83 12.215 7.87002 20.7151 10.66 28.3751C12.18 32.5651 15.45 35.765 19.57 37.235C19.52 38.775 19.76 40.3351 20.31 41.8751C22.65 48.2951 29.77 51.615 36.2 49.285C42.6 46.955 45.93 39.8451 43.62 33.4251C43.42 32.8751 43 32.4251 42.48 32.1751C41.94 31.9351 41.33 31.905 40.79 32.105L31.99 35.3051C30.85 35.7251 30.25 36.9951 30.67 38.1351C31.09 39.2851 32.36 39.8751 33.5 39.4551C33.5 39.4551 37.39 38.0351 39.92 37.1151C40.15 40.5551 38.09 43.8951 34.69 45.1351C30.55 46.6451 25.96 44.5051 24.46 40.3651C23.5 37.7251 24.03 34.9051 25.62 32.8151C27.01 33.6451 28.74 33.895 30.39 33.295C33.28 32.245 34.77 29.045 33.71 26.155C32.66 23.255 29.46 21.7651 26.57 22.8151C23.97 23.7651 22.53 26.4351 23.01 29.0651C21.96 30.1751 21.11 31.455 20.53 32.855C17.89 31.745 15.82 29.605 14.82 26.855C12.86 21.475 15.64 15.5151 21.01 13.5651C26.38 11.6051 32.35 14.3851 34.31 19.7651C34.59 20.5151 34.77 21.3051 34.87 22.0851C35.01 23.2951 36.1 24.1651 37.32 24.0151L37.3 24.035Z" fill="white"/>
<path d="M40.77 32.105L31.97 35.3051C30.83 35.7251 30.23 36.9951 30.65 38.1351C31.07 39.2851 32.34 39.8751 33.48 39.4551C33.48 39.4551 37.37 38.0351 39.9 37.1151C40.13 40.5551 38.07 43.8951 34.67 45.1351C30.53 46.6451 25.94 44.5051 24.44 40.3651C22.93 36.2251 25.07 31.6451 29.21 30.1351C30.35 29.7151 30.94 28.4551 30.52 27.3151C30.1 26.1651 28.84 25.575 27.69 25.985C24.3 27.215 21.78 29.7851 20.49 32.8751C17.85 31.7651 15.78 29.6251 14.78 26.8751C12.82 21.4951 15.6 15.5351 20.97 13.5851C26.34 11.6251 32.31 14.405 34.27 19.785C34.55 20.535 34.73 21.325 34.83 22.105C34.97 23.315 36.06 24.185 37.28 24.035C38.49 23.895 39.36 22.7951 39.21 21.5751C39.08 20.4551 38.81 19.3351 38.42 18.2651C35.63 10.5951 27.13 6.63505 19.47 9.42505C11.81 12.215 7.85 20.7151 10.64 28.3751C12.16 32.5651 15.43 35.765 19.55 37.235C19.5 38.775 19.74 40.3351 20.29 41.8751C22.63 48.2951 29.75 51.615 36.18 49.285C42.58 46.955 45.91 39.8451 43.6 33.4251C43.4 32.8751 42.98 32.4251 42.46 32.1751C41.92 31.9351 41.31 31.905 40.77 32.105Z" fill="#005AAF"/>
<path d="M33.6898 26.1762C34.7398 29.0662 33.2498 32.2663 30.3698 33.3163C27.4898 34.3663 24.2798 32.8762 23.2198 29.9862C22.1698 27.0862 23.6498 23.8963 26.5498 22.8363C29.4398 21.7863 32.6298 23.2762 33.6898 26.1762Z" fill="#F0B400"/>
<path d="M26.3101 15.5567C26.2801 15.8267 26.5901 16.0767 27.0101 16.1267C27.4301 16.1767 27.7901 16.0067 27.8301 15.7467C27.8601 15.4867 27.5501 15.2267 27.1301 15.1767C26.7101 15.1267 26.3401 15.2967 26.3101 15.5567Z" fill="#005AAF"/>
<path d="M17.8801 18.025C18.0301 18.245 18.4301 18.245 18.7901 18.015C19.1401 17.785 19.3101 17.415 19.1701 17.195C19.0301 16.975 18.6201 16.975 18.2701 17.205C17.9201 17.435 17.7401 17.805 17.8901 18.025H17.8801Z" fill="#005AAF"/>
<path d="M24.0799 23.0374C23.9799 23.0774 23.8599 23.0774 23.7599 23.0374L19.4799 21.2874C19.3499 21.2374 19.2499 21.1174 19.2199 20.9874C19.1899 20.8474 19.2199 20.7074 19.2999 20.5974L22.1499 17.0874C22.2699 16.9374 22.4799 16.8774 22.6599 16.9574L26.9399 18.7074C27.0699 18.7574 27.1699 18.8774 27.1999 19.0074C27.2399 19.1474 27.1999 19.2874 27.1199 19.3974L24.2699 22.9074C24.2199 22.9674 24.1499 23.0174 24.0799 23.0474V23.0374ZM20.3799 20.6874L23.7899 22.0874L26.0499 19.2974L22.6299 17.8974L20.3699 20.6774L20.3799 20.6874Z" fill="#005AAF"/>
<path d="M26.93 19.5256C26.93 19.5256 26.9001 19.5356 26.8801 19.5356L19.75 21.2956C19.51 21.3556 19.27 21.2056 19.21 20.9656C19.15 20.7256 19.3 20.4856 19.53 20.4256L26.65 18.6656C26.89 18.6056 27.1301 18.7556 27.1901 18.9956C27.2501 19.2156 27.1201 19.4456 26.9101 19.5256H26.93Z" fill="#005AAF"/>
</g>
<path d="M72.6299 4.91809H71.09C70.52 4.91809 70.1599 4.74809 70.1599 4.03809C70.1599 3.24809 70.65 3.15808 71.09 3.15808H72.6299C72.6299 2.61808 72.6299 2.07812 73.5599 2.07812C74.4899 2.07812 74.46 2.62808 74.46 3.15808H75.95C76.52 3.15808 76.89 3.3381 76.89 4.0481C76.89 4.8381 76.39 4.90808 75.95 4.90808H74.46V5.69812C74.68 5.65812 75.0299 5.59808 75.7199 5.59808C77.1599 5.59808 77.92 5.91811 78.52 6.43811C79.23 7.03811 79.4999 7.8481 79.4999 8.6181C79.4999 9.2781 79.26 10.7181 77.52 11.4081C76.57 11.7781 75.58 11.7781 75.53 11.7781C74.69 11.7781 74.65 10.9581 74.65 10.8281C74.65 10.5481 74.76 10.1981 75.34 10.1381C76.06 10.0681 77.46 9.9481 77.46 8.6181C77.46 7.3681 76.2 7.2381 75.7 7.2381C75.24 7.2381 74.78 7.30808 74.45 7.34808V9.82812C74.45 11.1481 73.4899 11.5481 72.3799 11.5481C70.5699 11.5481 69.9199 10.2281 69.9199 9.2381C69.9199 8.5681 70.1799 7.7181 71.0399 6.9881C71.5399 6.5481 72.0199 6.32812 72.6299 6.07812V4.90808V4.91809ZM72.6599 7.85809C72.0899 8.12809 71.7 8.54811 71.7 9.12811C71.7 9.60811 72.0999 9.72809 72.3099 9.72809C72.6499 9.72809 72.6599 9.47814 72.6599 9.27814V7.85809ZM78.84 3.03809C79.75 4.18809 79.7499 4.47809 79.7499 4.66809C79.7499 5.35809 78.98 5.58813 78.7 5.58813C78.27 5.58813 78.1499 5.37812 77.9899 5.07812C77.6499 4.47813 77.2499 3.88814 76.9699 3.52814C76.8499 3.36814 76.7899 3.24809 76.7899 3.03809C76.7899 2.53809 77.3199 2.2381 77.7499 2.2381C77.9999 2.2381 78.24 2.3181 78.83 3.0481L78.84 3.03809Z" fill="#966E00"/>
<path d="M87.97 5.23981C89.48 5.23981 90.41 5.91984 90.41 8.64984C90.41 9.94984 90.17 11.5898 89.61 12.3698C89.12 13.0698 88.3301 13.1498 87.6401 13.1498C86.7301 13.1498 86.1 13.1498 86.1 12.1398C86.1 11.7698 86.21 11.2798 86.85 11.2798C86.96 11.2798 87.4201 11.2998 87.5201 11.2898C87.9801 11.2498 88.13 11.0398 88.22 10.7398C88.45 10.0198 88.55 8.82981 88.55 8.36981C88.55 7.28981 88.3601 7.03979 87.5901 7.03979H86.7801C86.5101 8.3998 86.1201 10.2198 85.5001 11.9598C85.1201 13.0198 84.7201 13.0798 84.4601 13.0798C83.8901 13.0798 83.3101 12.6798 83.3101 12.1598C83.3101 11.8998 83.34 11.8098 83.67 11.1098C83.83 10.7698 84.3901 9.38981 84.8701 7.05981H84.3C83.78 7.05981 83.35 6.91979 83.35 6.15979C83.35 5.39979 83.7 5.23981 84.29 5.23981H85.1801C85.2001 5.02981 85.2901 4.08984 85.3201 3.95984C85.4201 3.55984 85.6801 3.33984 86.2101 3.33984C87.0601 3.33984 87.23 3.72982 87.23 4.12982C87.23 4.22982 87.21 4.59982 87.11 5.24982H87.97V5.23981ZM92.72 6.08984C93.12 7.11984 93.3101 8.22983 93.3101 8.69983C93.3101 8.97983 93.3101 9.6698 92.1801 9.6698C91.4301 9.6698 91.3801 9.2098 91.3301 8.5498C91.3001 8.1798 91.1501 7.16985 90.8801 6.52985C90.5701 5.81985 90.5001 5.64983 90.5001 5.38983C90.5001 5.15983 90.57 4.94985 90.8 4.77985C91 4.63985 91.25 4.55981 91.47 4.55981C91.8 4.55981 92.17 4.64983 92.73 6.07983L92.72 6.08984Z" fill="#966E00"/>
<path d="M95.4999 10.2864C95.6099 9.69638 95.8899 9.54639 96.3599 9.54639C97.3599 9.54639 97.3599 10.1264 97.3599 10.3364C97.3599 10.4864 97.2499 11.1764 97.2399 11.3164C97.1599 11.9464 97.0999 13.0764 97.0999 14.2664C97.0999 15.7864 97.21 16.6064 97.34 17.7164C97.36 17.8564 97.3699 18.0264 97.3699 18.1464C97.3699 18.7564 96.8299 18.9364 96.2999 18.9364C95.8799 18.9364 95.5599 18.7564 95.4399 18.2064C95.3599 17.8764 95.1899 16.7064 95.1899 15.0364C95.1899 13.0864 95.4199 10.8264 95.5099 10.2964L95.4999 10.2864ZM102.8 11.8264H103.7C104.25 11.8264 104.66 11.9764 104.66 12.7164C104.66 13.3364 104.4 13.6264 103.7 13.6264H102.85C102.87 15.5064 102.88 16.8864 101.73 17.9664C100.91 18.7464 99.7199 19.1164 99.3599 19.1164C98.6399 19.1164 98.4199 18.3464 98.4199 18.0464C98.4199 17.5464 98.7399 17.4264 99.2199 17.2564C100.68 16.7464 100.92 15.7664 100.92 14.8064C100.92 14.6164 100.91 13.7864 100.91 13.6264H98.7C98.2 13.6264 97.8199 13.3964 97.8199 12.7264C97.8199 12.1764 98.05 11.8264 98.7 11.8264H100.86C100.86 11.5764 100.84 10.4964 100.87 10.2764C100.95 9.79643 101.34 9.64642 101.75 9.64642C101.88 9.64642 101.95 9.66641 102.07 9.69641C102.18 10.5264 102.26 11.0764 102.81 11.1164C102.81 11.1864 102.82 11.3864 102.82 11.5464V11.8264H102.8ZM103.03 10.7964C102.68 10.7964 102.58 10.6364 102.53 10.4264C102.49 10.2264 102.35 9.61639 102.35 9.48639C102.35 9.23639 102.54 9.10638 102.85 9.10638C103.1 9.10638 103.27 9.2064 103.35 9.4964C103.42 9.7064 103.54 10.1864 103.54 10.3364C103.54 10.7964 103.11 10.7964 103.03 10.7964ZM104.51 10.7964C104.31 10.7964 104.13 10.7464 104.05 10.4964C104 10.3264 103.82 9.52642 103.82 9.45642C103.82 9.14642 104.08 9.06641 104.31 9.06641C104.67 9.06641 104.75 9.3164 104.8 9.4964C104.89 9.8164 105.01 10.1864 105.01 10.3464C105.01 10.7064 104.76 10.7964 104.51 10.7964Z" fill="#966E00"/>
<path d="M104.18 22.6983C103.58 22.6983 103.27 22.4383 103.27 21.7983C103.27 21.2883 103.43 20.8883 104.07 20.8883H107.32C107.27 20.7283 107.14 20.2683 107.14 20.0283C107.14 19.4183 107.59 19.2383 108.2 19.2383C108.4 19.2383 108.8 19.2383 108.98 19.6683C109.05 19.8483 109.23 20.6483 109.28 20.8183C109.72 20.7983 110.31 20.7683 110.69 20.7183C110.95 20.6883 111.66 20.5683 111.83 20.5683C112.63 20.5683 112.63 21.3783 112.63 21.5983C112.63 22.0483 112.44 22.2283 112.13 22.3383C111.74 22.4683 110.3 22.5683 109.95 22.5883C110.2 23.1383 110.49 23.6483 110.83 24.1483C111.08 24.5183 111.16 24.6183 111.16 24.8683C111.16 25.5283 110.37 25.7983 110.03 25.7983C109.53 25.7983 109.29 25.3583 108.9 24.6583C108.38 23.7083 107.98 22.7583 107.95 22.6783C107.88 22.6783 107.45 22.6883 107.4 22.6883H104.18V22.6983ZM104.86 28.3083C104.41 28.0583 103.73 27.4683 103.73 26.3783C103.73 25.4483 104.21 24.6883 105.23 24.0983C105.37 24.0183 105.94 23.6783 106.32 23.6783C106.83 23.6783 107.15 24.1583 107.15 24.5883C107.15 24.9783 106.89 25.1083 106.59 25.2483C106.36 25.3583 105.63 25.6983 105.63 26.3083C105.63 27.1083 106.79 27.1083 108.44 27.1083C109.07 27.1083 109.71 27.0883 110.34 27.0383C110.37 27.0383 110.55 27.0283 110.59 27.0283C111.2 27.0283 111.39 27.3983 111.39 27.9083C111.39 28.4483 111.22 28.7383 110.74 28.8383C110.4 28.9083 109.01 28.9183 108.56 28.9183C106.24 28.9183 105.5 28.6783 104.84 28.3083H104.86Z" fill="#966E00"/>
<path d="M115.62 35.1897C115.86 35.1897 116.5 35.2097 116.5 35.9997C116.5 36.6797 116.05 36.8197 115.62 36.8197H113.46V37.8197C114.29 38.1497 115.06 38.6097 115.78 39.1197C116.03 39.3097 116.23 39.4497 116.23 39.9097C116.23 40.2597 115.92 41.0497 115.21 41.0497C114.9 41.0497 114.79 40.9497 114.49 40.6797C114.04 40.2897 113.91 40.1797 113.47 39.8897C113.44 40.1997 113.42 40.4897 113.19 40.7997C112.54 41.6297 111.38 41.6597 110.94 41.6597C108.81 41.6597 107.92 40.5197 107.92 39.5497C107.92 38.4097 108.94 37.3397 110.99 37.3397C111.29 37.3397 111.38 37.3597 111.54 37.3897V36.8197H108.77C108.55 36.8197 107.91 36.8097 107.91 36.0097C107.91 35.3797 108.29 35.1897 108.77 35.1897H111.54V34.4997H108.53C108.33 34.4997 107.67 34.4997 107.67 33.6797C107.67 32.8597 108.3 32.8497 108.53 32.8497H111.54C111.54 32.5497 111.54 31.9297 112.49 31.9297C113.33 31.9297 113.46 32.3797 113.46 32.8497H115.89C116.08 32.8497 116.75 32.8497 116.75 33.6697C116.75 34.4897 116.08 34.4997 115.89 34.4997H113.46V35.1897H115.62ZM111.54 38.9797C111.22 38.8397 110.92 38.8197 110.75 38.8197C110.16 38.8197 109.71 39.0797 109.71 39.4497C109.71 39.5397 109.75 40.0397 110.71 40.0397C111.54 40.0397 111.55 39.5997 111.55 39.4197V38.9797H111.54Z" fill="#966E00"/>
<path d="M107.57 47.168C106.76 47.168 106.76 46.328 106.76 46.168C106.76 45.818 106.78 45.238 107.51 45.148C108 45.098 112.95 44.918 114.84 44.918C115.2 44.918 115.78 44.918 115.9 44.938C116.18 44.978 116.53 45.148 116.53 45.868C116.53 46.088 116.53 46.798 115.74 46.818C115.43 46.828 114.91 46.828 114.7 46.858C114.12 46.938 113.43 47.238 112.76 47.738C111.82 48.438 110.97 49.488 110.97 50.548C110.97 51.938 112.64 52.078 113.92 52.158C114.99 52.208 115.04 52.238 115.18 52.288C115.39 52.378 115.6 52.588 115.6 53.018C115.6 53.298 115.5 53.758 115.32 53.968C115.12 54.188 114.82 54.228 114.55 54.228C113.73 54.228 112.5 54.098 111.68 53.868C110.68 53.598 109.84 53.138 109.33 52.208C109.06 51.708 108.96 51.248 108.96 50.718C108.96 50.188 109.06 49.178 110 48.048C110.51 47.448 110.96 47.148 111.39 46.878C110.79 46.928 107.65 47.148 107.56 47.148L107.57 47.168ZM114.53 48.608C114.9 49.168 114.96 49.388 114.96 49.558C114.96 50.038 114.46 50.118 114.34 50.118C114.07 50.118 114 49.998 113.76 49.568C113.71 49.458 113.44 49.018 113.39 48.898C113.36 48.808 113.34 48.738 113.34 48.648C113.34 48.268 113.78 48.148 113.92 48.148C114.2 48.148 114.3 48.248 114.54 48.608H114.53ZM115.9 49.278C115.62 49.278 115.55 49.158 115.24 48.628C115.21 48.558 114.98 48.208 114.92 48.118C114.88 48.038 114.85 47.968 114.85 47.888C114.85 47.538 115.21 47.388 115.44 47.388C115.7 47.388 115.91 47.578 116.18 48.008C116.48 48.478 116.49 48.578 116.49 48.728C116.49 49.078 116.13 49.278 115.89 49.278H115.9Z" fill="#966E00"/>
</svg>
