<svg width="572" height="65" viewBox="0 0 572 65" fill="none" xmlns="http://www.w3.org/2000/svg">
<path d="M38.53 16.49L23.26 32.6899L38.85 49.49L28.93 56.46L7.72998 32.6299C12.1 27.6299 21.04 17.2 28.93 9.75L38.52 16.48L38.53 16.49Z" fill="#AD8B0A" stroke="#AD8B0A" stroke-width="14.17" stroke-linecap="round" stroke-linejoin="round"/>
<path d="M95.5501 51.9897C93.8501 50.8597 91.1001 47.9198 89.2701 46.8398C88.2701 53.7398 81.9501 57.2397 76.3401 57.2397C67.5301 57.2397 63.1001 51.8798 63.1001 46.2798C63.1001 39.5498 70.0201 35.6796 77.7101 35.3796V32.6797H65.1501V24.6396H77.7101V21.4197H65.1801V13.0798H77.7101V8.83984H89.1301V13.0798H100.1V21.4197H89.1301V24.6396H100.1V32.6797H89.1301V37.0999C93.0401 38.3499 97.6501 41.2797 101.57 44.1997L95.5501 51.9797V51.9897ZM78.1101 43.8997C77.3901 43.7797 76.7401 43.7197 76.0901 43.7197C74.8501 43.7197 72.9601 44.3797 72.9601 46.2197C72.9601 47.5897 73.8701 48.5999 75.4401 48.5999C76.7401 48.5999 78.1201 47.7698 78.1201 46.0398V43.8997H78.1101Z" fill="#AD8B0A" stroke="#AD8B0A" stroke-width="14.17" stroke-linecap="round" stroke-linejoin="round"/>
<path d="M142.93 45.6575C148.35 45.6575 153.76 44.7075 154.22 44.7075V55.0776C150.57 55.7376 148.41 56.2075 142.02 56.2075C131.71 56.2075 121.53 52.6974 121.53 42.6274C121.53 37.1474 124.53 32.3775 129.69 28.9275L124.51 28.9475L124.07 11.6375L135.06 11.6177C135.31 16.3877 135.31 21.4075 135.57 25.8975C140.4 24.0475 146.27 22.9775 152.79 22.9775V32.8677C141.89 33.5277 133.93 36.4975 133.93 40.9675C133.93 44.0675 138.43 45.6775 142.93 45.6775V45.6575ZM148.69 14.5876C148.69 17.2476 146.55 19.3376 143.92 19.3376C141.29 19.3376 139.05 17.2476 139.05 14.5876C139.05 11.9276 141.29 9.9375 143.92 9.9375C146.55 9.9375 148.69 12.0276 148.69 14.5876ZM161.25 14.5876C161.25 17.2476 159.01 19.3376 156.48 19.3376C153.75 19.3376 151.61 17.2476 151.61 14.5876C151.61 11.9276 153.75 9.9375 156.48 9.9375C159.01 9.9375 161.25 12.0276 161.25 14.5876Z" fill="#AD8B0A" stroke="#AD8B0A" stroke-width="14.17" stroke-linecap="round" stroke-linejoin="round"/>
<path d="M209.59 32.8379C209.78 44.8779 198.38 54.7378 187.02 56.7578L182.32 48.5979C188.52 46.6879 198.24 42.2879 198.24 34.3079C198.24 29.5379 194.63 24.9577 190.02 24.9077C189.17 24.9077 188.39 25.0878 187.61 25.5078L187.77 38.6179L176.17 38.9377C175.95 34.7977 175.7 28.9578 175.7 24.0078C175.7 19.0578 175.7 15.1078 176.24 11.2578L187.59 11.3479L187.61 16.8379C189.57 16.1779 191.59 15.8279 193.74 15.8279C202.68 15.8279 209.43 22.9979 209.59 32.8279V32.8379Z" fill="#AD8B0A" stroke="#AD8B0A" stroke-width="14.17" stroke-linecap="round" stroke-linejoin="round"/>
<path d="M269.58 36.7395C268.75 45.6295 262.37 56.1395 254.27 55.4795C249.16 55.0695 247.39 50.6894 246.18 48.1394C245.21 46.0994 244.29 44.5396 242.34 44.5396C237.19 44.5396 234.21 53.7394 233.17 55.3994L221.93 50.4495L239.92 10.2695L250.75 15.1494C248.13 20.8894 245.74 28.1694 242.09 34.6694C243.22 33.8094 245.67 32.8896 246.64 32.8396C254.29 32.4296 251.97 41.8696 255.15 42.3696C257.28 42.7096 259.03 38.1096 259.41 34.3296L269.57 36.7395H269.58Z" fill="#AD8B0A" stroke="#AD8B0A" stroke-width="14.17" stroke-linecap="round" stroke-linejoin="round"/>
<path d="M313.66 57.449C311.57 57.449 309.67 57.119 308.18 56.509L307.89 56.3889V43.3789H302.85L307.27 46.019L307.02 46.429C303.45 52.229 298.91 55.1291 293.15 56.7991L292.83 56.8889L287.01 48.8889L287.63 48.689C290.63 47.739 294.01 45.7391 296.69 43.3691H287.87V35.6191H307.9V31.189H319.45V35.6191H336.98L336.76 35.5891C328.69 34.4191 319.67 32.4891 313.73 27.0291C307.73 32.3691 298.86 34.249 290.15 35.479L289.78 35.5291L286.37 26.489L286.99 26.439C293.18 25.909 301.31 24.199 306.96 20.959C306.04 21.149 305.03 21.249 303.88 21.249C302 21.249 300.37 20.9689 299.02 20.4189L298.73 20.2991V18.239H287.68V10.3191H298.73V7.87891H309.03V10.3191H318.2V7.87891H328.5V10.3191H339.55V18.239H328.5V20.2991L328.21 20.4189C326.82 20.9889 325.32 21.249 323.35 21.249C322.45 21.249 321.59 21.1791 320.79 21.0391C327.18 24.5391 334.81 25.8491 340.37 26.3191L341.01 26.3691L337.13 35.6191H339.36V43.3691H330.66C333.39 45.7891 336.86 47.8491 339.97 48.8691L340.61 49.0791L334.45 56.949L334.15 56.8591C328.5 55.2491 323.4 51.839 320.51 46.519L320.29 46.1091L324.84 43.3691H319.46V56.3789L319.17 56.499C317.64 57.129 315.85 57.439 313.68 57.439L313.66 57.449ZM309.01 18.249V19.8889L309.07 19.8391H318.18V18.249H309.01Z" fill="#AD8B0A" stroke="#AD8B0A" stroke-width="14.17" stroke-linecap="round" stroke-linejoin="round"/>
<path d="M407.74 56.54H363.81V52.53C363.17 53.81 362.42 55.0299 361.6 56.1299L361.35 56.46L352.67 51.55L352.87 51.1499C356.34 44.3399 357.75 38.2401 357.75 30.0901V9.25H406.86V22.24L406.17 22.6201C405.32 23.0601 404.55 23.9701 403.58 24.1001H407.12V30.3301H401.69C403.75 32.0101 405.35 33.5799 406.58 35.1299L406.89 35.52L399.5 40.8H404.95V47.1699H391.89V48.8H407.73V56.55L407.74 56.54ZM364.79 48.79H380.97V47.1599H368.86V40.79H380.97V39.0801C377.16 39.2101 373.38 39.2701 370.31 39.3201L368.76 39.3501V32.1699H373.11L374.41 30.3301H367.58C367.48 37.3401 366.51 43.7 364.78 48.79H364.79ZM391.89 40.79H398.36L396.09 37.5801C395.05 37.8101 393.1 37.9999 391.89 38.1499V40.79ZM367.59 24.0901H399.32C398.18 23.9301 397.17 22.8001 396.34 22.5601H367.59V24.0901ZM384.4 32.1699H392.73L392.14 31.1699L391.63 30.3301H385.59C385.26 30.9401 384.86 31.5499 384.4 32.1699ZM367.59 17.03H395.94V15.3101H367.59V17.03Z" fill="#AD8B0A" stroke="#AD8B0A" stroke-width="14.17" stroke-linecap="round" stroke-linejoin="round"/>
<path d="M43.4298 40.5684C40.7698 40.5684 38.8698 38.3382 37.5798 36.9282C36.0198 35.2182 33.8898 33.3782 32.8098 32.6882C32.7698 32.6682 32.7698 32.6284 32.8098 32.6184C33.8898 31.9284 36.0198 30.0882 37.5798 28.3782C38.8698 26.9682 40.7898 24.7383 43.4298 24.7383C45.8798 24.7383 47.7598 26.5182 47.7598 28.6582C47.7598 29.9382 47.3198 31.5984 45.2398 32.6184C45.1898 32.6384 45.1898 32.6782 45.2398 32.6882C47.2998 33.6882 47.7598 35.3682 47.7598 36.6482C47.7598 38.7882 45.8798 40.5684 43.4298 40.5684Z" fill="#AD8B0A" stroke="#AD8B0A" stroke-width="14.17" stroke-linecap="round" stroke-linejoin="round"/>
<path d="M38.53 16.49L23.26 32.6899L38.85 49.49L28.93 56.46L7.72998 32.6299C12.1 27.6299 21.04 17.2 28.93 9.75L38.52 16.48L38.53 16.49Z" fill="white" stroke="white" stroke-width="8.5" stroke-linecap="round" stroke-linejoin="round"/>
<path d="M95.5501 51.9897C93.8501 50.8597 91.1001 47.9198 89.2701 46.8398C88.2701 53.7398 81.9501 57.2397 76.3401 57.2397C67.5301 57.2397 63.1001 51.8798 63.1001 46.2798C63.1001 39.5498 70.0201 35.6796 77.7101 35.3796V32.6797H65.1501V24.6396H77.7101V21.4197H65.1801V13.0798H77.7101V8.83984H89.1301V13.0798H100.1V21.4197H89.1301V24.6396H100.1V32.6797H89.1301V37.0999C93.0401 38.3499 97.6501 41.2797 101.57 44.1997L95.5501 51.9797V51.9897ZM78.1101 43.8997C77.3901 43.7797 76.7401 43.7197 76.0901 43.7197C74.8501 43.7197 72.9601 44.3797 72.9601 46.2197C72.9601 47.5897 73.8701 48.5999 75.4401 48.5999C76.7401 48.5999 78.1201 47.7698 78.1201 46.0398V43.8997H78.1101Z" fill="white" stroke="white" stroke-width="8.5" stroke-linecap="round" stroke-linejoin="round"/>
<path d="M142.93 45.6575C148.35 45.6575 153.76 44.7075 154.22 44.7075V55.0776C150.57 55.7376 148.41 56.2075 142.02 56.2075C131.71 56.2075 121.53 52.6974 121.53 42.6274C121.53 37.1474 124.53 32.3775 129.69 28.9275L124.51 28.9475L124.07 11.6375L135.06 11.6177C135.31 16.3877 135.31 21.4075 135.57 25.8975C140.4 24.0475 146.27 22.9775 152.79 22.9775V32.8677C141.89 33.5277 133.93 36.4975 133.93 40.9675C133.93 44.0675 138.43 45.6775 142.93 45.6775V45.6575ZM148.69 14.5876C148.69 17.2476 146.55 19.3376 143.92 19.3376C141.29 19.3376 139.05 17.2476 139.05 14.5876C139.05 11.9276 141.29 9.9375 143.92 9.9375C146.55 9.9375 148.69 12.0276 148.69 14.5876ZM161.25 14.5876C161.25 17.2476 159.01 19.3376 156.48 19.3376C153.75 19.3376 151.61 17.2476 151.61 14.5876C151.61 11.9276 153.75 9.9375 156.48 9.9375C159.01 9.9375 161.25 12.0276 161.25 14.5876Z" fill="white" stroke="white" stroke-width="8.5" stroke-linecap="round" stroke-linejoin="round"/>
<path d="M209.59 32.8379C209.78 44.8779 198.38 54.7378 187.02 56.7578L182.32 48.5979C188.52 46.6879 198.24 42.2879 198.24 34.3079C198.24 29.5379 194.63 24.9577 190.02 24.9077C189.17 24.9077 188.39 25.0878 187.61 25.5078L187.77 38.6179L176.17 38.9377C175.95 34.7977 175.7 28.9578 175.7 24.0078C175.7 19.0578 175.7 15.1078 176.24 11.2578L187.59 11.3479L187.61 16.8379C189.57 16.1779 191.59 15.8279 193.74 15.8279C202.68 15.8279 209.43 22.9979 209.59 32.8279V32.8379Z" fill="white" stroke="white" stroke-width="8.5" stroke-linecap="round" stroke-linejoin="round"/>
<path d="M269.58 36.7395C268.75 45.6295 262.37 56.1395 254.27 55.4795C249.16 55.0695 247.39 50.6894 246.18 48.1394C245.21 46.0994 244.29 44.5396 242.34 44.5396C237.19 44.5396 234.21 53.7394 233.17 55.3994L221.93 50.4495L239.92 10.2695L250.75 15.1494C248.13 20.8894 245.74 28.1694 242.09 34.6694C243.22 33.8094 245.67 32.8896 246.64 32.8396C254.29 32.4296 251.97 41.8696 255.15 42.3696C257.28 42.7096 259.03 38.1096 259.41 34.3296L269.57 36.7395H269.58Z" fill="white" stroke="white" stroke-width="8.5" stroke-linecap="round" stroke-linejoin="round"/>
<path d="M313.66 57.449C311.57 57.449 309.67 57.119 308.18 56.509L307.89 56.3889V43.3789H302.85L307.27 46.019L307.02 46.429C303.45 52.229 298.91 55.1291 293.15 56.7991L292.83 56.8889L287.01 48.8889L287.63 48.689C290.63 47.739 294.01 45.7391 296.69 43.3691H287.87V35.6191H307.9V31.189H319.45V35.6191H336.98L336.76 35.5891C328.69 34.4191 319.67 32.4891 313.73 27.0291C307.73 32.3691 298.86 34.249 290.15 35.479L289.78 35.5291L286.37 26.489L286.99 26.439C293.18 25.909 301.31 24.199 306.96 20.959C306.04 21.149 305.03 21.249 303.88 21.249C302 21.249 300.37 20.9689 299.02 20.4189L298.73 20.2991V18.239H287.68V10.3191H298.73V7.87891H309.03V10.3191H318.2V7.87891H328.5V10.3191H339.55V18.239H328.5V20.2991L328.21 20.4189C326.82 20.9889 325.32 21.249 323.35 21.249C322.45 21.249 321.59 21.1791 320.79 21.0391C327.18 24.5391 334.81 25.8491 340.37 26.3191L341.01 26.3691L337.13 35.6191H339.36V43.3691H330.66C333.39 45.7891 336.86 47.8491 339.97 48.8691L340.61 49.0791L334.45 56.949L334.15 56.8591C328.5 55.2491 323.4 51.839 320.51 46.519L320.29 46.1091L324.84 43.3691H319.46V56.3789L319.17 56.499C317.64 57.129 315.85 57.439 313.68 57.439L313.66 57.449ZM309.01 18.249V19.8889L309.07 19.8391H318.18V18.249H309.01Z" fill="white" stroke="white" stroke-width="8.5" stroke-linecap="round" stroke-linejoin="round"/>
<path d="M407.74 56.54H363.81V52.53C363.17 53.81 362.42 55.0299 361.6 56.1299L361.35 56.46L352.67 51.55L352.87 51.1499C356.34 44.3399 357.75 38.2401 357.75 30.0901V9.25H406.86V22.24L406.17 22.6201C405.32 23.0601 404.55 23.9701 403.58 24.1001H407.12V30.3301H401.69C403.75 32.0101 405.35 33.5799 406.58 35.1299L406.89 35.52L399.5 40.8H404.95V47.1699H391.89V48.8H407.73V56.55L407.74 56.54ZM364.79 48.79H380.97V47.1599H368.86V40.79H380.97V39.0801C377.16 39.2101 373.38 39.2701 370.31 39.3201L368.76 39.3501V32.1699H373.11L374.41 30.3301H367.58C367.48 37.3401 366.51 43.7 364.78 48.79H364.79ZM391.89 40.79H398.36L396.09 37.5801C395.05 37.8101 393.1 37.9999 391.89 38.1499V40.79ZM367.59 24.0901H399.32C398.18 23.9301 397.17 22.8001 396.34 22.5601H367.59V24.0901ZM384.4 32.1699H392.73L392.14 31.1699L391.63 30.3301H385.59C385.26 30.9401 384.86 31.5499 384.4 32.1699ZM367.59 17.03H395.94V15.3101H367.59V17.03Z" fill="white" stroke="white" stroke-width="8.5" stroke-linecap="round" stroke-linejoin="round"/>
<path d="M43.4298 40.5684C40.7698 40.5684 38.8698 38.3382 37.5798 36.9282C36.0198 35.2182 33.8898 33.3782 32.8098 32.6882C32.7698 32.6682 32.7698 32.6284 32.8098 32.6184C33.8898 31.9284 36.0198 30.0882 37.5798 28.3782C38.8698 26.9682 40.7898 24.7383 43.4298 24.7383C45.8798 24.7383 47.7598 26.5182 47.7598 28.6582C47.7598 29.9382 47.3198 31.5984 45.2398 32.6184C45.1898 32.6384 45.1898 32.6782 45.2398 32.6882C47.2998 33.6882 47.7598 35.3682 47.7598 36.6482C47.7598 38.7882 45.8798 40.5684 43.4298 40.5684Z" fill="white" stroke="white" stroke-width="8.5" stroke-linecap="round" stroke-linejoin="round"/>
<path d="M470.49 41.3757V49.3757C467.91 49.8857 466.4 50.2559 461.89 50.2559C454.62 50.2559 447.44 47.5459 447.44 39.7659C447.44 35.5359 449.56 31.8558 453.19 29.1858H449.14V16.6758H457.28C457.69 19.7158 457.74 23.8059 457.33 26.8459C460.73 25.4159 464.87 24.5959 469.48 24.5959V32.2358C461.8 32.7458 456.19 35.0458 456.19 38.4958C456.19 40.8858 459.36 42.1257 462.54 42.1257C466.36 42.1257 470.18 41.3857 470.5 41.3857L470.49 41.3757Z" fill="black"/>
<path d="M495.56 22.0059V36.4558H499.38V44.0459C496.3 44.8759 491.65 44.9159 488.43 44.0459C487.92 40.9159 487.55 35.6758 487.55 30.4758C487.55 27.5358 487.69 24.5359 487.96 22.0059H495.55H495.56ZM521.78 44.0459C521 43.4059 520.08 42.7158 519.07 42.1558C518.93 47.1658 514.65 49.9358 510.65 49.9358C504.9 49.9358 501.86 45.9359 501.86 41.5659C501.86 36.4159 506.09 33.6059 511.24 33.3259V30.0559H504.8V23.2959H511.24V16.6758H519.06V23.2959H523.71V30.0559H519.06V34.5159C521.41 35.2959 523.61 36.4959 525.5 38.0159L521.77 44.0459H521.78ZM511.7 39.7258H511.06C509.63 39.7258 508.53 40.4159 508.53 41.8459C508.53 42.9959 509.08 43.6357 509.96 43.6357C510.88 43.6357 511.71 42.8559 511.71 41.5159V39.7258H511.7Z" fill="black"/>
<path d="M543.46 48.9673C544.29 45.8873 547.48 44.0375 550.56 44.8675C553.64 45.6975 555.49 48.8873 554.66 51.9673C553.83 55.0473 550.64 56.8974 547.56 56.0674C544.48 55.2374 542.63 52.0473 543.46 48.9673ZM546.47 40.8872C549.61 29.1772 560.48 29.6273 561.45 25.9873C562.1 23.5773 559.56 21.8174 556.71 21.0574C553.8 20.2774 549.92 20.8574 547.12 22.5674L544.57 14.1372C549.25 11.9072 554.49 11.3873 559.48 12.7273C568.33 15.0973 572.88 21.4273 571.01 28.4273C568.77 36.7773 557.6 35.2174 555.44 43.2874C554 43.5074 552.65 43.3773 550.92 42.9173C549.01 42.4073 547.54 41.6472 546.48 40.8872H546.47Z" fill="#AD8B0A"/>
<path d="M38.53 16.49L23.26 32.6899L38.85 49.49L28.93 56.46L7.72998 32.6299C12.1 27.6299 21.04 17.2 28.93 9.75L38.52 16.48L38.53 16.49Z" fill="black"/>
<path d="M95.5501 51.9897C93.8501 50.8597 91.1001 47.9198 89.2701 46.8398C88.2701 53.7398 81.9501 57.2397 76.3401 57.2397C67.5301 57.2397 63.1001 51.8798 63.1001 46.2798C63.1001 39.5498 70.0201 35.6796 77.7101 35.3796V32.6797H65.1501V24.6396H77.7101V21.4197H65.1801V13.0798H77.7101V8.83984H89.1301V13.0798H100.1V21.4197H89.1301V24.6396H100.1V32.6797H89.1301V37.0999C93.0401 38.3499 97.6501 41.2797 101.57 44.1997L95.5501 51.9797V51.9897ZM78.1101 43.8997C77.3901 43.7797 76.7401 43.7197 76.0901 43.7197C74.8501 43.7197 72.9601 44.3797 72.9601 46.2197C72.9601 47.5897 73.8701 48.5999 75.4401 48.5999C76.7401 48.5999 78.1201 47.7698 78.1201 46.0398V43.8997H78.1101Z" fill="black"/>
<path d="M142.93 45.6575C148.35 45.6575 153.76 44.7075 154.22 44.7075V55.0776C150.57 55.7376 148.41 56.2075 142.02 56.2075C131.71 56.2075 121.53 52.6974 121.53 42.6274C121.53 37.1474 124.53 32.3775 129.69 28.9275L124.51 28.9475L124.07 11.6375L135.06 11.6177C135.31 16.3877 135.31 21.4075 135.57 25.8975C140.4 24.0475 146.27 22.9775 152.79 22.9775V32.8677C141.89 33.5277 133.93 36.4975 133.93 40.9675C133.93 44.0675 138.43 45.6775 142.93 45.6775V45.6575ZM148.69 14.5876C148.69 17.2476 146.55 19.3376 143.92 19.3376C141.29 19.3376 139.05 17.2476 139.05 14.5876C139.05 11.9276 141.29 9.9375 143.92 9.9375C146.55 9.9375 148.69 12.0276 148.69 14.5876ZM161.25 14.5876C161.25 17.2476 159.01 19.3376 156.48 19.3376C153.75 19.3376 151.61 17.2476 151.61 14.5876C151.61 11.9276 153.75 9.9375 156.48 9.9375C159.01 9.9375 161.25 12.0276 161.25 14.5876Z" fill="black"/>
<path d="M209.59 32.8379C209.78 44.8779 198.38 54.7378 187.02 56.7578L182.32 48.5979C188.52 46.6879 198.24 42.2879 198.24 34.3079C198.24 29.5379 194.63 24.9577 190.02 24.9077C189.17 24.9077 188.39 25.0878 187.61 25.5078L187.77 38.6179L176.17 38.9377C175.95 34.7977 175.7 28.9578 175.7 24.0078C175.7 19.0578 175.7 15.1078 176.24 11.2578L187.59 11.3479L187.61 16.8379C189.57 16.1779 191.59 15.8279 193.74 15.8279C202.68 15.8279 209.43 22.9979 209.59 32.8279V32.8379Z" fill="black"/>
<path d="M269.58 36.7395C268.75 45.6295 262.37 56.1395 254.27 55.4795C249.16 55.0695 247.39 50.6894 246.18 48.1394C245.21 46.0994 244.29 44.5396 242.34 44.5396C237.19 44.5396 234.21 53.7394 233.17 55.3994L221.93 50.4495L239.92 10.2695L250.75 15.1494C248.13 20.8894 245.74 28.1694 242.09 34.6694C243.22 33.8094 245.67 32.8896 246.64 32.8396C254.29 32.4296 251.97 41.8696 255.15 42.3696C257.28 42.7096 259.03 38.1096 259.41 34.3296L269.57 36.7395H269.58Z" fill="black"/>
<path d="M313.66 57.449C311.57 57.449 309.67 57.119 308.18 56.509L307.89 56.3889V43.3789H302.85L307.27 46.019L307.02 46.429C303.45 52.229 298.91 55.1291 293.15 56.7991L292.83 56.8889L287.01 48.8889L287.63 48.689C290.63 47.739 294.01 45.7391 296.69 43.3691H287.87V35.6191H307.9V31.189H319.45V35.6191H336.98L336.76 35.5891C328.69 34.4191 319.67 32.4891 313.73 27.0291C307.73 32.3691 298.86 34.249 290.15 35.479L289.78 35.5291L286.37 26.489L286.99 26.439C293.18 25.909 301.31 24.199 306.96 20.959C306.04 21.149 305.03 21.249 303.88 21.249C302 21.249 300.37 20.9689 299.02 20.4189L298.73 20.2991V18.239H287.68V10.3191H298.73V7.87891H309.03V10.3191H318.2V7.87891H328.5V10.3191H339.55V18.239H328.5V20.2991L328.21 20.4189C326.82 20.9889 325.32 21.249 323.35 21.249C322.45 21.249 321.59 21.1791 320.79 21.0391C327.18 24.5391 334.81 25.8491 340.37 26.3191L341.01 26.3691L337.13 35.6191H339.36V43.3691H330.66C333.39 45.7891 336.86 47.8491 339.97 48.8691L340.61 49.0791L334.45 56.949L334.15 56.8591C328.5 55.2491 323.4 51.839 320.51 46.519L320.29 46.1091L324.84 43.3691H319.46V56.3789L319.17 56.499C317.64 57.129 315.85 57.439 313.68 57.439L313.66 57.449ZM309.01 18.249V19.8889L309.07 19.8391H318.18V18.249H309.01Z" fill="#AD8B0A"/>
<path d="M407.74 56.54H363.81V52.53C363.17 53.81 362.42 55.0299 361.6 56.1299L361.35 56.46L352.67 51.55L352.87 51.1499C356.34 44.3399 357.75 38.2401 357.75 30.0901V9.25H406.86V22.24L406.17 22.6201C405.32 23.0601 404.55 23.9701 403.58 24.1001H407.12V30.3301H401.69C403.75 32.0101 405.35 33.5799 406.58 35.1299L406.89 35.52L399.5 40.8H404.95V47.1699H391.89V48.8H407.73V56.55L407.74 56.54ZM364.79 48.79H380.97V47.1599H368.86V40.79H380.97V39.0801C377.16 39.2101 373.38 39.2701 370.31 39.3201L368.76 39.3501V32.1699H373.11L374.41 30.3301H367.58C367.48 37.3401 366.51 43.7 364.78 48.79H364.79ZM391.89 40.79H398.36L396.09 37.5801C395.05 37.8101 393.1 37.9999 391.89 38.1499V40.79ZM367.59 24.0901H399.32C398.18 23.9301 397.17 22.8001 396.34 22.5601H367.59V24.0901ZM384.4 32.1699H392.73L392.14 31.1699L391.63 30.3301H385.59C385.26 30.9401 384.86 31.5499 384.4 32.1699ZM367.59 17.03H395.94V15.3101H367.59V17.03Z" fill="black"/>
<path d="M43.4298 40.5684C40.7698 40.5684 38.8698 38.3382 37.5798 36.9282C36.0198 35.2182 33.8898 33.3782 32.8098 32.6882C32.7698 32.6682 32.7698 32.6284 32.8098 32.6184C33.8898 31.9284 36.0198 30.0882 37.5798 28.3782C38.8698 26.9682 40.7898 24.7383 43.4298 24.7383C45.8798 24.7383 47.7598 26.5182 47.7598 28.6582C47.7598 29.9382 47.3198 31.5984 45.2398 32.6184C45.1898 32.6384 45.1898 32.6782 45.2398 32.6882C47.2998 33.6882 47.7598 35.3682 47.7598 36.6482C47.7598 38.7882 45.8798 40.5684 43.4298 40.5684Z" fill="#AD8B0A"/>
</svg>
