<svg width="478" height="42" viewBox="0 0 478 42" fill="none" xmlns="http://www.w3.org/2000/svg">
<path d="M14.1898 28.7178L12.9398 26.3677V41.1978C11.9798 41.6778 10.8798 41.9175 9.52982 41.9175C8.17982 41.9175 7.02983 41.6278 6.16983 41.1978V33.1377C5.58983 34.2877 4.91982 35.2474 4.24982 36.0674L0.549805 31.5073C2.8998 28.9173 5.34981 23.5875 6.01981 19.9375H1.88983V14.1274H6.15982V9.85742C5.14982 9.95742 4.13981 9.99756 3.17981 9.99756L1.78983 4.81738C5.81983 3.75738 10.0898 2.4176 14.0298 0.787598L16.8098 7.21777C15.6098 7.74777 14.2698 8.22742 12.9198 8.60742V14.1274H16.7098V19.9375H12.9198V22.0474L14.7398 20.8477C16.0798 22.0477 17.9598 24.2576 18.7198 25.7476L14.1598 28.7275L14.1898 28.7178ZM43.8098 36.2974L41.3598 41.9175C37.1798 41.2475 32.9598 39.3776 30.7998 36.2476L32.1398 34.2275H28.0598L29.7398 36.2476C27.0998 39.4176 22.9698 41.1475 18.4598 41.9175L16.1098 36.3477C17.8898 36.0077 19.8098 35.3877 21.6798 34.6177C20.7198 34.5177 19.9998 34.3276 19.3798 33.9976V18.9678H40.9298V33.9976C40.1598 34.3776 39.3498 34.5777 38.3898 34.6177C40.1198 35.3377 42.3298 35.9574 43.8098 36.2974ZM42.9898 18.0073H17.2598V13.4478H26.7598V12.4375H19.2698V8.59766H26.7598V7.6377H17.9798V2.8374H26.7598V0.777344H33.4798V2.8374H42.2598V7.6377H33.4798V8.59766H40.9698V12.4375H33.4798V13.4478H42.9798V18.0073H42.9898ZM26.0898 22.8076V23.7676H34.1498V22.8076H26.0898ZM34.1498 26.1675H26.0898V27.0273H34.1498V26.1675ZM26.0898 29.4277V30.3877H34.1498V29.4277H26.0898Z" fill="#E45E1E"/>
<path d="M60.9397 25.2192L59.9797 22.439V41.2588C58.9697 41.6388 57.9197 41.9292 56.6197 41.9292C55.3197 41.9292 54.1697 41.6388 53.2597 41.2588V30.9893C52.9197 31.8993 52.5397 32.7189 52.1097 33.3389L48.6997 28.6289C51.8197 23.7789 53.1197 18.6488 53.2597 15.5688H50.3797V9.3291H53.2597V0.789062H59.9797V9.3291H62.9997V15.5688H59.9797V17.5889L61.6097 16.8188C61.9897 17.3488 62.3797 17.8789 62.7097 18.3989V16.8188H73.1697V27.9092H73.9897C74.1297 23.7792 74.2297 19.7989 74.2797 15.0889H71.9297L71.6397 15.8589C69.3797 16.1989 67.0797 16.2388 64.9697 15.5688C65.8297 12.6388 66.5497 10.1492 66.9897 7.69922H62.4297V1.93896H91.0897V7.69922H73.6197C73.5197 8.41922 73.4297 9.08908 73.2797 9.80908H80.4297C80.4797 11.7791 80.4797 13.989 80.4797 16.189L84.0797 15.5688C84.2697 16.3388 84.5097 17.1092 84.7997 17.9692C85.0397 16.8692 85.1797 15.7589 85.3297 14.6089H81.3497V9.80908H90.7597C90.7097 13.7491 90.4697 18.9789 88.8397 23.9189C89.8497 25.5989 90.9497 27.2791 92.0597 28.5791L87.7897 34.249C86.7297 33.339 85.7697 32.2792 85.0097 31.1792C84.1497 32.1892 83.1897 33.1488 82.0797 34.0088L79.5397 31.229C79.3997 32.239 79.1997 33.099 79.0097 33.769C77.1397 34.629 73.5897 34.6292 70.6597 34.1992V29.979C69.8397 29.979 69.0797 29.6888 68.4497 29.2588H67.4397V31.519C66.7697 31.949 65.8997 32.2393 65.0397 32.2393C64.1797 32.2393 63.3597 31.999 62.7397 31.519V24.4189L60.9597 25.2393L60.9397 25.2192ZM61.1797 35.3989H91.4697V41.1592H61.1797V35.3989ZM67.4197 20.6592V25.4092H68.4297V20.6592H67.4197ZM80.4297 19.3188C80.3297 22.6288 80.1897 25.8989 79.8997 28.6289C80.7197 27.6189 81.4397 26.5688 82.0597 25.5088C81.2397 23.4488 80.7597 21.2888 80.4297 19.3188Z" fill="#E45E1E"/>
<path d="M139.42 20.8506C139.42 28.3906 139.23 36.2103 138.89 40.0503C137.21 40.7703 134.81 41.1504 131.98 41.1504C129.77 41.1504 127.28 40.9107 124.64 40.4307V33.8506H131.98C132.08 27.1806 132.12 20.5106 132.03 13.8306H125.02C123.48 16.1806 121.8 18.2503 120.12 19.7803L116.28 17.4805V40.4307C115.22 40.9107 114.22 41.1504 112.92 41.1504C111.62 41.1504 110.47 40.9107 109.56 40.4307V39.3306H105.58V40.4307C104.52 40.9107 103.52 41.1504 102.22 41.1504C100.92 41.1504 99.7699 40.9107 98.8599 40.4307V7.98047H103.61L104.62 1.36035L112.44 1.74072C112.15 3.71072 111.53 6.01047 110.52 7.98047H116.28V14.7505C118.92 9.85049 121.42 4.43062 122.9 0.640625L130.29 3.33057C129.71 4.87057 129.04 6.50057 128.27 8.08057H139.21C139.35 11.6306 139.4 16.1906 139.4 20.8506H139.42ZM105.58 13.7505V20.7603H109.56V13.7505H105.58ZM109.56 33.5806V26.5205H105.58V33.5806H109.56ZM124.92 30.6006L120.26 21.2905L124.92 18.4106C126.55 20.0406 129.62 24.3103 130.92 27.3403L124.92 30.6006Z" fill="#E45E1E"/>
<path d="M154.78 4.42969H162.94V8.64941H168.22V15.7095H162.56C161.36 21.1295 158.1 24.7796 153.44 26.8496L148.3 20.7495C150.36 19.5995 152.43 18.0095 153.68 15.7095H149.17V8.64941H154.79V4.42969H154.78ZM168.75 17.8696H176.91V23.8193C179.89 24.8293 182.38 26.4593 184.25 28.5693L179.79 34.5195C178.93 33.6595 177.97 32.8897 176.91 32.2197C176.67 37.1197 172.11 40.1396 167.55 40.1396C161.69 40.1396 157.61 36.5395 157.61 31.6895C157.61 25.9795 162.94 22.5695 168.75 22.5195V17.8594V17.8696ZM168.99 29.2495C168.61 29.1995 168.17 29.1997 167.79 29.1997C166.21 29.1997 164.91 30.3993 164.91 31.5493C164.91 32.5093 165.73 33.4697 166.88 33.4697C168.03 33.4697 168.99 32.7493 168.99 31.5493V29.2495ZM182.29 19.1694L172.45 12.6396L176.34 6.97949C179.27 8.17949 182.87 10.0497 186.37 12.9297L182.29 19.1694Z" fill="#E45E1E"/>
<path d="M194.09 18.0688C197.31 16.0488 200.76 13.7489 203.69 11.3989H194.81V5.15918H210.6V0.789062H218.76V5.15918H234.55V11.3989H225.72C228.17 13.3689 231.77 15.819 235.27 18.019L230.66 24.3989C226.82 22.8589 220.87 18.1088 217.65 14.5088L220.72 11.3892H208.53L211.7 14.5088C208.48 18.5388 202.1 22.669 198.26 24.209L194.08 18.0688H194.09ZM221.5 29.1089C226.01 31.1689 230.67 32.2289 234.56 33.0889L230.96 41.4893C225.49 40.6693 219.82 38.5092 214.73 34.9092C209.5 38.3192 203.5 40.2889 197.5 41.1489L194.86 33.999C198.7 33.139 203.55 31.839 208.25 29.249C206.57 27.379 204.99 25.269 203.59 22.959L209.69 18.8789C211.13 21.1789 212.86 23.099 214.68 24.689C216.46 23.109 218.09 21.189 219.58 18.979L225.72 23.1992C224.47 25.3592 223.08 27.3291 221.5 29.0991V29.1089Z" fill="#E45E1E"/>
<path d="M254.71 25.1191C254.09 31.0691 251.97 37.9391 247.75 41.8291L242.23 37.459C245.11 33.719 246.79 28.8189 247.8 23.9189L254.71 25.1191ZM249.38 22.2891L242.52 16.479L245.98 11.729C248.14 12.499 251.88 14.7988 253.52 16.5288L249.39 22.2891H249.38ZM250.15 11.0991L243.57 5.19922L247.27 0.539062C249.48 1.44906 252.89 3.519 254.57 5.479L250.15 11.0991ZM252.21 38.3691C255.95 33.4691 256.58 28.099 256.58 22.189H263.49C263.49 31.499 262.43 37.4589 257.87 41.9189L252.21 38.3691ZM283.13 29.1992C283.66 31.9392 284.14 37.6489 284.14 40.6689C281.79 41.9189 274.78 41.8189 271.76 40.6689V22.189H277.33L275.84 19.3091C269.31 21.5191 256.97 21.2792 254.96 21.1792V14.459H258.8L260.62 10.0889H254.67V4.3291H264.99V0.778809H272.67V4.3291H283.18V10.0889H277.52C280.11 12.7289 282.37 16.1889 283.86 18.6289L278 22.1792H278.62V34.8491H279.63V29.1792H283.13V29.1992ZM264.41 22.6689H270.65V40.189C269.74 40.569 268.73 40.769 267.53 40.769C266.33 40.769 265.23 40.579 264.41 40.189V22.6689ZM273.15 14.459C272.72 13.689 272.24 12.8789 271.76 12.1089L275.12 10.0889H268.54C268.01 11.5289 267.24 13.019 266.28 14.459H273.14H273.15Z" fill="#E45E1E"/>
<path d="M381.34 33.9575L375.77 41.9277C368.62 38.5177 363.43 32.5175 360.12 25.9375C356.81 32.6075 351.58 38.6578 344.42 41.9678L338.95 33.9478C345.05 31.0178 351.33 25.7376 354.22 18.5376H340.06V11.8174H355.76C355.81 11.2874 355.81 10.7175 355.81 10.1875V0.777344H364.45V10.1875C364.45 10.7175 364.45 11.2874 364.5 11.8174H380.2V18.5376H366.09C369.07 25.7376 375.45 30.9178 381.36 33.9478L381.34 33.9575Z" fill="#E45E1E"/>
<path d="M421.66 21.2798C422.24 29.1498 426.41 32.7099 429.72 35.4399L425.26 41.9702C422.67 39.7602 420.55 37.22 418.97 34C417.58 37.07 415.56 39.5698 412.97 41.7798L410.23 38.52V40.7798H396.93V41.21C396.11 41.64 395.11 41.9302 393.95 41.9302C392.7 41.9302 391.69 41.64 390.93 41.21V26.9102C390.64 27.1502 390.35 27.3398 390.07 27.5298L387 24.9902C388.73 22.1602 390.17 19.7598 391.37 17.5498H388.06V12.27H393.97C394.26 11.6 394.5 10.9698 394.74 10.2998H394.02C393.4 10.9698 392.77 11.5498 392.05 12.0298L388.55 9.72998C390.04 7.08998 391.62 3.73016 392.92 0.660156L398.39 2.95996C398.2 3.43996 397.81 4.30002 397.48 5.02002H409.24V10.2998H401.27C401.13 10.9698 400.93 11.6 400.69 12.27H410.39V14.2402C411.49 9.92023 412.6 5.0198 413.37 0.799805L420.04 1.66016C419.75 3.63016 419.27 5.7902 418.7 7.9502H429.16C429.16 14.1902 428.2 18.8002 426.14 22.4502L421.68 21.2998L421.66 21.2798ZM399.82 25.8901V24.5898H396.94V25.8901H399.82ZM396.94 30.98H399.82V29.73H396.94V30.98ZM396.94 36.0698H399.82V34.8198H396.94V36.0698ZM399.92 19.7998L401.26 17.54H398.43C398 18.31 397.57 19.0798 397.13 19.7998H399.91H399.92ZM415.95 16.2998H421.57V19.23C421.57 19.81 421.57 20.3299 421.62 20.8599C422.2 18.3599 422.48 16.3499 422.77 14.1899H416.72C415.71 16.9299 414.56 19.3299 413.36 20.8599L409.04 19.4199L409.57 17.5498H405.3L406.69 18.4102C406.4 18.8902 406.11 19.3698 405.78 19.7998H410.05V24.6001H405.49V25.8999H409.14V29.7402H405.49V30.9902H409.14V34.8301H405.49V36.0801H408.99C412.73 32.2901 415.61 28.59 415.95 19.23V16.2998Z" fill="#E45E1E"/>
<path d="M477.63 33.0391L476.62 40.7192C474.08 40.9592 469.42 41.3389 464.14 41.3389C459.68 41.3389 453.1 41.1992 451.32 40.7192C449.3 40.1892 447.38 38.9888 445.94 37.2588C444.45 39.3188 442.39 40.9592 440.08 41.9692L435.57 36.7891C439.41 34.2491 441.62 32.3292 441.62 25.6992V23.9189H436.53V17.6792H448.68V30.1592C448.68 32.2692 450.7 33.6191 453.1 34.0991C456.99 34.5791 469.23 34.6291 477.63 33.0391ZM442.15 13.689L436.82 4.13916L441.96 0.778809C444.31 3.17881 447.29 7.35879 448.44 9.75879L442.15 13.6992V13.689ZM461.4 23.8691V28.8091C458.9 30.1991 453.77 30.4893 449.64 30.4893V23.8691H450.65V4.51904C453.72 3.65904 457.08 2.11891 459.58 0.628906L462.17 4.41895V2.49902H477.34V29.2891C475.9 30.1991 472.92 30.2989 469.76 29.6289V23.8691H470.86V7.78906H468.89V32.5088C467.79 33.0888 466.73 33.2788 465.53 33.2788C464.19 33.2788 462.99 33.0888 462.17 32.5088V7.54883C460.73 8.16883 459.1 8.69887 457.37 9.08887V23.8789H461.4V23.8691Z" fill="#E45E1E"/>
</svg>
