<svg width="471" height="43" viewBox="0 0 471 43" fill="none" xmlns="http://www.w3.org/2000/svg">
<path d="M6.67975 32.9697V41.0796C5.66975 41.6096 4.61976 41.8496 3.31976 41.8496C2.01976 41.8496 0.919766 41.6096 0.00976562 41.0796V1.85938H16.2798C16.2798 7.61938 15.7498 12.5195 12.3398 17.2695C14.8398 21.0595 16.6097 27.4497 16.6097 32.1997C14.3497 33.1097 10.0298 33.2597 6.66977 32.9697H6.67975ZM6.67975 7.61963V15.3994C7.97975 12.9994 8.97975 10.3096 9.45975 7.61963H6.67975ZM6.67975 27.0093H9.26974C8.73975 24.1293 7.92975 21.0597 6.67975 18.4697V27.0093ZM42.0098 36.0796L37.0698 41.8394C34.4798 40.7794 32.0298 38.3796 30.0098 35.3096V39.2495C25.4998 41.5095 16.0898 41.1193 14.1698 41.0293V34.0195H17.3898V1.85938H38.7997V22.2593C38.4197 22.4493 37.9797 22.5997 37.5497 22.7397L41.4398 26.7695C40.3398 28.1095 38.3197 29.8397 36.2997 30.9897C37.9797 33.0097 39.8998 34.7396 42.0098 36.0796ZM24.2498 7.12939V9.5293H31.9798V7.12939H24.2498ZM24.2498 16.4897H31.9798V13.8496H24.2498V16.4897ZM29.1898 34.0093C27.0798 30.4593 25.5398 26.2795 24.8698 22.2495H24.2498V34.0093H29.1898ZM35.3798 22.9697C34.0398 22.9697 32.8798 22.7295 31.9698 22.2495H31.0098C31.5398 23.5495 32.1597 24.7896 32.8297 26.0396L35.9998 22.9697H35.3798Z" fill="black"/>
<path d="M88.9998 32.9209L87.8997 40.6509C85.0197 40.9409 80.8398 41.0809 76.3798 41.1309C67.0698 41.0309 62.1698 38.4408 59.4798 34.3608C58.2298 37.3808 56.3098 40.1708 53.3398 42.2808L48.0098 36.7109C52.9498 31.5709 54.0597 27.691 54.2997 22.021H61.7397C61.6897 23.321 61.5997 24.8008 61.3997 26.3408C62.0197 28.3608 63.1798 30.0409 64.9498 31.1909V18.9512H53.0898V15.731C51.7498 15.731 50.5897 15.491 49.6797 15.061V4.26074H64.9897V0.710938H73.1497V4.26074H88.3698V15.061C87.3598 15.491 86.2098 15.731 84.7198 15.731V18.9512H73.0998V23.4111H85.0497V29.1709H73.0998V33.1509C77.6098 33.3909 82.9397 33.4911 88.9897 32.9111L88.9998 32.9209ZM56.8898 10.501V13.1909H81.1797V10.501H56.8898Z" fill="black"/>
<path d="M130 9.69189C126.4 13.8219 122.08 17.2321 117.61 19.9121H121.93V39.1621C120.49 39.6921 118.95 39.9819 117.13 39.9819C115.21 39.9819 113.63 39.6921 112.33 39.1621V22.6919C108.49 24.4219 104.7 25.6219 101.19 26.1919L97.3496 19.042C107.48 15.062 116.46 9.58172 122.98 3.01172L129.99 9.68213L130 9.69189Z" fill="black"/>
<path d="M153.71 21.7388L144.88 30.3784L138.11 24.0386C142.81 19.0486 148.33 13.7184 152.66 9.58838L177.62 26.0483L171.52 34.5483L153.71 21.7285V21.7388ZM164.27 10.7485C164.27 9.44854 165.37 8.39844 166.67 8.39844C167.97 8.39844 169.02 9.45854 169.02 10.7485C169.02 12.0385 167.96 13.1484 166.67 13.1484C165.38 13.1484 164.27 12.0885 164.27 10.7485ZM169.93 10.7485C169.93 9.44854 170.99 8.39844 172.33 8.39844C173.58 8.39844 174.68 9.45854 174.68 10.7485C174.68 12.0385 173.58 13.1484 172.33 13.1484C170.99 13.1484 169.93 12.0885 169.93 10.7485Z" fill="black"/>
<path d="M186.25 7.33984H200.94V15.5H186.25V7.33984ZM189.08 30.1899C200.17 27.9799 205.79 22.3201 208.23 13.5801H217.69C215.91 27.3101 205.78 36.48 193.4 38.54L189.08 30.1899Z" fill="black"/>
<path d="M251.34 30.812C249.23 28.992 244.43 25.102 241.21 23.082V39.1118C239.77 39.6418 238.23 39.9321 236.41 39.9321C234.49 39.9321 232.91 39.6418 231.61 39.1118V4.26172H241.21V19.812L244.19 15.8721C249.86 17.1221 253.69 20.1418 257.06 23.0718L251.35 30.8018L251.34 30.812Z" fill="black"/>
<path d="M305.92 31.2886H293.92C297.62 32.8686 302.13 33.8284 305.73 34.3584L303.04 41.8984C297.71 41.6084 290.65 39.5486 286.33 34.5586C282.54 38.7786 276.83 41.3284 269.91 41.8584L267.08 34.8984C271.21 34.1784 275.43 33.3183 278.7 31.2983H266.75V26.4487H282.5V25.1484H269.15V20.3486H282.5V19.0986H271.51V15.6885C271.13 15.7385 270.93 15.7388 270.6 15.7388C269.16 15.7388 267.96 15.4984 267 15.0684V4.26855H282.31V0.71875H290.47V4.26855H305.69V15.0684C304.68 15.4984 303.53 15.7388 302.09 15.7388C301.8 15.7388 301.61 15.7385 301.23 15.6885V19.0986H290.19V20.3486H303.53V25.1484H290.19V26.4487H305.94V31.2983L305.92 31.2886ZM282.49 14.2485V12.1387H290.17V14.2485H298.47V10.5083H274.18V14.2485H282.48H282.49Z" fill="black"/>
<path d="M355.359 40.7007C350.849 41.9507 336.64 41.6604 332.65 40.3604V27.2104L331.21 27.5903L330.25 23.9907C330.35 29.8507 330.2 36.6604 329.87 40.3604C327.57 41.1804 324.449 41.3207 321.039 40.7007V34.9404H323.87C323.97 31.4404 324.01 26.6804 324.01 23.1304H322.71C322.13 30.1904 320.79 37.5306 318.2 41.8506L312.729 38.8306C315.469 33.6906 316.81 23.3203 316.81 15.5503V14.1104H314.549V7.87061H318.87V0.720703H326.21V7.87061H330.77V11.0903C332.88 7.15033 334.799 3.07047 335.859 0.480469L342.39 3.31055C342.01 4.32055 341.569 5.42047 341.049 6.48047H355.159V12.2407H337.69C336.92 13.3907 336.06 14.5005 335.24 15.5005H339.37V19.2905L340.43 18.9507V13.4805H346.24V17.3706L353.87 15.2104C354.49 18.5704 354.49 25.0503 354.01 29.3203C352.43 30.0903 349.02 30.0904 347.19 29.4204V25.2905H348.53V22.8403L346.229 23.4604V32.1504C345.369 32.6804 344.449 32.8706 343.349 32.8706C342.149 32.8706 341.189 32.6804 340.419 32.1504V25.0903L339.359 25.3804V34.3105H348.96V30.9507H354.43C355.01 33.5407 355.34 37.9107 355.34 40.7007H355.359ZM329.2 17.3706L327.71 16.2705C328.14 15.6005 328.619 14.8804 329.049 14.1104H323V17.3706H329.19H329.2ZM332.659 21.1606V18.3306C332.319 18.6706 331.99 18.9504 331.65 19.1904L330.109 18.0405C330.159 19.1905 330.21 20.4406 330.21 21.8306L332.659 21.1606Z" fill="black"/>
<path d="M390.54 17.4717H403.36C402.54 22.7017 398.99 29.6613 394.77 32.1113L389.06 27.9316C390.12 26.9216 391.46 25.2914 392.71 23.7114H387.86V40.7017C386.61 41.4717 384.26 41.8516 381.43 41.8516C379.08 41.8516 376.39 41.6115 373.85 41.0815V34.8413H379.71V23.7017H363.39V17.4614H379.61L374.43 13.7612L377.93 8.86133C379.51 9.44133 381.39 10.3015 383.26 11.3115C384.7 10.2515 386.04 9.25131 387.24 8.09131H368.37V1.85156H398.9C398.04 7.03156 394 12.0716 389.3 15.1016C389.97 15.5816 390.6 16.1116 391.17 16.6416L390.55 17.4614L390.54 17.4717Z" fill="black"/>
<path d="M451.74 32.9209L450.64 40.6509C447.76 40.9409 443.58 41.0809 439.12 41.1309C429.81 41.0309 424.91 38.4408 422.22 34.3608C420.97 37.3808 419.05 40.1708 416.08 42.2808L410.75 36.7109C415.7 31.5709 416.8 27.691 417.04 22.021H424.48C424.43 23.321 424.34 24.8008 424.14 26.3408C424.76 28.3608 425.92 30.0409 427.69 31.1909V18.9512H415.83V15.731C414.49 15.731 413.33 15.491 412.42 15.061V4.26074H427.73V0.710938H435.89V4.26074H451.11V15.061C450.1 15.491 448.95 15.731 447.46 15.731V18.9512H435.84V23.4111H447.79V29.1709H435.84V33.1509C440.35 33.3909 445.68 33.4911 451.73 32.9111L451.74 32.9209ZM419.62 10.501V13.1909H443.91V10.501H419.62Z" fill="black"/>
<path d="M461.05 35.2314C461.05 32.5914 463.21 30.4316 465.85 30.4316C468.49 30.4316 470.65 32.5914 470.65 35.2314C470.65 37.8714 468.49 40.0312 465.85 40.0312C463.21 40.0312 461.05 37.8714 461.05 35.2314ZM461.77 28.0815V3.69141H469.93V28.0815C468.68 28.6115 467.43 28.8516 465.85 28.8516C464.27 28.8516 462.87 28.6115 461.77 28.0815Z" fill="black"/>
</svg>
