<svg width="358" height="43" viewBox="0 0 358 43" fill="none" xmlns="http://www.w3.org/2000/svg">
<path d="M20.9498 2.00781H39.5798V41.1279C38.5698 41.6579 37.0398 42.0381 35.1198 42.0381C33.6298 42.0381 31.8598 41.7983 29.9398 41.2183V40.6382C26.9598 41.0182 22.5998 40.8781 20.5298 40.3481V30.7979H19.4698C19.3298 34.7379 17.3598 39.488 13.2798 41.748L8.95981 38.0981C11.4098 35.8381 12.8498 33.7282 13.2798 31.4282C12.1298 31.3782 11.1698 31.1881 10.3498 30.8081V20.918H13.4698L12.2698 16.7881L15.1998 15.8779C13.9998 15.8279 12.9398 15.638 12.1798 15.208H7.99982V41.2778C6.93982 41.7578 5.73982 41.998 4.34982 41.998C2.95982 41.998 1.7598 41.7578 0.799805 41.2778V2.00781H18.7998V15.1582C18.3698 15.3982 17.9398 15.5382 17.4598 15.6382C18.0798 16.5982 19.0398 18.6582 19.4798 19.9082L16.4598 20.918H20.1098L22.3698 15.688C21.8398 15.548 21.4098 15.3982 20.9798 15.1582V2.00781H20.9498ZM7.98981 7.23828H12.0698V6.08789H7.98981V7.23828ZM12.0698 11.1279V9.87793H7.98981V11.1279H12.0698ZM16.5798 26.9683H23.5398V24.7578H16.5798V26.9683ZM26.4698 31.4282V35.8481H27.1898V33.3081H30.9798L31.3198 35.3682H32.3798V15.208H27.5798C26.6198 15.688 25.6098 15.8779 24.5098 15.8779L28.2998 17.5581C27.8698 18.6181 27.1998 19.818 26.4798 20.918H29.7898V30.8081C28.8298 31.2881 27.9198 31.4282 26.7198 31.4282H26.4798H26.4698ZM27.6698 6.07812V7.22803H32.3698V6.07812H27.6698ZM27.6698 9.86816V11.1182H32.3698V9.86816H27.6698Z" fill="#009844"/>
<path d="M87.8597 32.9287C88.5297 35.1887 88.7698 38.6385 88.8698 40.7085C85.4098 42.0085 74.4697 41.9086 69.6697 40.8086V33.3184H67.7997C65.5897 38.5984 60.1697 41.9083 52.9197 42.0083L49.9897 36.8286C54.4997 36.2086 57.8097 35.4888 60.1697 33.4688C59.2097 33.6587 58.1498 33.7583 56.9498 33.7583C55.4598 33.7583 54.1197 33.5686 53.1097 33.3286V18.3984H84.1697V32.9385H87.8698L87.8597 32.9287ZM56.7997 17.4287C55.8897 17.7687 54.8798 17.9585 53.6298 17.9585C52.1898 17.9585 50.9898 17.7188 50.0298 17.2388V2.01855H68.8497V5.8584H65.0098V6.81836H67.3597V12.5283C66.6897 12.8683 65.9198 12.9583 65.0098 13.0083V13.4888H68.9498V17.4287H56.7997ZM59.2997 5.8584H57.2397V6.81836H59.2997V5.8584ZM61.5997 9.11865H57.2297V10.1787H61.5997V9.11865ZM57.2297 13.4888H59.2897V12.5283H57.2297V13.4888ZM76.4797 21.9888H60.7798V22.8486H76.4797V21.9888ZM76.4797 26.1187V25.2583H60.7798V26.1187H76.4797ZM76.4797 29.4785V28.5186H60.7798V29.4785H76.4797ZM71.8198 13.7285L67.8798 11.4287C69.6598 8.01871 71.3398 4.22875 72.8698 0.71875L79.3497 3.11865C79.1097 3.73865 78.8197 4.41838 78.4897 5.08838H88.7098V10.3687H75.4598C75.0298 10.9487 74.5998 11.4685 74.1198 11.9985H86.5098V16.7983H71.8198V13.7285ZM82.3798 35.8584V33.6484C81.7598 33.6984 81.0798 33.7485 80.3198 33.7485C79.0198 33.7485 77.8197 33.6087 76.8597 33.4087V35.8584H82.3798Z" fill="#009844"/>
<path d="M133.32 24.6187C133.32 30.0387 130.63 35.1785 128.18 37.4385L121.17 33.4585C122.56 31.7785 124.39 27.7487 124.39 24.3887C124.39 20.7387 122.66 17.7685 119.49 16.4185C119.25 30.1485 113.68 35.7188 107.54 35.7188C101.4 35.7188 97.8896 30.7284 97.8896 24.8184C97.8896 15.7884 103.89 7.96875 116.61 7.96875C126.84 7.96875 133.32 15.0284 133.32 24.6284V24.6187ZM111.81 16.3584C108.11 17.8984 105.95 21.7386 105.95 24.8086C105.95 26.2986 106.33 27.7388 107.73 27.7388C109.6 27.7388 111.19 23.5184 111.81 16.3584Z" fill="#009844"/>
<path d="M180.5 33.0186C179.3 32.2986 178 31.5787 176.61 30.9087C175.94 33.7887 175.07 36.4287 173.87 38.6387H165.37C166.62 35.2287 167.58 31.5788 168.3 27.7388C167 27.3988 165.76 27.0686 164.51 26.8286C163.69 32.3486 160.29 37.7783 153.47 37.7783C148.19 37.7783 143.92 34.5587 143.92 29.1387C143.92 22.2687 149.78 18.9088 157.22 18.2388C157.32 16.9888 157.36 15.6483 157.41 14.2583H148.77V7.05859H165.81C165.71 10.5186 165.47 14.5985 165.23 18.4385C166.67 18.6285 168.11 18.8685 169.5 19.2085C169.69 17.4285 169.79 15.7087 169.88 13.9287H178.14C178.19 16.4687 178.09 19.2584 177.9 22.0884C180.2 23.1884 182.27 24.4885 183.95 25.9785L180.49 33.0386L180.5 33.0186ZM156.5 26.0586C153.33 26.1986 151.51 27.3983 151.51 29.2783C151.51 30.2383 151.99 30.9585 152.76 30.9585C154.87 30.9585 155.93 29.2786 156.5 26.0586Z" fill="#009844"/>
<path d="M218.8 34.3198L211.26 39.5C210.83 38.97 204.83 32.9701 204.83 24.8101C204.83 21.1601 205.31 18.5698 206.85 15.5898H192.59V7.91016H225.23V15.5898H217.26C216.59 16.4498 213.8 19.0501 213.8 24.8101C213.8 29.3201 218.26 33.7901 218.79 34.3101L218.8 34.3198ZM223.12 21.3101C223.12 22.6501 222.06 23.71 220.77 23.71C219.48 23.71 218.37 22.6501 218.37 21.3101C218.37 19.9701 219.47 18.96 220.77 18.96C222.07 18.96 223.12 20.0201 223.12 21.3101ZM228.78 21.3101C228.78 22.6501 227.68 23.71 226.43 23.71C225.09 23.71 224.03 22.6501 224.03 21.3101C224.03 19.9701 225.09 18.96 226.43 18.96C227.68 18.96 228.78 20.0201 228.78 21.3101Z" fill="#009844"/>
<path d="M269.64 31.0098C266.81 35.7598 261.62 39.4102 254.71 39.4102C246.6 39.4102 242.52 33.7498 242.52 27.5498V26.0601H236.52V18.8599H242.52V16.3599H236.52V9.16016H242.52V4.41016H251.21V9.16016H258.03V16.3599H251.21V18.8599H258.03V26.0601H251.21V26.2002C251.21 28.6502 251.74 30.9102 255.15 30.9102C258.56 30.9102 261.63 28.27 264.08 25.29L269.65 31L269.64 31.0098Z" fill="#009844"/>
<path d="M283.07 21.4966C283.07 10.4066 290.65 2.72656 301.6 2.72656C312.55 2.72656 320.03 10.4066 320.03 21.4966C320.03 32.5866 312.49 40.2666 301.6 40.2666C290.71 40.2666 283.07 32.5866 283.07 21.4966ZM310.91 21.4966C310.91 15.1166 307.16 10.9365 301.6 10.9365C296.04 10.9365 292.19 15.1166 292.19 21.4966C292.19 27.8766 295.98 31.8667 301.6 31.8667C307.22 31.8667 310.91 27.8366 310.91 21.4966Z" fill="#009844"/>
<path d="M357.96 39.168C356.47 40.228 350.33 40.4182 348.02 39.4082L340.34 26.1079L335.44 32.5381V39.3979C334.19 39.978 332.75 40.2183 331.12 40.2183C329.49 40.2183 327.9 39.9279 326.8 39.3979V3.82812H335.44V19.4282L347.34 3.82812H357.33L345.57 19.2881L357.96 39.1582V39.168Z" fill="#009844"/>
</svg>
