<svg width="121" height="400" viewBox="0 0 121 400" fill="none" xmlns="http://www.w3.org/2000/svg">
<path d="M108.46 36.4502C107.16 35.5002 105.81 34.5499 104.41 33.6499C103.66 38.3999 99.0101 41.1001 94.7101 41.1001C87.9601 41.1001 84.5601 36.5999 84.5601 31.8999C84.5601 26.2499 89.8601 23 95.7601 22.75V20.7002H88.2601V13.9502H95.7601V11.6499H86.36V4.6499H95.7601V0.25H104.51V4.6499H112.71V11.6499H104.51V13.9502H111.31V20.7002H104.51V24.2002C107.51 25.2502 110.61 26.9499 113.61 29.3999L108.46 36.4502ZM96.0601 29.8999C95.5101 29.7999 95.0101 29.75 94.5101 29.75C93.5601 29.75 92.11 30.3001 92.11 31.8501C92.11 33.0001 92.8101 33.8501 94.0101 33.8501C95.0101 33.8501 96.0601 33.1502 96.0601 31.7002V29.8999Z" fill="black"/>
<path d="M97.6597 62.1499H81.4097V54.6499H97.6597V49.6001H105.66V54.6499H117.51V62.1499H105.66V66.8999C107.61 68.9999 108.76 71.9 108.76 75C108.76 81.95 104.26 87.1501 98.1597 89.8501L92.6097 83.8999C95.2097 82.8999 97.8097 81.2998 99.4097 79.0498C98.4097 79.4498 97.4097 79.6499 96.4097 79.6499C90.3597 79.6499 86.8097 76.3501 86.8097 72.1001C86.8097 66.8501 91.4097 63.6498 97.6597 63.5498V62.1499ZM97.9097 71V69.5498C97.5097 69.3998 97.0597 69.3501 96.6097 69.3501C95.4597 69.3501 93.8097 69.9999 93.8097 71.3999C93.8097 72.4999 94.8597 73.1001 95.9097 73.1001C96.9597 73.1001 97.9097 72.3 97.9097 71ZM109.56 50.7002C109.56 49.3502 110.71 48.25 112.06 48.25C113.41 48.25 114.51 49.3502 114.51 50.7002C114.51 52.0502 113.41 53.2002 112.06 53.2002C110.71 53.2002 109.56 52.1002 109.56 50.7002ZM120.41 50.7002C120.41 52.1002 119.26 53.2002 117.96 53.2002C116.56 53.2002 115.46 52.1002 115.46 50.7002C115.46 49.3002 116.56 48.25 117.96 48.25C119.26 48.25 120.41 49.3502 120.41 50.7002Z" fill="black"/>
<path d="M88.0101 101.499V117.199H92.16V125.449C88.81 126.349 83.7601 126.399 80.2601 125.449C79.7101 122.049 79.3101 116.349 79.3101 110.699C79.3101 107.499 79.4601 104.249 79.7601 101.499H88.0101ZM116.51 125.449C115.66 124.749 114.66 123.999 113.56 123.399C113.41 128.849 108.76 131.849 104.41 131.849C98.16 131.849 94.86 127.499 94.86 122.749C94.86 117.149 99.4601 114.099 105.06 113.799V110.249H98.0601V102.899H105.06V95.6992H113.56V102.899H118.61V110.249H113.56V115.099C116.11 115.949 118.51 117.249 120.56 118.899L116.51 125.449ZM105.56 120.749H104.86C103.31 120.749 102.11 121.499 102.11 123.049C102.11 124.299 102.71 124.999 103.66 124.999C104.66 124.999 105.56 124.149 105.56 122.699V120.749Z" fill="black"/>
<path d="M102.16 141.852H111.76V149.801H119.01V157.801H111.76V158.051C111.76 167.801 106.56 175.602 98.5598 178.602L92.1597 172.001C98.7097 169.151 102.16 165.251 102.16 158.051V157.801H96.5098V163.852H87.5598C87.3598 162.002 87.2097 159.951 87.1097 157.801H80.2598V149.801H87.0598C87.0598 147.001 87.3098 144.252 87.5598 141.852H96.5098V149.801H102.16V141.852Z" fill="black"/>
<path d="M115.46 190.051C111.71 194.351 107.21 197.902 102.56 200.702H107.06V220.751C105.56 221.301 103.96 221.602 102.06 221.602C100.06 221.602 98.4099 221.301 97.0599 220.751V203.602C93.0599 205.402 89.11 206.651 85.46 207.251L81.46 199.801C92.01 195.651 101.36 189.952 108.16 183.102L115.46 190.051Z" fill="black"/>
<path d="M109.91 256.251C107.71 254.351 102.71 250.302 99.3599 248.202V264.901C97.8599 265.451 96.2599 265.751 94.3599 265.751C92.3599 265.751 90.7099 265.451 89.3599 264.901V228.602H99.3599V244.801L102.46 240.702C108.36 242.002 112.36 245.152 115.86 248.202L109.91 256.251Z" fill="black"/>
<path d="M115.06 294.251C113.56 294.251 111.96 294.451 110.36 294.801C110.81 296.601 110.91 298.551 110.66 300.501H103.66C103.76 299.401 103.66 298.352 103.46 297.352C101.21 298.602 99.71 300.001 99.71 301.151C99.71 303.401 103.31 303.801 106.36 303.801C108.66 303.851 110.81 303.401 111.86 303.151V310.751C110.16 311.351 108.31 311.602 105.71 311.602C98.46 311.602 91.71 309.301 91.71 301.801C91.71 298.201 94.2099 294.852 97.8099 292.202C94.1599 292.502 90.7599 295.802 88.5599 297.102L83.71 290.901C86.11 289.451 88.46 287.152 89.96 284.352H84.0099V277.102H91.6599V273.852H99.7599V277.102H108.36V284.352H98.5099C98.2099 285.152 97.8599 285.902 97.4099 286.602C98.5099 286.402 99.61 286.301 100.71 286.501C102.61 286.801 104.26 287.401 105.61 288.251C108.76 287.151 112.06 286.551 115.06 286.551V294.251Z" fill="black"/>
<path d="M42.9099 41.001C39.3099 42.151 34.8599 41.951 31.3599 41.001V26.4009H30.8099C30.7599 33.0509 28.4099 39.2512 22.7599 42.2012L20.3099 39.3511V40.4512C18.3599 41.4012 14.6599 42.0011 9.50989 40.6011V34.6011H13.3099V7.75098H0.109863V1.75098H20.3099V35.8008C23.3599 33.2508 24.5599 30.3011 24.7099 26.6011C23.6599 26.5011 22.7099 26.3009 22.0099 25.9009V0.550781H41.0599V25.9009C40.1099 26.4009 39.1099 26.6011 37.8599 26.6011V34.8511H38.7599V30.4009H42.1599C42.5599 33.0009 42.9099 37.851 42.9099 41.001ZM7.00989 32.8008H5.90985V34.9009C5.20985 35.2509 4.30988 35.501 3.30988 35.501C2.25988 35.501 1.4099 35.2509 0.7099 34.9009V17.4512H12.2599V32.8008C11.4599 33.1508 10.6599 33.4009 9.60986 33.4009C8.55986 33.4009 7.70989 33.1508 7.00989 32.8008ZM12.1099 15.251H1.25989V9.75098H12.1099V15.251ZM7.00989 27.6011V22.2012H5.90985V27.6011H7.00989ZM28.5099 6.05078V7.95117H34.5599V6.05078H28.5099ZM34.5599 14.1509V12.2012H28.5099V14.1509H34.5599ZM28.5099 18.4009V20.4009H34.5599V18.4009H28.5099Z" fill="black"/>
<path d="M11.8599 51.75V68.6001H18.5099V76.8999C16.2599 77.2999 13.3599 77.5498 10.4599 77.5498C7.5599 77.5498 4.85989 77.3001 2.75989 76.8501C2.20989 73.3501 1.85986 67.8001 1.85986 62.3501C1.85986 58.5001 2.00989 54.7 2.50989 51.75H11.8599ZM32.5599 73.3501L29.5099 58.6001L38.1599 56.75C39.3099 59.05 41.4599 65.6001 42.2599 71.1001L32.5599 73.3501Z" fill="black"/>
<path d="M4.35986 98.5508V90.5508H38.3599V98.5508H30.0599C28.9599 99.9508 26.4599 102.251 26.4599 108.151C26.4599 112.801 31.1099 117.501 31.6599 118.051L23.8099 123.451C23.3599 122.901 17.1099 116.701 17.1099 108.151C17.1099 103.301 17.9599 100.951 19.2099 98.5508H4.35986Z" fill="black"/>
<path d="M38.9599 158.499C37.7099 157.749 36.3599 156.999 34.9099 156.299C34.2099 159.299 33.3099 162.049 32.0599 164.349H23.2099C24.5099 160.799 25.5099 156.999 26.2599 152.999C24.9099 152.649 23.6099 152.299 22.3099 152.049C21.4599 157.799 17.9099 163.449 10.8099 163.449C5.30988 163.449 0.859863 160.099 0.859863 154.449C0.859863 147.299 6.9599 143.799 14.7099 143.099C14.8099 141.799 14.8599 140.399 14.9099 138.949H5.90985V131.449H23.6599C23.5599 135.049 23.3099 139.299 23.0599 143.299C24.5599 143.499 26.0599 143.749 27.5099 144.099C27.7099 142.249 27.8099 140.449 27.9099 138.599H36.5099C36.5599 141.249 36.4599 144.149 36.2599 147.099C38.6599 148.249 40.8099 149.599 42.5599 151.149L38.9599 158.499ZM13.9599 151.249C10.6599 151.399 8.75989 152.649 8.75989 154.599C8.75989 155.599 9.25988 156.349 10.0599 156.349C12.2599 156.349 13.3599 154.599 13.9599 151.249Z" fill="black"/>
<path d="M4.35986 183.852V175.852H38.3599V183.852H30.0599C28.9599 185.252 26.4599 187.552 26.4599 193.452C26.4599 198.102 31.1099 202.802 31.6599 203.352L23.8099 208.751C23.3599 208.201 17.1099 202.002 17.1099 193.452C17.1099 188.602 17.9599 186.252 19.2099 183.852H4.35986Z" fill="black"/>
<path d="M31.8099 221.849L20.1099 235.449L32.0599 249.549L24.46 255.399L8.20996 235.399C11.56 231.199 18.41 222.449 24.46 216.199L31.8099 221.849Z" fill="black"/>
<path d="M7.75989 268.499V262.398H17.2599V268.499H23.1599V275.999H17.1599C16.5099 284.549 13.4599 290.449 8.15985 294.449L1.35986 287.999C5.30986 284.899 7.20985 280.749 7.65985 275.999H2.00989V268.499H7.75989ZM22.9599 288.749H40.9599V297.148C38.9099 297.598 35.8099 297.798 32.5599 297.798C29.1099 297.798 25.5599 297.548 22.9599 297.048V288.749ZM25.2599 273.898H39.8599V281.898H25.2599V273.898ZM32.6599 269.349C32.6599 267.999 33.8099 266.898 35.1599 266.898C36.5098 266.898 37.6099 267.999 37.6099 269.349C37.6099 270.699 36.5098 271.849 35.1599 271.849C33.8099 271.849 32.6599 270.749 32.6599 269.349ZM43.5099 269.349C43.5099 270.749 42.3599 271.849 41.0599 271.849C39.6599 271.849 38.5599 270.749 38.5599 269.349C38.5599 267.949 39.6599 266.898 41.0599 266.898C42.3599 266.898 43.5099 267.999 43.5099 269.349Z" fill="black"/>
<path d="M37.9097 315.898V323.898H30.1097C30.0097 327.648 29.7597 331.049 29.4097 333.249H20.5598V323.898H5.25977V315.898H20.5598V306.898H29.3597C29.8097 309.248 30.1097 312.448 30.1597 315.898H37.9097ZM13.0098 330.148L22.1597 341.099L16.1597 345.999C12.5097 343.999 9.05977 339.848 6.75977 334.398L13.0098 330.148Z" fill="black"/>
<path d="M11.8599 354.949V371.799H18.5099V380.099C16.2599 380.499 13.3599 380.749 10.4599 380.749C7.5599 380.749 4.85989 380.499 2.75989 380.049C2.20989 376.549 1.85986 370.999 1.85986 365.549C1.85986 361.699 2.00989 357.899 2.50989 354.949H11.8599ZM32.5599 376.549L29.5099 361.799L38.1599 359.949C39.3099 362.249 41.4599 368.799 42.2599 374.299L32.5599 376.549Z" fill="black"/>
<path d="M28.5601 392.648C28.5601 388.948 31.6101 385.898 35.3101 385.898C39.0101 385.898 42.0601 388.948 42.0601 392.648C42.0601 396.348 39.0601 399.398 35.3101 399.398C31.5601 399.398 28.5601 396.398 28.5601 392.648ZM39.16 392.648C39.16 390.498 37.5101 388.749 35.3101 388.749C33.1101 388.749 31.41 390.498 31.41 392.648C31.41 394.798 33.1601 396.499 35.3101 396.499C37.4601 396.499 39.16 394.848 39.16 392.648Z" fill="black"/>
</svg>
