<svg width="852" height="211" viewBox="0 0 852 211" fill="none" xmlns="http://www.w3.org/2000/svg">
<path d="M851 1.64062H1V9.66064H851V1.64062Z" stroke="black" stroke-width="1.63" stroke-miterlimit="10"/>
<path d="M842.98 1.64062H834.96V25.7007H842.98V1.64062Z" fill="white" stroke="black" stroke-width="1.62" stroke-miterlimit="10"/>
<path d="M785.42 1.64062H777.4V25.7007H785.42V1.64062Z" fill="white" stroke="black" stroke-width="1.62" stroke-miterlimit="10"/>
<path d="M727.85 1.64062H719.83V25.7007H727.85V1.64062Z" fill="white" stroke="black" stroke-width="1.62" stroke-miterlimit="10"/>
<path d="M666.28 1.64062H658.26V25.7007H666.28V1.64062Z" fill="white" stroke="black" stroke-width="1.62" stroke-miterlimit="10"/>
<path d="M608.72 1.64062H600.7V25.7007H608.72V1.64062Z" fill="white" stroke="black" stroke-width="1.62" stroke-miterlimit="10"/>
<path d="M547.14 1.64062H539.12V25.7007H547.14V1.64062Z" fill="white" stroke="black" stroke-width="1.62" stroke-miterlimit="10"/>
<path d="M489.58 1.64062H481.56V25.7007H489.58V1.64062Z" fill="white" stroke="black" stroke-width="1.62" stroke-miterlimit="10"/>
<path d="M428.01 1.64062H419.99V25.7007H428.01V1.64062Z" fill="white" stroke="black" stroke-width="1.62" stroke-miterlimit="10"/>
<path d="M370.44 1.64062H362.42V25.7007H370.44V1.64062Z" fill="white" stroke="black" stroke-width="1.62" stroke-miterlimit="10"/>
<path d="M308.87 1.64062H300.85V25.7007H308.87V1.64062Z" fill="white" stroke="black" stroke-width="1.62" stroke-miterlimit="10"/>
<path d="M251.3 1.64062H243.28V25.7007H251.3V1.64062Z" fill="white" stroke="black" stroke-width="1.62" stroke-miterlimit="10"/>
<path d="M189.73 1.64062H181.71V25.7007H189.73V1.64062Z" fill="white" stroke="black" stroke-width="1.62" stroke-miterlimit="10"/>
<path d="M132.17 1.64062H124.15V25.7007H132.17V1.64062Z" fill="white" stroke="black" stroke-width="1.62" stroke-miterlimit="10"/>
<path d="M74.6001 1.64062H66.5801V25.7007H74.6001V1.64062Z" fill="white" stroke="black" stroke-width="1.62" stroke-miterlimit="10"/>
<path d="M17.04 1.64062H9.02002V25.7007H17.04V1.64062Z" fill="white" stroke="black" stroke-width="1.62" stroke-miterlimit="10"/>
<path d="M723.84 25.6992H604.71H485.57H366.43H247.29H128.16H9.02002V210.129H124.63L128.16 171.369L131.74 210.129H243.77L247.29 179.669L250.88 210.129H362.9L366.43 171.369L370.02 210.129H482.04L485.57 179.669L489.15 210.129H601.18L604.71 171.369L608.29 210.129H720.32L723.84 171.369L727.43 210.129H842.98V25.6992H723.84Z" fill="white" stroke="black" stroke-width="1.62" stroke-miterlimit="10"/>
<path d="M723.84 153.262V171.372" stroke="black" stroke-width="1.63" stroke-linecap="round" stroke-linejoin="round"/>
<path d="M485.57 162.762V179.672" stroke="black" stroke-width="1.63" stroke-linecap="round" stroke-linejoin="round"/>
<path d="M128.16 154.469V171.369" stroke="black" stroke-width="1.63" stroke-linecap="round" stroke-linejoin="round"/>
<path d="M247.29 149.75V179.67" stroke="black" stroke-width="1.63" stroke-linecap="round" stroke-linejoin="round"/>
<path d="M366.43 162.262V171.372" stroke="black" stroke-width="1.63" stroke-linecap="round" stroke-linejoin="round"/>
<path d="M604.71 142.121V171.371" stroke="black" stroke-width="1.63" stroke-linecap="round" stroke-linejoin="round"/>
<path d="M88.3401 84.6606L63.5601 110.96L88.8701 138.23L72.7701 149.55L38.3501 110.871C45.4501 102.751 59.9601 85.8205 72.7701 73.7305L88.3401 84.6606Z" fill="black"/>
<path d="M96.2999 123.743C91.9799 123.743 88.8999 120.123 86.7999 117.833C84.2699 115.053 80.8099 112.073 79.0499 110.953C78.9899 110.923 78.9899 110.863 79.0499 110.833C80.8099 109.713 84.2599 106.733 86.7999 103.953C88.8999 101.663 92.0099 98.043 96.2999 98.043C100.27 98.043 103.33 100.943 103.33 104.413C103.33 106.493 102.61 109.183 99.2399 110.843C99.1499 110.873 99.1499 110.933 99.2399 110.963C102.58 112.593 103.33 115.303 103.33 117.393C103.33 120.863 100.28 123.763 96.2999 123.763V123.743Z" fill="#AD8B0A"/>
<path d="M73.14 164.662C43.99 164.662 20.27 140.942 20.27 111.792C20.27 82.642 43.99 58.9219 73.14 58.9219C102.29 58.9219 126.01 82.642 126.01 111.792C126.01 140.942 102.29 164.662 73.14 164.662ZM73.14 68.9419C49.51 68.9419 30.28 88.1718 30.28 111.802C30.28 135.432 49.51 154.662 73.14 154.662C96.77 154.662 116 135.432 116 111.802C116 88.1718 96.77 68.9419 73.14 68.9419Z" fill="#AD8B0A"/>
<path d="M222.82 84.6646L198.04 110.964L223.35 138.234L207.25 149.554L172.83 110.875C179.93 102.755 194.44 85.8244 207.25 73.7344L222.82 84.6646Z" fill="black"/>
<path d="M315.38 142.282C312.63 140.442 308.16 135.672 305.19 133.932C303.56 145.142 293.32 150.822 284.21 150.822C269.91 150.822 262.71 142.122 262.71 133.032C262.71 122.102 273.94 115.822 286.43 115.332V110.952H266.04V97.8921H286.43V92.6621H266.08V79.1221H286.43V72.2422H304.96V79.1221H322.77V92.6621H304.96V97.8921H322.77V110.952H304.96V118.132C311.31 120.162 318.8 124.912 325.15 129.652L315.37 142.282H315.38ZM287.07 129.152C285.9 128.962 284.85 128.862 283.79 128.862C281.78 128.862 278.71 129.922 278.71 132.922C278.71 135.142 280.19 136.792 282.73 136.792C284.85 136.792 287.07 135.442 287.07 132.632V129.152Z" fill="black"/>
<path d="M392.29 132.003C401.08 132.003 409.87 130.454 410.61 130.454V147.283C404.68 148.343 401.18 149.124 390.8 149.124C374.07 149.124 357.54 143.413 357.54 127.073C357.54 118.173 362.41 110.443 370.78 104.833L362.37 104.863L361.65 76.7534L379.49 76.7236C379.9 84.4636 379.9 92.6136 380.32 99.8936C388.16 96.8936 397.69 95.1533 408.28 95.1533V111.204C390.59 112.264 377.67 117.104 377.67 124.354C377.67 129.384 384.98 131.994 392.29 131.994V132.003ZM401.63 81.5732C401.63 85.8932 398.15 89.2832 393.88 89.2832C389.61 89.2832 385.97 85.8932 385.97 81.5732C385.97 77.2532 389.61 74.0234 393.88 74.0234C398.15 74.0234 401.63 77.4132 401.63 81.5732ZM422.03 81.5732C422.03 85.8932 418.39 89.2832 414.28 89.2832C409.85 89.2832 406.37 85.8932 406.37 81.5732C406.37 77.2532 409.85 74.0234 414.28 74.0234C418.39 74.0234 422.03 77.4132 422.03 81.5732Z" fill="black"/>
<path d="M500.5 111.193C500.82 130.733 482.3 146.743 463.87 150.033L456.24 136.793C466.3 133.693 482.08 126.553 482.08 113.593C482.08 105.853 476.22 98.4128 468.73 98.3428C467.35 98.3328 466.08 98.633 464.81 99.313L465.07 120.593L446.24 121.123C445.89 114.403 445.48 104.913 445.48 96.8931C445.48 88.8731 445.48 82.4431 446.36 76.2031L464.78 76.3428L464.82 85.2627C468 84.2027 471.28 83.623 474.78 83.623C489.29 83.623 500.25 95.2631 500.5 111.223V111.193Z" fill="black"/>
<path d="M597.89 117.524C596.54 131.954 586.19 149.015 573.04 147.955C564.75 147.285 561.87 140.174 559.92 136.044C558.35 132.734 556.85 130.194 553.69 130.194C545.33 130.194 540.5 145.124 538.8 147.834L520.55 139.804L549.75 74.5742L567.34 82.4946C563.09 91.8146 559.21 103.634 553.28 114.174C555.11 112.774 559.09 111.285 560.66 111.205C573.07 110.545 569.31 125.865 574.47 126.685C577.93 127.235 580.77 119.775 581.39 113.625L597.89 117.544V117.524Z" fill="black"/>
<path d="M669.44 151.143C666.04 151.143 662.96 150.613 660.54 149.613L660.07 149.423V128.313H651.88L659.06 132.603L658.65 133.273C652.85 142.693 645.48 147.403 636.13 150.103L635.62 150.253L626.17 137.273L627.18 136.953C632.05 135.403 637.54 132.163 641.88 128.313H627.56V115.743H660.08V108.563H678.82V115.743H707.27L706.92 115.693C693.82 113.793 679.19 110.653 669.54 101.793C659.8 110.473 645.4 113.513 631.26 115.513L630.66 115.593L625.13 100.913L626.13 100.823C636.18 99.9628 649.38 97.1931 658.55 91.9331C657.06 92.2431 655.42 92.3931 653.55 92.3931C650.5 92.3931 647.85 91.943 645.66 91.043L645.19 90.853V87.5127H627.26V74.6631H645.19V70.7031H661.91V74.6631H676.8V70.7031H693.52V74.6631H711.45V87.5127H693.52V90.853L693.05 91.043C690.8 91.973 688.36 92.3931 685.16 92.3931C683.7 92.3931 682.31 92.283 681 92.063C691.37 97.743 703.76 99.8731 712.78 100.643L713.82 100.733L707.53 115.743H711.15V128.313H697.03C701.46 132.233 707.1 135.583 712.14 137.233L713.17 137.573L703.17 150.343L702.68 150.203C693.5 147.583 685.22 142.053 680.54 133.423L680.18 132.763L687.56 128.313H678.83V149.423L678.36 149.623C675.88 150.653 672.97 151.153 669.46 151.153L669.44 151.143ZM661.89 87.5029V90.1528L661.99 90.0728H676.77V87.4932H661.88L661.89 87.5029Z" fill="#AD8B0A"/>
<path d="M822.16 149.672H750.86V143.162C749.82 145.232 748.6 147.212 747.27 149.002L746.87 149.542L732.79 141.582L733.12 140.932C738.74 129.882 741.04 119.972 741.04 106.742V72.9219H820.76V94.002L819.64 94.6221C818.26 95.3421 817.01 96.812 815.43 97.022H821.17V107.142H812.36C815.7 109.862 818.3 112.422 820.3 114.932L820.8 115.562L808.8 124.132H817.65V134.472H796.45V137.122H822.17V149.692L822.16 149.672ZM752.45 137.102H778.72V134.452H759.07V124.112H778.72V121.332C772.54 121.552 766.39 121.642 761.41 121.722L758.9 121.772V110.112H765.97L768.08 107.122H757C756.83 118.502 755.27 128.822 752.46 137.092L752.45 137.102ZM796.45 124.112H806.95L803.27 118.902C801.58 119.272 798.42 119.582 796.45 119.832V124.112ZM757 97.002H808.51C806.65 96.752 805.02 94.902 803.67 94.522H756.99V97.002H757ZM784.29 110.112H797.81L796.86 108.492L796.03 107.122H786.22C785.68 108.122 785.04 109.112 784.29 110.112ZM757 85.542H803.02V82.752H757V85.542Z" fill="black"/>
<path d="M230.78 123.743C226.46 123.743 223.38 120.123 221.28 117.833C218.75 115.053 215.29 112.073 213.53 110.953C213.47 110.923 213.47 110.863 213.53 110.833C215.29 109.713 218.74 106.733 221.28 103.953C223.38 101.663 226.49 98.043 230.78 98.043C234.75 98.043 237.81 100.943 237.81 104.413C237.81 106.493 237.09 109.183 233.72 110.843C233.63 110.873 233.63 110.933 233.72 110.963C237.06 112.593 237.81 115.303 237.81 117.393C237.81 120.863 234.76 123.763 230.78 123.763V123.743Z" fill="#AD8B0A"/>
</svg>
