<svg width="481" height="242" viewBox="0 0 481 242" fill="none" xmlns="http://www.w3.org/2000/svg">
<path d="M48.0298 24.25V28.52C48.0298 42.24 55.3097 47.49 61.1198 52.18L53.9098 61.7C49.7798 58.48 46.3497 54.77 43.8297 50.08C41.5897 54.63 38.4397 58.2 34.2397 61.42L29.0598 55.82V60.37C27.0998 61.21 25.0698 61.63 22.4798 61.63C20.5898 61.63 18.2798 61.42 15.4798 60.86V55.4H14.7798C13.3098 55.4 11.9798 54.98 10.9998 54.56H9.10974V56.45C8.05974 56.87 6.72977 57.22 5.25977 57.22C3.78977 57.22 2.45976 56.87 1.40976 56.45V42.03H18.6298V53.16H20.2397V40.28H0.00976562V32.58H31.5797V40.28H29.0598V52.39C34.4498 47 38.5098 41.33 38.9998 28.52V25.02C37.7398 27.89 36.3398 30.34 34.8698 32.02L29.0598 29.71V30.27C25.5598 31.74 22.0598 32.02 15.4798 30.76V26.14H14.7798C13.3098 26.14 11.9798 25.72 10.9998 25.3H9.10974V27.19C8.05974 27.61 6.72977 27.96 5.25977 27.96C3.78977 27.96 2.45976 27.61 1.40976 27.19V12.77H18.6298V23.06H20.2397V11.02H0.00976562V3.32001H31.5797V11.02H29.0598V26.7C31.2298 19.56 33.6098 9.83 35.0098 1.5L45.2997 2.96997C44.8097 5.83997 44.1798 8.92001 43.3398 12.07H60.0698C60.0698 21.17 58.5298 27.47 55.3098 33.21L48.1698 31.46C49.0098 28.17 49.5698 24.6 50.0598 21.17H40.5398C40.1198 22.22 39.7698 23.27 39.3498 24.25H48.0298ZM9.10974 18.09V19.98H10.9998V18.09H9.10974ZM9.10974 47.35V49.24H10.9998V47.35H9.10974Z" fill="black"/>
<path d="M132.03 16.5483V24.2483H125.03V27.3983H130.63V34.3983H87.6496L91.0796 35.4483C90.8696 36.0083 90.5896 36.5683 90.3096 37.1283H100.88C100.46 48.1883 94.9996 59.3883 79.1796 61.6283L73.2996 55.5383C76.7296 54.4883 79.8796 53.0883 82.4696 51.4783L79.7396 49.0283C78.6896 49.7283 77.5696 50.3583 76.3096 50.9183L70.8496 45.3883C74.5596 42.5883 78.7596 38.5983 81.4196 34.3983H73.5096V27.3983H81.6996V24.2483H72.1096V16.5483H76.8696L72.5996 12.5583C76.1696 8.63829 79.1796 4.78828 81.9796 0.238281L90.0296 4.71826C89.7496 5.27826 89.4696 5.76831 89.1196 6.32831H128.6V13.3283H125.03V16.5483H132.03ZM81.6896 16.5483V14.7283C80.8496 15.3583 79.9396 15.9883 78.9596 16.5483H81.6896ZM85.6096 44.1283C85.2596 44.4783 84.9096 44.8283 84.5596 45.2483C85.6796 45.7383 86.8696 46.3683 87.9196 46.9983C88.7596 46.0883 89.3896 45.1083 89.9496 44.1283H85.6096ZM92.9596 13.3283H90.7896V16.5483H92.9596V13.3283ZM90.7896 27.3983H92.9596V24.2483H90.7896V27.3983ZM124.88 48.5383H130.69V56.2383H124.88V60.8583C123.34 61.3483 121.66 61.6283 119.56 61.6283C117.46 61.6283 115.78 61.2783 114.31 60.8583V56.2383H98.9096V48.5383H102.76V37.7583H114.31V35.5883H124.88V37.7583H130.06V44.7583H124.88V48.5383ZM104.51 16.5483V13.3283H102.06V16.5483H104.51ZM102.06 24.2483V27.3983H104.51V24.2483H102.06ZM114.31 48.5383V44.7583H111.86V48.5383H114.31ZM115.92 13.3283H113.61V16.5483H115.92V13.3283ZM115.92 24.2483H113.61V27.3983H115.92V24.2483Z" fill="black"/>
<path d="M165.13 3.31842C164.15 8.56842 162.12 15.4284 159.11 21.7984H162.33V60.5084C160.79 61.2084 159.11 61.6284 157.08 61.6284C155.05 61.6284 153.23 61.2084 151.83 60.5084V33.2084C150.85 34.2584 149.87 35.2384 148.82 36.0784L142.24 30.3384C146.79 22.5684 151.27 10.4584 153.65 1.14844L165.13 3.31842ZM200.69 60.8684C195.16 60.0284 189.56 57.4384 184.66 54.0784C179.2 57.8584 172.9 60.2384 167.09 61.0784L163.17 51.2784C167.65 50.2284 171.92 48.3384 175.77 46.0984C173.04 42.9484 170.94 39.6584 169.82 36.5784L172.9 35.1084H167.51V26.0084H178.01V18.2384H164.99V9.13843H178.01V1.64844H189.21V9.13843H203.28V18.2384H189.21V26.0084H201.04C200.62 33.7084 197.89 40.2884 193.76 45.5384C197.75 47.3584 201.88 48.7584 205.52 49.5284L200.69 60.8684ZM178.43 35.1084C179.97 36.8584 181.86 38.4684 184.03 40.0084C185.78 38.3984 187.32 36.7184 188.58 35.1084H178.43Z" fill="black"/>
<path d="M235.69 37.6167V60.5067C234.29 61.2067 232.679 61.6267 230.789 61.6267C228.899 61.6267 227.15 61.2067 225.89 60.5067V41.1167C224.63 41.9567 223.23 42.7967 221.76 43.4967L216.229 36.2167C220.919 33.1367 226.8 27.0467 229.32 22.4967H218.4V14.0967H226.03V1.63672H235.13V14.0967H241.919C241.499 18.7867 240.1 23.9667 237.44 28.7267L238.419 29.3567L242.62 21.1667L249.83 24.8767C248.57 27.6767 246.26 31.1067 243.81 33.4867C245.14 34.6767 246.26 35.7967 246.96 36.6367L240.03 43.1467L235.69 37.6167ZM277.27 25.9267C277.27 37.6167 277.129 49.8667 276.919 59.3867C274.049 61.0667 266.139 61.8367 258.229 59.9467V50.8467H265.65V13.3967H262.43C262.36 30.1967 258.44 50.7067 246.4 61.8367L238.28 54.8367C246.47 46.7867 251.93 31.1067 252 13.3967H243.46V4.9967H277.06C277.2 11.0867 277.27 18.3667 277.27 25.9267Z" fill="black"/>
<path d="M293.44 22.217L305.13 23.687C304.15 31.877 301.07 45.737 298.41 49.937L289.24 47.697C290.85 40.417 292.32 30.197 293.44 22.217ZM335.93 40.557C336.7 44.197 337.33 55.257 337.12 59.597C332.99 60.647 326.97 61.137 321.23 61.137C315.07 61.137 309.12 60.577 305.83 59.597V16.267H317.03V50.567H325.57V40.557H335.93ZM326.83 18.997L306.53 9.547L310.24 1.70703C316.4 2.61703 326.06 5.837 331.94 9.617L326.83 18.997ZM350.35 45.737L338.59 47.977C337.54 41.117 335.37 29.357 333.48 23.477L343.21 20.747C346.57 26.277 349.79 39.437 350.35 45.737Z" fill="black"/>
<path d="M399.35 29.4267C397.88 30.5467 396.48 31.5967 394.87 32.7167H414.19V60.5067C412.58 61.2067 410.55 61.5567 408.31 61.5567C406.07 61.5567 404.18 61.2067 402.71 60.5067V58.6867H385V60.5067C383.46 61.2067 381.64 61.5567 379.4 61.5567C377.16 61.5567 375.34 61.2067 373.8 60.5067V45.5967C371.21 46.8567 368.69 48.0467 366.38 48.9567L361.69 40.3467C369.11 36.6367 375.62 33.1367 381.71 29.4267H362.6V21.0267H381.36V16.7567H368.41V8.35669H381.36V1.63672H391.86V8.35669H402.64V13.8167C406.21 10.5267 409.78 6.88672 413.42 2.82672L420.98 9.47668C417.55 13.4667 413.77 17.2467 409.57 21.0267H421.12V29.4267H399.35ZM402.71 40.4167H385V43.2167H402.71V40.4167ZM402.71 50.9867V48.1167H385V50.9867H402.71ZM391.86 21.0267H394.03C395.78 19.6967 397.53 18.2267 399.28 16.7567H391.86V21.0267Z" fill="black"/>
<path d="M480.28 44.4064V56.5864C476.36 57.3564 474.05 57.9164 467.19 57.9164C456.13 57.9164 445.21 53.7864 445.21 41.9564C445.21 35.5164 448.43 29.9164 453.96 25.8564H447.8V6.81641H460.19C460.82 11.4364 460.89 17.6664 460.26 22.2864C465.44 20.1164 471.74 18.8564 478.74 18.8564V30.4764C467.05 31.2464 458.51 34.7464 458.51 39.9964C458.51 43.6364 463.34 45.5264 468.17 45.5264C473.98 45.5264 479.79 44.4064 480.28 44.4064Z" fill="black"/>
<path d="M62.5498 114.25V118.52C62.5498 132.24 69.8298 137.49 75.6398 142.18L68.4298 151.7C64.2998 148.48 60.8698 144.77 58.3498 140.08C56.1098 144.63 52.9598 148.2 48.7598 151.42L43.5798 145.82V150.37C41.6198 151.21 39.5898 151.63 36.9998 151.63C35.1098 151.63 32.7998 151.42 29.9998 150.86V145.4H29.2998C27.8298 145.4 26.4998 144.98 25.5198 144.56H23.6298V146.45C22.5798 146.87 21.2498 147.22 19.7798 147.22C18.3098 147.22 16.9798 146.87 15.9298 146.45V132.03H33.1498V143.16H34.7598V130.28H14.5298V122.58H46.0998V130.28H43.5798V142.39C48.9698 137 53.0298 131.33 53.5198 118.52V115.02C52.2598 117.89 50.8598 120.34 49.3898 122.02L43.5798 119.71V120.27C40.0798 121.74 36.5798 122.02 29.9998 120.76V116.14H29.2998C27.8298 116.14 26.4998 115.72 25.5198 115.3H23.6298V117.19C22.5798 117.61 21.2498 117.96 19.7798 117.96C18.3098 117.96 16.9798 117.61 15.9298 117.19V102.77H33.1498V113.06H34.7598V101.02H14.5298V93.32H46.0998V101.02H43.5798V116.7C45.7498 109.56 48.1298 99.83 49.5298 91.5L59.8198 92.97C59.3298 95.84 58.6998 98.92 57.8598 102.07H74.5898C74.5898 111.17 73.0498 117.47 69.8298 123.21L62.6898 121.46C63.5298 118.17 64.0898 114.6 64.5798 111.17H55.0598C54.6398 112.22 54.2898 113.27 53.8698 114.25H62.5498ZM23.6298 108.09V109.98H25.5198V108.09H23.6298ZM23.6298 137.35V139.24H25.5198V137.35H23.6298Z" fill="black"/>
<path d="M146.55 106.548V114.248H139.55V117.398H145.15V124.398H102.17L105.6 125.448C105.39 126.008 105.11 126.568 104.83 127.128H115.4C114.98 138.188 109.52 149.388 93.6996 151.628L87.8196 145.538C91.2496 144.488 94.3996 143.088 96.9896 141.478L94.2596 139.028C93.2096 139.728 92.0896 140.358 90.8296 140.918L85.3696 135.388C89.0796 132.588 93.2796 128.598 95.9396 124.398H88.0296V117.398H96.2196V114.248H86.6296V106.548H91.3896L87.1196 102.558C90.6896 98.6383 93.6996 94.7883 96.4996 90.2383L104.55 94.7183C104.27 95.2783 103.99 95.7683 103.64 96.3283H143.12V103.328H139.55V106.548H146.55ZM96.2096 106.548V104.728C95.3696 105.358 94.4596 105.988 93.4796 106.548H96.2096ZM100.13 134.128C99.7796 134.478 99.4296 134.828 99.0796 135.248C100.2 135.738 101.39 136.368 102.44 136.998C103.28 136.088 103.91 135.108 104.47 134.128H100.13ZM107.48 103.328H105.31V106.548H107.48V103.328ZM105.31 117.398H107.48V114.248H105.31V117.398ZM139.4 138.538H145.21V146.238H139.4V150.858C137.86 151.348 136.18 151.628 134.08 151.628C131.98 151.628 130.3 151.278 128.83 150.858V146.238H113.43V138.538H117.28V127.758H128.83V125.588H139.4V127.758H144.58V134.758H139.4V138.538ZM119.03 106.548V103.328H116.58V106.548H119.03ZM116.58 114.248V117.398H119.03V114.248H116.58ZM128.83 138.538V134.758H126.38V138.538H128.83ZM130.44 103.328H128.13V106.548H130.44V103.328ZM130.44 114.248H128.13V117.398H130.44V114.248Z" fill="black"/>
<path d="M179.659 93.3184C178.679 98.5684 176.65 105.428 173.64 111.798H176.859V150.508C175.319 151.208 173.639 151.628 171.609 151.628C169.579 151.628 167.759 151.208 166.359 150.508V123.208C165.379 124.258 164.399 125.238 163.349 126.078L156.77 120.338C161.32 112.568 165.8 100.458 168.18 91.1484L179.659 93.3184ZM215.219 150.868C209.689 150.028 204.09 147.438 199.19 144.078C193.73 147.858 187.43 150.238 181.62 151.078L177.7 141.278C182.18 140.228 186.449 138.338 190.299 136.098C187.569 132.948 185.469 129.658 184.349 126.578L187.43 125.108H182.039V116.008H192.539V108.238H179.52V99.1384H192.539V91.6484H203.74V99.1384H217.81V108.238H203.74V116.008H215.57C215.15 123.708 212.419 130.288 208.289 135.538C212.279 137.358 216.41 138.758 220.049 139.528L215.219 150.868ZM192.96 125.108C194.5 126.858 196.39 128.468 198.56 130.008C200.31 128.398 201.849 126.718 203.109 125.108H192.96Z" fill="black"/>
<path d="M238.6 138.679C250.92 133.079 257.85 123.839 259.53 113.759H232.09V102.559H274.93C274.93 121.879 267.16 140.149 248.75 148.059L238.6 138.679Z" fill="black"/>
<path d="M290.47 120.199V109.699H331.91V110.189C331.91 116.559 329.04 126.919 321.83 131.189L314.34 127.339C315.74 125.029 316.93 122.649 317.91 120.199H290.47ZM292.08 141.689C299.43 137.069 300.97 133.079 300.97 124.049H313.15C313.15 135.389 310 145.049 300.55 149.319L292.08 141.689Z" fill="black"/>
<path d="M346.68 101.297H368.1V113.197H346.68V101.297ZM350.81 134.617C366.98 131.397 375.17 123.137 378.74 110.397H392.53C389.94 130.417 375.17 143.787 357.11 146.797L350.81 134.617Z" fill="black"/>
<path d="M452.66 127.69C452.66 136.16 448.67 145.05 439.99 148.62L432.64 139.87C437.47 137.35 440.06 132.59 440.06 128.04C440.06 123.84 437.82 120.83 432.43 120.83H431.24V144.77H419.27C418.78 140.57 418.57 132.31 418.5 123.42C416.75 124.12 415.28 124.89 413.95 125.59L409.33 115.16C411.85 113.55 414.86 112.08 418.57 110.96C418.71 104.87 418.92 99.2 419.2 95H431.24V109C432.01 108.93 432.78 108.93 433.62 108.93C444.33 108.93 452.66 116.7 452.66 127.69ZM457.63 105.36C455.74 105.36 454.13 103.82 454.13 101.86C454.13 99.9 455.74 98.43 457.63 98.43C459.52 98.43 461.06 99.97 461.06 101.86C461.06 103.75 459.52 105.36 457.63 105.36ZM456.02 132.38V109.14H467.64C468.62 114.39 469.04 126.85 468.48 132.38H456.02ZM462.39 101.86C462.39 99.97 463.93 98.43 465.89 98.43C467.71 98.43 469.32 99.97 469.32 101.86C469.32 103.75 467.71 105.36 465.89 105.36C463.93 105.36 462.39 103.82 462.39 101.86Z" fill="black"/>
<path d="M117.11 239.807C109.9 239.247 102.27 236.167 96.9497 232.037V240.437C95.2697 241.277 93.5197 241.627 91.3497 241.627C89.1797 241.627 87.3597 241.207 85.7497 240.437V233.017C81.5497 236.377 75.5297 238.897 66.0097 239.527L61.5297 230.497C68.3897 229.727 74.1297 228.677 79.2397 226.997H62.9297V219.297H85.7497V217.127H78.4697C76.8597 217.827 75.1097 218.037 73.1497 218.037C71.0497 218.037 69.3697 217.757 67.9697 217.127V202.987C67.3397 203.407 66.4997 203.897 65.6597 204.317L60.9697 199.137C65.7997 193.397 70.9797 186.747 75.4597 180.727L83.8597 186.537L82.8097 188.287H89.6697L93.7997 180.797L102.83 185.697C102.41 186.537 101.92 187.307 101.29 188.287H117.25V195.287H99.2597V196.897H114.87V201.657H99.2597V203.197H114.87V208.027H99.2597V209.427H117.46V217.127H96.9497V219.297H120.05V226.997H104.51C109.83 228.467 114.8 229.307 121.38 229.937L117.11 239.807ZM88.7597 195.287H78.4697V196.897H88.7597V195.287ZM88.7597 201.657H78.4697V203.197H88.7597V201.657ZM78.4697 209.427H88.7597V208.027H78.4697V209.427Z" fill="black"/>
<path d="M171.78 233.996C169.96 232.666 168.07 231.336 166.11 230.076C165.06 236.726 158.55 240.506 152.53 240.506C143.08 240.506 138.32 234.206 138.32 227.626C138.32 219.716 145.74 215.166 154 214.816V211.946H143.5V202.496H154V199.276H140.84V189.476H154V183.316H166.25V189.476H177.73V199.276H166.25V202.496H175.77V211.946H166.25V216.846C170.45 218.316 174.79 220.696 178.99 224.126L171.78 233.996ZM154.42 224.826C153.65 224.686 152.95 224.616 152.25 224.616C150.92 224.616 148.89 225.387 148.89 227.557C148.89 229.167 149.87 230.356 151.55 230.356C152.95 230.356 154.42 229.376 154.42 227.346V224.826Z" fill="black"/>
<path d="M238.01 222.377C238.01 231.407 231.15 239.667 217.78 239.667C209.52 239.667 201.26 235.887 201.26 227.557C201.26 221.957 206.09 217.967 212.25 217.967C219.39 217.967 223.24 222.097 223.24 226.647C223.24 226.927 223.24 227.347 223.17 227.907C224.92 226.297 225.62 224.267 225.62 222.447C225.62 217.967 220.93 214.677 215.05 214.677C208.05 214.677 203.08 218.107 201.54 218.947L196.57 210.547C202.24 207.187 207.98 203.407 213.3 199.207H201.33V188.707H231.22C230.73 195.007 227.86 200.607 223.03 205.437C232.06 207.327 238.01 214.537 238.01 222.377ZM211.9 229.867C213.72 229.587 215.05 228.677 215.05 227.207C215.05 225.947 214 224.967 212.53 224.967C210.92 224.967 209.94 226.087 209.94 227.137C209.94 228.467 210.78 229.307 211.9 229.867Z" fill="black"/>
<path d="M284.76 187.168H298.2V198.298H308.35V209.498H298.2V209.848C298.2 223.498 290.92 234.418 279.72 238.618L270.76 229.378C279.93 225.388 284.76 219.928 284.76 209.848V209.498H276.85V217.968H264.32C264.04 215.378 263.83 212.508 263.69 209.498H254.1V198.298H263.62C263.62 194.378 263.97 190.528 264.32 187.168H276.85V198.298H284.76V187.168Z" fill="black"/>
<path d="M367.16 194.73C361.91 200.75 355.61 205.72 349.1 209.64H355.4V237.71C353.3 238.48 351.06 238.9 348.4 238.9C345.6 238.9 343.29 238.48 341.4 237.71V213.7C335.8 216.22 330.27 217.97 325.16 218.81L319.56 208.38C334.33 202.57 347.42 194.59 356.94 185L367.16 194.73Z" fill="black"/>
<path d="M418.26 225.529C415.18 222.869 408.18 217.199 403.49 214.259V237.639C401.39 238.409 399.15 238.828 396.49 238.828C393.69 238.828 391.38 238.409 389.49 237.639V186.809H403.49V209.489L407.83 203.749C416.09 205.569 421.69 209.979 426.59 214.249L418.26 225.519V225.529Z" fill="black"/>
</svg>
