<svg width="121" height="121" viewBox="0 0 121 121" fill="none" xmlns="http://www.w3.org/2000/svg">
<path d="M30.93 43.6124C24.33 42.9824 21.66 41.3423 18.3 36.0123C16.76 33.5723 12.74 24.1322 8.60001 26.4322C4.30001 28.8222 5.82002 32.6924 7.30002 35.3424C11.01 42.0124 14.05 47.9623 20.95 51.7923C25.92 54.5523 30.49 55.7423 36.36 54.4823" fill="white"/>
<path d="M36.2499 56.0232C30.7099 57.1132 25.8899 56.2332 20.2299 53.0932C13.3099 49.2532 10.0399 43.3533 6.57989 37.1033L5.99988 36.0632C3.20988 31.0532 3.84987 27.383 7.86987 25.143C8.87987 24.583 9.99986 24.4532 11.1099 24.7732C14.3599 25.7232 16.9199 30.4532 18.6199 33.5732C18.9899 34.2632 19.2699 34.8731 19.5399 35.2231C23.1699 39.8231 28.7899 38.643 31.0699 42.143C31.5099 42.823 32.4799 42.9432 32.3999 43.7532C32.3199 44.5632 31.5999 45.1632 30.7899 45.0832C23.7599 44.4032 20.6799 42.5532 17.0499 36.8032C16.7699 36.3532 16.4199 35.7231 16.0299 34.9831C14.7499 32.6131 12.3599 28.2133 10.2999 27.6133C9.94986 27.5133 9.65989 27.5431 9.32989 27.7331C7.22989 28.9031 6.30985 30.523 8.59985 34.633L9.17987 35.6731C12.5699 41.7931 15.4999 47.0832 21.6799 50.5032C26.8699 53.3832 31.0299 54.1132 36.0699 53.0432C36.8599 52.8632 37.6499 53.3831 37.8199 54.1831C37.9899 54.9831 37.4799 55.7631 36.6799 55.9331C36.5399 55.9631 36.3999 55.9932 36.2599 56.0232H36.2499Z" fill="#005AAF"/>
<path d="M54.8097 102.891C55.6297 103.011 56.1897 103.761 56.0797 104.581C56.0297 104.901 54.9397 112.481 54.0597 115.791L53.9297 116.291C52.9897 119.871 51.9597 121.451 46.5797 120.481C42.9897 119.831 43.3397 116.821 43.6397 114.161C43.9797 111.201 45.7197 102.091 46.0597 100.731C46.2597 99.9313 47.0797 99.4212 47.8697 99.6412L54.8197 102.881L54.8097 102.891Z" fill="white"/>
<path d="M46.5597 120.493C42.9697 119.843 43.3197 116.833 43.6197 114.173C43.9597 111.213 45.6997 102.103 46.0397 100.743C46.2397 99.943 47.0597 99.4329 47.8497 99.6529C48.6497 99.8529 49.1397 100.663 48.9397 101.463C48.6197 102.753 46.9097 111.723 46.5897 114.513C46.2597 117.403 46.3997 117.423 47.0897 117.553C49.2564 117.946 50.5664 117.276 51.0197 115.543L51.1597 115.023C51.9997 111.883 53.0997 104.243 53.1097 104.163C53.2297 103.343 53.9797 102.783 54.7997 102.893C55.6197 103.013 56.1797 103.763 56.0697 104.583C56.0197 104.903 54.9297 112.483 54.0497 115.793L53.9197 116.293C52.9797 119.873 51.9497 121.453 46.5697 120.483L46.5597 120.493Z" fill="#005AAF"/>
<path d="M70.1597 102.891C69.3397 103.011 68.7798 103.761 68.8898 104.581C68.9398 104.901 70.0297 112.481 70.9097 115.791L71.0397 116.291C71.9797 119.871 73.0098 121.451 78.3898 120.481C81.9798 119.831 81.6298 116.821 81.3298 114.161C80.9898 111.201 79.2497 102.091 78.9097 100.731C78.7097 99.9313 77.8897 99.4212 77.0997 99.6412L70.1498 102.881L70.1597 102.891Z" fill="white"/>
<path d="M78.41 120.493C82 119.843 81.65 116.833 81.35 114.173C81.01 111.213 79.27 102.103 78.93 100.743C78.73 99.943 77.91 99.4329 77.12 99.6529C76.32 99.8529 75.83 100.663 76.03 101.463C76.35 102.753 78.06 111.723 78.38 114.513C78.71 117.403 78.57 117.423 77.88 117.553C75.7133 117.946 74.4033 117.276 73.95 115.543L73.81 115.023C72.97 111.883 71.87 104.243 71.86 104.163C71.74 103.343 70.99 102.783 70.17 102.893C69.35 103.013 68.79 103.763 68.9 104.583C68.95 104.903 70.04 112.483 70.92 115.793L71.05 116.293C71.99 119.873 73.02 121.453 78.4 120.483L78.41 120.493Z" fill="#005AAF"/>
<path d="M53.4597 19.7716C48.2597 21.6116 42.5897 19.0216 40.8097 13.9916C39.0297 8.96155 41.8097 3.3816 47.0097 1.5416C52.2097 -0.2984 57.8797 2.29163 59.6597 7.32163C61.4397 12.3516 58.6597 17.9316 53.4597 19.7716Z" fill="white"/>
<path d="M53.4597 19.7716C48.2597 21.6116 42.5897 19.0216 40.8097 13.9916C39.0297 8.96155 41.8097 3.3816 47.0097 1.5416C52.2097 -0.2984 57.8797 2.29163 59.6597 7.32163C61.4397 12.3516 58.6597 17.9316 53.4597 19.7716ZM47.7497 3.65146C43.7197 5.08146 41.5497 9.38155 42.9197 13.2416C44.2897 17.1016 48.6797 19.0815 52.7097 17.6515C56.7397 16.2215 58.9097 11.9216 57.5397 8.06162C56.1697 4.20162 51.7797 2.22146 47.7497 3.65146Z" fill="#005AAF"/>
<path d="M52.6697 18.4028C49.6397 19.4728 46.3297 17.9529 45.2897 15.0229C44.2497 12.0829 45.8697 8.82292 48.8897 7.75292C51.9197 6.68292 55.2297 8.2028 56.2697 11.1328C57.3097 14.0728 55.6897 17.3328 52.6697 18.4028ZM49.6397 9.86302C47.7797 10.523 46.7697 12.5029 47.3997 14.2729C48.0297 16.0429 50.0497 16.953 51.9197 16.293C53.7797 15.633 54.7897 13.6528 54.1597 11.8828C53.5297 10.1128 51.5097 9.20302 49.6397 9.86302Z" fill="#005AAF"/>
<path d="M74.9598 19.9609C69.7998 18.0309 67.1197 12.4008 68.9797 7.40083C70.8497 2.40083 76.5697 -0.0889893 81.7297 1.84101C86.8897 3.77101 89.5698 9.40083 87.7098 14.4008C85.8398 19.4008 80.1198 21.8909 74.9598 19.9609Z" fill="white"/>
<path d="M74.9598 19.9609C69.7998 18.0309 67.1197 12.4008 68.9797 7.40083C70.8497 2.40083 76.5697 -0.0889893 81.7297 1.84101C86.8897 3.77101 89.5698 9.40083 87.7098 14.4008C85.8398 19.4008 80.1198 21.8909 74.9598 19.9609ZM80.9498 3.94086C76.9398 2.44086 72.5198 4.35085 71.0898 8.18085C69.6598 12.0209 71.7498 16.361 75.7498 17.851C79.7598 19.351 84.1798 17.441 85.6098 13.611C87.0398 9.77103 84.9498 5.43086 80.9498 3.94086Z" fill="#005AAF"/>
<path d="M75.2498 18.4004C72.2398 17.2804 70.6799 13.9906 71.7699 11.0706C72.8599 8.1506 76.1999 6.69059 79.2099 7.81059C82.2199 8.94059 83.7798 12.2304 82.6898 15.1404C81.5998 18.0604 78.2598 19.5204 75.2498 18.3904V18.4004ZM78.4198 9.91045C76.5698 9.22045 74.5298 10.0906 73.8698 11.8506C73.2098 13.6106 74.1799 15.6106 76.0299 16.3006C77.8799 16.9906 79.9199 16.1206 80.5799 14.3606C81.2399 12.6006 80.2698 10.6004 78.4198 9.91045Z" fill="#005AAF"/>
<path d="M95.31 46.0733C97.99 28.3633 85.8099 11.8331 68.0999 9.14309C50.3899 6.46309 33.86 18.6433 31.17 36.3533C29.67 46.2833 32.83 55.8332 39.03 62.7932C37.3 65.7132 36.09 69.0032 35.55 72.5532C33.3 87.4032 43.51 101.263 58.36 103.513C73.21 105.763 87.07 95.5531 89.32 80.7031C91.14 68.7231 86.22 65.3532 86.84 61.2632C88.02 53.4932 94.25 53.0533 95.3 46.0633L95.31 46.0733Z" fill="white"/>
<path d="M87.0702 56.0125C89.5502 57.0125 92.3801 55.8025 93.3701 53.3125C94.3001 51.0125 94.9602 48.5826 95.3302 46.1026C98.0102 28.3926 85.7901 11.8224 68.1001 9.14236C50.4101 6.46236 33.8302 18.6724 31.1402 36.3824C29.6702 46.0524 32.5901 55.6525 38.9901 62.8326C37.2801 65.7425 36.0801 69.0025 35.5401 72.5525C33.2901 87.3825 43.5301 101.283 58.3701 103.533C73.1601 105.772 87.0502 95.5625 89.3302 80.7625C89.5302 79.4925 89.1902 78.1924 88.4502 77.1524C87.6702 76.1124 86.5202 75.4225 85.2602 75.2325L64.9402 72.1524C62.3002 71.7524 59.8201 73.5724 59.4201 76.2124C59.0201 78.8524 60.8501 81.3325 63.4901 81.7325C63.4901 81.7325 72.4702 83.0925 78.3202 83.9825C75.1402 90.8624 67.6702 95.1424 59.8202 93.9524C50.2502 92.5024 43.6601 83.5625 45.1101 74.0125C46.0301 67.9025 50.0302 63.0424 55.2802 60.6824C57.0902 63.7524 60.1502 66.0426 63.9602 66.6226C70.6302 67.6326 76.8601 63.0326 77.8701 56.3626C78.8801 49.6726 74.2901 43.4424 67.6201 42.4324C61.6201 41.5224 56.0202 45.1625 54.1902 50.7425C50.9902 51.7725 48.0001 53.3524 45.4101 55.4424C41.4801 50.5224 39.7501 44.2126 40.7201 37.8626C42.6001 25.4426 54.2202 16.8825 66.6402 18.7625C79.0502 20.6425 87.6201 32.2724 85.7401 44.6824C85.4801 46.4324 85.0101 48.1325 84.3701 49.7525C83.3801 52.2325 84.5701 55.0525 87.0601 56.0425L87.0702 56.0125Z" fill="white"/>
<path d="M85.2702 75.2224L64.9502 72.1424C62.3102 71.7424 59.8301 73.5624 59.4301 76.2024C59.0301 78.8424 60.8601 81.3224 63.5001 81.7224C63.5001 81.7224 72.4802 83.0824 78.3302 83.9724C75.1502 90.8524 67.6802 95.1324 59.8302 93.9424C50.2602 92.4924 43.6701 83.5525 45.1201 74.0025C46.5701 64.4525 55.5102 57.8525 65.0802 59.3025C67.7202 59.7025 70.1802 57.8825 70.5802 55.2425C70.9802 52.6025 69.1702 50.1124 66.5302 49.7124C58.7002 48.5224 51.1401 50.8124 45.4201 55.4124C41.4901 50.4924 39.7601 44.1825 40.7301 37.8325C42.6101 25.4125 54.2302 16.8525 66.6502 18.7325C79.0602 20.6125 87.6301 32.2424 85.7501 44.6524C85.4902 46.4024 85.0202 48.1024 84.3802 49.7224C83.3902 52.2024 84.5802 55.0225 87.0702 56.0125C89.5502 57.0125 92.3801 55.8025 93.3701 53.3125C94.3001 51.0125 94.9602 48.5826 95.3302 46.1026C98.0102 28.3926 85.7901 11.8224 68.1001 9.14236C50.4101 6.46236 33.8302 18.6724 31.1402 36.3824C29.6702 46.0524 32.5901 55.6525 38.9901 62.8326C37.2801 65.7425 36.0801 69.0025 35.5401 72.5525C33.2901 87.3825 43.5301 101.283 58.3701 103.533C73.1601 105.772 87.0502 95.5625 89.3302 80.7625C89.5302 79.4925 89.1902 78.1924 88.4502 77.1524C87.6702 76.1124 86.5202 75.4225 85.2602 75.2325L85.2702 75.2224Z" fill="#005AAF"/>
<path d="M77.8803 56.3424C76.8703 63.0124 70.6403 67.6125 63.9703 66.6025C57.2803 65.5925 52.6903 59.3523 53.7003 52.6823C54.7103 46.0123 60.9403 41.4023 67.6303 42.4123C74.3003 43.4223 78.8903 49.6524 77.8803 56.3424Z" fill="#F0B400"/>
<path d="M56.4001 23.9025C56.5701 24.4625 55.9801 25.1324 55.0901 25.3924C54.2001 25.6524 53.3401 25.4126 53.1801 24.8526C53.0101 24.2926 53.6001 23.6227 54.4901 23.3627C55.3801 23.1027 56.2401 23.3425 56.4001 23.9025Z" fill="#005AAF"/>
<path d="M75.5302 26.2642C75.3002 26.8042 74.4202 26.9342 73.5602 26.5642C72.7102 26.1942 72.2102 25.4541 72.4402 24.9241C72.6702 24.3841 73.5502 24.2543 74.4102 24.6243C75.2602 24.9943 75.7602 25.7342 75.5302 26.2642Z" fill="#005AAF"/>
<path d="M63.4097 39.1198C63.2397 39.0898 63.0697 39.0196 62.9297 38.9096L54.6797 32.3896C54.4197 32.1796 54.2697 31.8597 54.2997 31.5297C54.3197 31.1997 54.4997 30.8997 54.7897 30.7197L63.7997 25.2797C64.1597 25.0597 64.6197 25.0898 64.9497 25.3498L73.1997 31.8698C73.4597 32.0798 73.5997 32.3997 73.5797 32.7297C73.5597 33.0597 73.3797 33.3597 73.0897 33.5397L64.0797 38.9797C63.8697 39.1097 63.6297 39.1498 63.3997 39.1098L63.4097 39.1198ZM57.0897 31.7097L63.6397 36.8896L70.7897 32.5698L64.2397 27.3896L57.0897 31.7097Z" fill="#005AAF"/>
<path d="M55.1595 32.6007C54.6395 32.5207 54.2696 32.0607 54.2996 31.5307C54.3396 30.9707 54.8196 30.5407 55.3796 30.5807L72.6396 31.6605C73.1996 31.7005 73.6296 32.1806 73.5896 32.7406C73.5496 33.3006 73.0696 33.7306 72.5096 33.6906L55.2496 32.6107C55.2496 32.6107 55.1895 32.6107 55.1595 32.6107V32.6007Z" fill="#005AAF"/>
<path d="M93.8199 66.8185C100.4 67.5885 103.05 69.2784 106.3 74.6684C107.79 77.1384 111.63 86.6584 115.81 84.4384C120.16 82.1284 118.71 78.2385 117.29 75.5485C113.71 68.7985 110.8 62.7985 103.97 58.8285C99.0498 55.9685 94.5099 54.6885 88.6099 55.8285" fill="white"/>
<path d="M87.87 54.5501C87.34 54.8601 87.0299 55.4802 87.1599 56.1102C87.3099 56.9102 88.09 57.4401 88.89 57.2801C93.94 56.3101 98.0899 57.1302 103.23 60.1102C109.34 63.6602 112.16 69 115.43 75.19L115.99 76.2401C118.2 80.4001 117.24 82 115.12 83.13C114.79 83.31 114.49 83.3401 114.14 83.2301C112.08 82.5901 109.79 78.1401 108.55 75.7401C108.17 75.0001 107.84 74.36 107.56 73.9C104.05 68.08 101 66.1602 93.9799 65.3402C93.1699 65.2502 92.44 65.83 92.34 66.64C92.25 67.45 92.83 68.1801 93.64 68.2801C99.75 68.9901 101.99 70.39 105.03 75.43C105.25 75.8 105.56 76.4002 105.92 77.0902C107.55 80.2502 110.02 85.0301 113.25 86.0401C114.35 86.3801 115.47 86.2801 116.49 85.7301C120.57 83.5701 121.27 79.9102 118.58 74.8502L118.02 73.8001C114.68 67.4801 111.53 61.5201 104.69 57.5501C98.95 54.2201 94.06 53.27 88.31 54.38C88.14 54.41 87.9899 54.4701 87.8499 54.5501H87.87Z" fill="#005AAF"/>
<path d="M87.8498 55.0404C81.0298 60.0904 62.4898 66.2904 62.4898 66.2904C62.4898 66.2904 44.3498 59.0604 37.5398 54.0204C37.5398 54.0204 37.2898 53.1303 36.2398 56.7003C34.2498 63.5203 34.1298 75.1705 34.2498 78.5805C34.8198 94.2105 37.7998 113.82 37.7998 113.82C41.6398 114.81 54.4198 115.38 65.7898 115.24C73.4798 115.14 86.6798 113.96 88.8098 113.39C88.8098 113.39 89.0898 92.3605 89.7998 78.5805C90.5098 64.8005 89.6998 57.6304 87.8498 55.0404Z" fill="#1A2B5B"/>
<path d="M89.8499 90.0923C83.5999 92.7923 77.7199 94.4721 63.5099 94.1921C49.2999 94.4721 40.5399 92.7923 34.2899 90.0923L33.6699 80.9922C39.9199 83.2122 49.2999 85.7722 63.5099 85.5422C77.7199 85.7722 83.7999 83.2122 90.0499 80.9922L89.84 90.0923H89.8499Z" fill="#007976"/>
<path d="M64.94 79.3992C64.45 79.3992 64.03 79.0093 64.01 78.5093C63.99 77.9993 64.39 77.5693 64.9 77.5493C68.2 77.4193 74.53 75.6492 78.73 73.6792C79.19 73.4592 79.75 73.6591 79.96 74.1291C80.18 74.5891 79.98 75.1494 79.51 75.3594C75.06 77.4494 68.54 79.2592 64.97 79.3992C64.96 79.3992 64.94 79.3992 64.93 79.3992H64.94Z" fill="#97C7BC"/>
<path d="M58.86 79.2599C58.86 79.2599 58.83 79.2599 58.82 79.2599C55.28 79.1199 48.27 77.1699 43.82 75.0799C43.36 74.8599 43.16 74.31 43.37 73.85C43.59 73.39 44.14 73.1898 44.6 73.3998C48.79 75.3598 55.6 77.2698 58.89 77.3998C59.4 77.4198 59.8 77.85 59.78 78.36C59.76 78.86 59.35 79.2499 58.85 79.2499L58.86 79.2599Z" fill="#97C7BC"/>
<path d="M61.74 80.7621C61.62 80.7621 61.5 80.742 61.39 80.692C60.92 80.502 60.69 79.9621 60.88 79.4821C60.96 79.2821 61.11 78.642 60.86 78.162C60.67 77.802 60.26 77.542 59.62 77.392C59.12 77.272 58.82 76.7721 58.94 76.2721C59.06 75.7721 59.56 75.4622 60.06 75.5922C61.25 75.8822 62.07 76.4622 62.52 77.3322C63.19 78.6422 62.6599 80.032 62.5999 80.192C62.4499 80.552 62.11 80.7721 61.74 80.7721V80.7621Z" fill="#97C7BC"/>
<path d="M63.8499 80.4218C63.7199 80.4218 63.5899 80.392 63.4699 80.342C62.9999 80.132 62.7999 79.582 63.0099 79.112C63.1099 78.872 63.3299 78.1418 63.0499 77.6818C62.7599 77.2018 61.9599 77.0519 61.3399 77.0119C60.8299 76.9819 60.4399 76.5419 60.4799 76.0219C60.5099 75.5119 60.9699 75.1318 61.4699 75.1618C63.0199 75.2618 64.0899 75.7919 64.6499 76.7319C65.4699 78.1019 64.7899 79.7018 64.7099 79.8818C64.5499 80.2218 64.2199 80.4218 63.8699 80.4218H63.8499Z" fill="#97C7BC"/>
<path d="M59.0803 79.8716C59.0803 79.8716 59.0303 79.8716 59.0203 79.8716C58.5103 79.8516 58.1103 79.4114 58.1403 78.9014C58.1603 78.3914 58.5902 78.0015 59.1102 78.0215C59.1102 78.0215 59.7803 78.0015 60.4603 77.2115C60.8003 76.8215 61.3803 76.7816 61.7703 77.1216C62.1603 77.4616 62.2002 78.0414 61.8602 78.4314C60.6802 79.7814 59.4003 79.8716 59.0803 79.8716Z" fill="#97C7BC"/>
<path d="M59.7399 81.3599C59.7399 81.3599 59.6899 81.3599 59.6799 81.3599C59.1699 81.3399 58.7699 80.8997 58.7999 80.3897C58.8199 79.8797 59.27 79.4898 59.77 79.5098C59.77 79.5098 60.4399 79.4897 61.1199 78.6997C61.4599 78.3097 62.0399 78.2699 62.4299 78.6099C62.8199 78.9499 62.86 79.5297 62.52 79.9197C61.34 81.2697 60.0599 81.3599 59.7399 81.3599Z" fill="#97C7BC"/>
<path d="M61.7398 90.5805C60.8898 90.5805 60.0298 90.2305 59.4998 89.6105C58.7598 88.7505 58.7698 87.6704 58.8798 86.7404C58.9998 85.7104 59.1998 84.6305 59.4998 83.3405C59.6298 82.7705 59.7798 82.2003 59.9298 81.6303C59.9598 81.5003 60.0098 81.3704 60.0498 81.2304C60.0798 81.1504 60.1198 81.0303 60.1398 80.9303C59.7098 80.8203 59.4098 80.4203 59.4498 79.9603C59.4898 79.4503 59.9298 79.0605 60.4398 79.1005C60.8998 79.1305 61.2798 79.3904 61.6098 79.7404C61.7498 79.8404 61.8598 79.9703 61.9298 80.1303C62.1498 80.4303 62.3398 80.7504 62.5198 81.0504C62.6098 81.2004 62.6898 81.3403 62.7498 81.4203C63.8798 83.0003 64.5098 84.5903 64.6198 86.1303C64.7898 88.5003 64.1099 89.9503 62.5899 90.4303C62.3099 90.5203 62.0098 90.5604 61.7098 90.5604L61.7398 90.5805ZM61.5299 82.9003C61.4599 83.1903 61.3898 83.4804 61.3198 83.7704C61.0298 84.9904 60.8498 86.0104 60.7298 86.9704C60.6598 87.5304 60.6398 88.1003 60.9098 88.4203C61.1398 88.6903 61.6698 88.8103 62.0598 88.6903C62.2798 88.6203 62.9498 88.4104 62.7998 86.2904C62.7198 85.2104 62.2899 84.0703 61.5299 82.9003Z" fill="#97C7BC"/>
<path d="M64.6601 90.4414C64.0501 90.4414 63.4301 90.2516 62.8501 89.8716C62.4201 89.5916 62.3001 89.0216 62.5801 88.5916C62.8601 88.1616 63.4301 88.0415 63.8601 88.3215C64.7101 88.8715 65.2501 88.4315 65.4301 88.2915C66.7801 87.1915 66.2501 86.1114 63.4401 82.4014C62.9501 81.7514 62.4201 81.0515 61.8901 80.3115C61.5901 79.8915 61.6901 79.3215 62.1001 79.0215C62.5201 78.7215 63.0901 78.8215 63.3901 79.2315C63.9201 79.9615 64.4301 80.6515 64.9201 81.2915C67.3801 84.5515 69.5101 87.3715 66.6001 89.7415C66.0201 90.2215 65.3501 90.4614 64.6601 90.4614V90.4414Z" fill="#97C7BC"/>
<path d="M59.7602 77.6004C59.4102 77.6004 59.1002 77.3703 59.0102 77.0103L57.8702 72.4502C57.7702 72.0402 58.0202 71.6203 58.4302 71.5103C58.8402 71.4103 59.2602 71.6604 59.3702 72.0704L60.5102 76.6302C60.6102 77.0402 60.3602 77.4604 59.9502 77.5704C59.8902 77.5904 59.8202 77.5904 59.7602 77.5904V77.6004Z" fill="#97C7BC"/>
<path d="M59.4899 78.2412C59.2699 78.2412 59.0499 78.1411 58.8899 77.9611L55.8999 74.3313C55.6299 74.0013 55.6799 73.5112 55.9999 73.2412C56.3299 72.9712 56.8199 73.0213 57.0899 73.3413L60.0799 76.9712C60.3499 77.3012 60.2999 77.7912 59.9799 78.0612C59.8399 78.1812 59.6599 78.2412 59.4899 78.2412Z" fill="#97C7BC"/>
<path d="M52.8999 10.4718C54.3699 13.7918 58.8499 16.2118 64.1499 16.2118C69.1499 16.2118 73.4199 14.0619 75.1199 11.0319C72.8999 10.1619 70.5499 9.51173 68.0899 9.14173C62.8099 8.34173 57.6399 8.8718 52.8999 10.4718Z" fill="#9EC3D7"/>
<path d="M66.3998 9.76214C65.1798 9.89214 63.6898 9.94218 62.4898 9.80218C61.6198 9.70218 61.0198 9.47218 60.9898 8.55218C60.9598 7.82218 61.5898 6.50203 62.0898 5.90203C62.6398 5.24203 63.3898 4.68209 64.3998 4.71209C67.3298 4.81209 67.7798 8.7821 67.6098 9.2221C67.4898 9.5421 67.0098 9.69214 66.3898 9.76214H66.3998Z" fill="black"/>
<path d="M33.9399 27.2505L38.08 29.9104C42.72 20.2304 49.4 16.9604 49.4 16.9604C49.4 16.9604 47.64 15.2405 46.03 13.7305C40.87 16.9605 36.6299 21.6205 33.9399 27.2505Z" fill="black"/>
<path d="M92.5098 27.2036L88.3698 29.8638C83.7298 20.1838 77.0498 16.9136 77.0498 16.9136C77.0498 16.9136 78.8098 15.1936 80.4198 13.6836C85.5798 16.9136 89.8198 21.5736 92.5098 27.2036Z" fill="black"/>
<path d="M87.85 49.5994C80.76 53.7194 62.4901 60.1292 62.4901 60.1292C62.4901 60.1292 44.35 52.8994 37.54 47.8594V50.9392C44.36 55.9892 62.4901 63.2092 62.4901 63.2092C62.4901 63.2092 81.04 57.0092 87.85 51.9592V49.5994Z" fill="white"/>
<path d="M62.4799 63.3999L62.4199 63.3799C62.2399 63.3099 44.1799 56.0901 37.4299 51.0801L37.3599 51.03V47.5L37.6499 47.71C44.1699 52.54 61.3199 59.4599 62.4999 59.9299C63.6999 59.5099 80.9799 53.3799 87.7699 49.4399L88.0399 49.28V52.05L87.9698 52.1001C81.2098 57.1001 62.7399 63.3099 62.5599 63.3799L62.4999 63.3999H62.4799ZM37.7099 50.8401C44.2899 55.6601 61.3199 62.54 62.4899 63.01C63.6799 62.61 81.0899 56.6801 87.6699 51.8601V49.8999C80.4599 53.9899 62.7299 60.22 62.5499 60.29L62.4899 60.3101L62.4299 60.28C62.2499 60.21 44.6998 53.19 37.7198 48.2V50.8301L37.7099 50.8401Z" fill="#B4B4B5"/>
<path d="M87.85 51.9614C81.03 57.0114 62.4901 63.2114 62.4901 63.2114C62.4901 63.2114 44.35 55.9814 37.54 50.9414V54.0215C44.36 59.0715 62.4901 66.2915 62.4901 66.2915C62.4901 66.2915 81.04 60.0915 87.85 55.0415V51.9614Z" fill="#007976"/>
<path d="M32.8298 43.7524L17.6298 29.4023C17.6298 29.4023 10.3798 41.6425 5.97978 47.6125C1.57978 53.5825 -0.560202 56.9925 0.439798 60.1125C1.4298 63.2425 2.70977 66.9324 11.6598 70.9124C20.6098 74.8924 24.8698 74.6025 24.8698 74.6025L32.8298 43.7524Z" fill="#007976"/>
<path d="M32.8298 43.75L42.4897 50.1399C42.4897 50.1399 45.1897 71.76 44.9097 83.27C44.6297 94.78 44.0598 99.8899 44.0598 99.8899C44.0598 99.8899 39.5097 101.31 32.9797 101.17C26.2697 101.02 20.7598 100.18 20.7598 100.18L25.0198 72.47L32.8298 43.75Z" fill="#B0BCAB"/>
<path d="M32.8298 43.7508C32.8298 43.7508 20.7598 28.8407 19.5398 30.6807C15.8798 36.1807 5.97978 47.6109 5.97978 47.6109C1.57978 53.5809 -0.560202 56.9909 0.439798 60.1109C1.4298 63.2409 2.70977 66.9307 11.6598 70.9107C20.6098 74.8907 24.8698 74.6009 24.8698 74.6009L32.8298 43.7508Z" fill="#B0BCAB"/>
<path d="M39.2596 48.0107L37.0596 46.5508C39.8896 58.9308 40.4996 84.5406 38.9196 100.881C39.6096 100.801 40.2396 100.711 40.8096 100.611C42.2896 84.8108 41.8296 61.1607 39.2696 48.0107H39.2596Z" fill="#1A2B5B"/>
<path d="M35.22 45.3303L33.0801 43.9102C35.2401 54.4002 35.3301 81.0102 34.1301 101.18C34.7801 101.18 35.3901 101.16 35.9901 101.13C37.1501 81.5401 37.11 56.9903 35.22 45.3303Z" fill="#B27915"/>
<path d="M31.8701 47.2812L30.4001 52.6711C31.1501 67.3511 30.12 88.9712 29.54 101.031C30.14 101.061 30.7601 101.091 31.3901 101.121C32.0501 87.5013 33.2601 61.7413 31.8701 47.2812Z" fill="#1A2B5B"/>
<path d="M26.5198 66.9089C25.9398 78.8789 25.0798 92.0391 24.2998 100.609C24.8598 100.669 25.4798 100.729 26.1398 100.789C27.0998 90.1691 28.1898 72.5391 28.7198 58.7891L26.5098 66.9089H26.5198Z" fill="#B27915"/>
<path d="M21.59 31.4905C18.47 36.6505 6.22992 53.9206 0.669922 60.8506C0.879922 61.4806 1.12991 62.1305 1.46991 62.8005C6.65991 56.4705 19.3499 38.6105 22.9999 32.7305C22.4999 32.2505 22.0199 31.8305 21.5999 31.4805L21.59 31.4905Z" fill="#1A2B5B"/>
<path d="M25.2501 35.0195C21.9201 40.5595 8.31014 60.3196 3.64014 65.8196C4.04014 66.2296 4.50014 66.6396 5.02014 67.0596C9.72014 61.5296 22.6801 42.7494 26.5601 36.4294C26.1201 35.9494 25.6901 35.4795 25.2501 35.0195Z" fill="#B27915"/>
<path d="M28.35 38.4414C25.2 43.9514 12.87 62.8115 8 69.0615C8.51 69.3515 9.06997 69.6514 9.65997 69.9514C14.65 63.4814 25.99 46.1414 29.63 39.9214C29.22 39.4414 28.79 38.9514 28.35 38.4414Z" fill="#1A2B5B"/>
<path d="M30.9299 41.4492C28.2099 47.0892 18.7199 64.2994 13.9399 71.8594C14.5499 72.1094 15.14 72.3293 15.71 72.5393C20.44 65.0093 29.0799 49.3593 32.2299 43.0093C31.8999 42.6093 31.4599 42.0792 30.9299 41.4492Z" fill="#B27915"/>
<path d="M31.6797 48.2109C28.5697 55.1209 22.9898 66.7009 19.2798 73.6909C19.9598 73.8809 20.5798 74.0309 21.1398 74.1509C23.4798 69.7209 26.4698 63.6811 29.1298 58.0911L31.6797 48.2209V48.2109Z" fill="#1A2B5B"/>
<path d="M99.3001 51.3809C103.19 55.5309 106.56 56.7609 113.41 63.9109C118.09 68.8009 119.31 70.421 118.8 71.241C117.44 73.421 110.31 78.1311 108.98 82.8311C107.65 87.5311 109.8 88.6909 106.25 91.9709C102.7 95.2509 93.8701 93.9711 93.5701 91.8311C92.9601 87.4311 90.6001 75.6709 92.0701 62.9209C92.8401 56.2109 99.3001 51.3711 99.3001 51.3711V51.3809Z" fill="#B0BCAB"/>
<path d="M117.59 68.5002C117.25 68.0802 116.85 67.6103 116.37 67.0703C111.45 70.0403 101 78.2403 101.84 93.8103C102.47 93.7203 103.09 93.5801 103.67 93.3901C103.04 78.7301 113.14 71.1202 117.6 68.4902L117.59 68.5002Z" fill="#1A2B5B"/>
<path d="M114.22 64.759C113.96 64.489 113.7 64.2089 113.42 63.9189C113.24 63.7289 113.07 63.5589 112.89 63.3789C104.79 67.8889 95.6799 78.3789 96.5199 93.6289C97.0999 93.7589 97.7299 93.8589 98.3899 93.9189C97.4099 79.0189 106.43 68.899 114.23 64.769L114.22 64.759Z" fill="#B27915"/>
<path d="M110.57 61.0796C110.08 60.6096 109.6 60.1795 109.15 59.7695C103.31 63.3195 94.55 70.8095 92.5 84.4695C92.84 87.0895 93.2 89.2696 93.44 90.8496H93.9C93.78 73.5596 104.26 64.7896 110.57 61.0796Z" fill="#1A2B5B"/>
<path d="M106.79 57.751C106.23 57.291 105.69 56.8609 105.18 56.4609C99.6599 59.3409 93.9999 65.3409 91.6099 71.9109C91.6099 73.7309 91.6799 75.4909 91.7899 77.1709L92.3099 77.2109C92.9099 68.7809 100.54 60.731 106.79 57.751Z" fill="#B27915"/>
<path d="M102.16 54.0608C101.68 53.6608 101.2 53.2408 100.72 52.8008C97.2897 55.0208 94.4397 58.0406 92.4297 61.1406C92.2697 61.7206 92.1398 62.3107 92.0698 62.9307C91.9298 64.1807 91.8197 65.4206 91.7397 66.6406C93.1997 62.5106 96.8998 57.2708 102.15 54.0608H102.16Z" fill="#1A2B5B"/>
<path d="M95.3099 46.0703L79.9198 53.0403C79.9198 53.0403 77.2199 71.7603 77.4999 83.2703C77.7799 94.7803 78.3498 99.8901 78.3498 99.8901C78.3498 99.8901 82.8998 101.31 89.4298 101.17C96.1398 101.02 95.6098 100.18 95.6098 100.18C95.6098 100.18 91.6199 81.2002 91.8299 72.0002C92.0399 62.8002 99.2898 51.3901 99.2898 51.3901L95.2898 46.0803L95.3099 46.0703Z" fill="#B0BCAB"/>
<path d="M84.6298 50.9023L82.5998 51.8225C80.6098 65.3825 80.3598 86.2623 81.7098 100.632C82.2798 100.722 82.9098 100.812 83.5998 100.902C82.1898 86.2923 82.5198 64.2724 84.6298 50.9124V50.9023Z" fill="#1A2B5B"/>
<path d="M88.6696 49.0742L86.7096 49.9641C85.4196 62.7141 85.5196 83.854 86.5296 101.134C87.1296 101.164 87.7396 101.184 88.3896 101.184C87.3596 83.7741 87.2796 61.5842 88.6696 49.0842V49.0742Z" fill="#B27915"/>
<path d="M92.9298 47.1523L90.9798 48.0325C89.6598 62.0425 90.4298 85.9426 91.1298 101.113C91.8598 101.073 92.4698 101.032 92.9798 100.982C92.7198 95.4724 92.4098 87.6225 92.2498 79.2925C91.9698 76.5825 91.8098 74.0424 91.8498 71.9924C91.8698 71.0324 91.9698 70.0525 92.1298 69.0625C92.1198 60.8725 92.3198 52.9923 92.9298 47.1523Z" fill="#1A2B5B"/>
<path d="M96.9397 48.2432L95.3297 46.1133C94.7197 50.7033 94.3397 55.9732 94.1597 61.7632C94.8097 60.0632 95.5197 58.4632 96.2097 57.0432C96.3797 53.9132 96.6197 50.9632 96.9297 48.2432H96.9397Z" fill="#B27915"/>
<path d="M85.22 68.4409C88.346 68.4409 90.8801 65.9069 90.8801 62.781C90.8801 59.6551 88.346 57.1211 85.22 57.1211C82.0941 57.1211 79.5601 59.6551 79.5601 62.781C79.5601 65.9069 82.0941 68.4409 85.22 68.4409Z" fill="white"/>
<path d="M86.7003 60.144L84.2903 62.7041L86.7603 65.3643L85.1903 66.4641L81.8403 62.6941C82.5303 61.9041 83.9403 60.2542 85.1903 59.0742L86.7103 60.134L86.7003 60.144Z" fill="black"/>
<path d="M87.47 63.9436C87.05 63.9436 86.75 63.5938 86.54 63.3638C86.29 63.0938 85.96 62.8036 85.79 62.6936C85.79 62.6936 85.79 62.6936 85.79 62.6836C85.96 62.5736 86.3 62.2837 86.54 62.0137C86.74 61.7937 87.05 61.4336 87.47 61.4336C87.86 61.4336 88.1501 61.7137 88.1501 62.0537C88.1501 62.2537 88.0801 62.5136 87.7501 62.6836C87.7501 62.6836 87.7501 62.6836 87.7501 62.6936C88.0801 62.8536 88.1501 63.1137 88.1501 63.3237C88.1501 63.6637 87.85 63.9436 87.47 63.9436Z" fill="#AD8B0A"/>
<path d="M85.2203 67.9329C82.3803 67.9329 80.0703 65.623 80.0703 62.783C80.0703 59.943 82.3803 57.6328 85.2203 57.6328C88.0603 57.6328 90.3703 59.943 90.3703 62.783C90.3703 65.623 88.0603 67.9329 85.2203 67.9329ZM85.2203 58.613C82.9203 58.613 81.0503 60.483 81.0503 62.783C81.0503 65.083 82.9203 66.9529 85.2203 66.9529C87.5203 66.9529 89.3903 65.083 89.3903 62.783C89.3903 60.483 87.5203 58.613 85.2203 58.613Z" fill="#AD8B0A"/>
<path d="M36.58 68.4409C39.7059 68.4409 42.2399 65.9069 42.2399 62.781C42.2399 59.6551 39.7059 57.1211 36.58 57.1211C33.454 57.1211 30.9199 59.6551 30.9199 62.781C30.9199 65.9069 33.454 68.4409 36.58 68.4409Z" fill="white"/>
<path d="M38.0597 60.144L35.6497 62.7041L38.1197 65.3643L36.5497 66.4641L33.1997 62.6941C33.8897 61.9041 35.2997 60.2542 36.5497 59.0742L38.0697 60.134L38.0597 60.144Z" fill="black"/>
<path d="M38.8397 63.9436C38.4197 63.9436 38.1197 63.5938 37.9097 63.3638C37.6597 63.0938 37.3297 62.8036 37.1597 62.6936C37.1597 62.6936 37.1597 62.6936 37.1597 62.6836C37.3297 62.5736 37.6697 62.2837 37.9097 62.0137C38.1097 61.7937 38.4197 61.4336 38.8397 61.4336C39.2297 61.4336 39.5197 61.7137 39.5197 62.0537C39.5197 62.2537 39.4497 62.5136 39.1197 62.6836C39.1197 62.6836 39.1197 62.6836 39.1197 62.6936C39.4497 62.8536 39.5197 63.1137 39.5197 63.3237C39.5197 63.6637 39.2197 63.9436 38.8397 63.9436Z" fill="#AD8B0A"/>
<path d="M36.5797 67.9329C33.7397 67.9329 31.4297 65.623 31.4297 62.783C31.4297 59.943 33.7397 57.6328 36.5797 57.6328C39.4197 57.6328 41.7297 59.943 41.7297 62.783C41.7297 65.623 39.4197 67.9329 36.5797 67.9329ZM36.5797 58.613C34.2797 58.613 32.4097 60.483 32.4097 62.783C32.4097 65.083 34.2797 66.9529 36.5797 66.9529C38.8797 66.9529 40.7497 65.083 40.7497 62.783C40.7497 60.483 38.8797 58.613 36.5797 58.613Z" fill="#AD8B0A"/>
</svg>
