<svg width="449" height="364" viewBox="0 0 449 364" fill="none" xmlns="http://www.w3.org/2000/svg">
<path d="M248.62 218.192L313.35 217.192C313.35 217.192 361.15 208.232 376.09 210.222C381.07 214.202 382.07 245.072 382.07 245.072C382.07 245.072 409.95 290.882 416.92 306.812C423.89 322.742 426.88 328.722 426.88 328.722L443.81 343.662C431.86 365.572 322.98 363.582 301.07 363.582C279.16 363.582 222.07 363.582 222.07 363.582C222.07 363.582 164.97 363.582 143.07 363.582C121.17 363.582 12.2801 365.572 0.330078 343.662L17.2601 328.722C17.2601 328.722 20.2501 322.742 27.2201 306.812C34.1901 290.882 62.0701 245.072 62.0701 245.072C62.0701 245.072 63.0701 214.202 68.0501 210.222C82.9901 208.232 130.79 217.192 130.79 217.192L195.52 218.192H248.63H248.62Z" fill="#E73828"/>
<path d="M374.84 276.032C391.32 278.712 405.6 284.902 406.26 295.522C406.92 306.142 391.65 314.772 378.38 316.762C365.1 318.752 257.92 323.762 238.81 322.582H210.93C191.83 323.762 84.6403 318.752 71.3603 316.762C58.0803 314.772 42.8103 306.142 43.4803 295.522C44.1403 284.902 58.7503 280.252 74.9003 276.032C74.9003 276.032 324.47 267.822 374.85 276.032H374.84Z" fill="#8F221A"/>
<path d="M188.57 77.4124C171.98 84.1224 153.21 76.5324 146.72 60.4824C140.23 44.4324 148.44 25.9324 165.03 19.2124C181.61 12.5024 200.39 20.0924 206.88 36.1424C213.37 52.1824 205.15 70.7024 188.57 77.4024V77.4124Z" fill="white"/>
<path d="M188.57 77.4124C171.98 84.1224 153.21 76.5324 146.72 60.4824C140.23 44.4324 148.44 25.9324 165.03 19.2124C181.61 12.5024 200.39 20.0924 206.88 36.1424C213.37 52.1824 205.15 70.7024 188.57 77.4024V77.4124ZM167.76 25.9624C154.89 31.1624 148.48 45.4224 153.47 57.7524C158.46 70.0724 172.98 75.8624 185.84 70.6624C198.71 65.4524 205.12 51.2024 200.13 38.8724C195.15 26.5524 180.62 20.7624 167.76 25.9624Z" fill="#005AAF"/>
<path d="M185.83 73.0639C176.17 76.9739 165.22 72.5239 161.42 63.1439C157.63 53.7639 162.4 42.9539 172.07 39.0439C181.73 35.1339 192.69 39.5838 196.48 48.9638C200.27 58.3438 195.49 69.1539 185.83 73.0639ZM174.8 45.7939C168.85 48.1939 165.88 54.7539 168.17 60.4139C170.46 66.0739 177.16 68.7239 183.1 66.3139C189.05 63.9039 192.02 57.3538 189.73 51.6938C187.44 46.0338 180.74 43.3839 174.8 45.7939Z" fill="#005AAF"/>
<path d="M258.33 74.9519C241.31 69.4319 231.81 51.5419 237.15 35.0819C242.49 18.6219 260.68 9.71194 277.7 15.2419C294.72 20.7619 304.22 38.6519 298.88 55.1119C293.54 71.5719 275.35 80.4719 258.33 74.9519Z" fill="white"/>
<path d="M258.33 74.9519C241.31 69.4319 231.81 51.5419 237.15 35.0819C242.49 18.6219 260.68 9.71194 277.7 15.2419C294.72 20.7619 304.22 38.6519 298.88 55.1119C293.54 71.5719 275.35 80.4719 258.33 74.9519ZM275.46 22.162C262.26 17.882 248.18 24.6819 244.08 37.3219C239.98 49.9719 247.38 63.742 260.58 68.022C273.78 72.302 287.86 65.5019 291.96 52.8519C296.06 40.2119 288.66 26.432 275.46 22.152V22.162Z" fill="#005AAF"/>
<path d="M259.02 69.8633C249.1 66.6533 243.58 56.2033 246.7 46.5833C249.82 36.9633 260.43 31.7533 270.35 34.9633C280.26 38.1833 285.79 48.6233 282.67 58.2533C279.55 67.8733 268.94 73.0933 259.02 69.8633ZM268.1 41.8833C262 39.9033 255.51 43.0133 253.62 48.8233C251.73 54.6333 255.16 60.9633 261.27 62.9433C267.37 64.9233 273.86 61.8133 275.75 56.0033C277.63 50.2033 274.2 43.8633 268.1 41.8833Z" fill="#005AAF"/>
<path d="M302.75 207.189C305.46 181.829 325.59 179.499 328.03 156.709C334.2 98.8993 292.34 47.0193 234.52 40.8493C176.71 34.6793 124.83 76.5393 118.66 134.359C115.2 166.769 126.84 197.299 147.91 218.979C142.73 228.689 139.27 239.519 138.03 251.139" fill="white"/>
<path d="M169.28 254.43C171.41 234.5 183.67 218.14 200.34 209.74C206.65 219.43 216.89 226.43 229.33 227.76C251.11 230.08 270.65 214.29 272.98 192.5C275.31 170.65 259.54 151.1 237.76 148.78C218.16 146.69 200.52 159.27 195.4 177.63C185.17 181.43 175.71 186.98 167.6 194.12C154.17 178.74 147.66 158.53 149.87 137.78C154.2 97.2502 190.65 67.8102 231.18 72.1302C271.7 76.4602 301.15 112.93 296.82 153.46C296.23 159.16 294.93 164.74 293.1 170.1C290.23 178.28 294.49 187.27 302.72 190.12C310.91 193.02 319.9 188.67 322.76 180.46C325.45 172.88 327.22 164.88 328.09 156.8C334.26 99.0003 292.26 47.0002 234.52 40.8402C176.76 34.6702 124.75 76.6403 118.58 134.43C115.21 166 126.05 196.72 147.81 219.06C142.69 228.74 139.26 239.5 138.03 251.07L182.38 256.4L302.76 207.17" fill="white"/>
<path d="M138.02 251.09C139.26 239.51 142.68 228.76 147.8 219.08C126.04 196.74 115.2 166.02 118.57 134.45C124.74 76.6498 176.76 34.6898 234.51 40.8598C292.25 47.0198 334.25 99.0198 328.08 156.82C327.22 164.91 325.44 172.9 322.75 180.48C319.89 188.69 310.9 193.03 302.71 190.14C294.48 187.28 290.22 178.3 293.09 170.12C294.92 164.76 296.22 159.18 296.81 153.48C301.14 112.95 271.69 76.4699 231.17 72.1499C190.64 67.8199 154.18 97.2599 149.86 137.8C147.65 158.54 154.16 178.75 167.59 194.14C185.48 178.4 209.68 169.9 235.23 172.63C243.83 173.55 250.06 181.32 249.14 189.98C248.22 198.64 240.49 204.85 231.89 203.93C200.66 200.6 172.61 223.26 169.28 254.45L138.02 251.11V251.09Z" fill="#005AAF"/>
<path d="M272.98 192.51C270.65 214.29 251.11 230.09 229.33 227.77C207.49 225.44 191.72 205.87 194.04 184.09C196.37 162.24 215.92 146.46 237.76 148.8C259.54 151.12 275.31 170.67 272.98 192.52V192.51Z" fill="#F0B400"/>
<path d="M198.69 90.3807C199.31 92.1807 197.49 94.4207 194.64 95.4007C191.79 96.3807 188.98 95.7108 188.36 93.9208C187.74 92.1208 189.56 89.8807 192.41 88.9007C195.26 87.9207 198.07 88.5907 198.68 90.3807H198.69Z" fill="#005AAF"/>
<path d="M261.07 95.2924C260.39 97.0624 257.55 97.6224 254.74 96.5324C251.93 95.4524 250.2 93.1324 250.88 91.3624C251.56 89.5924 254.4 89.0324 257.21 90.1124C260.02 91.1924 261.75 93.5124 261.07 95.2824V95.2924Z" fill="#005AAF"/>
<path d="M223.61 138.742C223.05 138.682 222.51 138.482 222.03 138.142L194.33 118.172C193.45 117.542 192.94 116.512 192.96 115.432C192.98 114.352 193.53 113.352 194.43 112.752L222.85 93.8318C223.99 93.0718 225.49 93.1019 226.61 93.9019L254.31 113.872C255.19 114.502 255.7 115.532 255.68 116.612C255.66 117.692 255.11 118.692 254.21 119.292L225.79 138.212C225.13 138.652 224.36 138.822 223.61 138.742ZM202.05 115.602L224.03 131.452L246.59 116.432L224.61 100.582L202.05 115.602Z" fill="#005AAF"/>
<path d="M195.91 118.77C194.23 118.59 192.93 117.15 192.97 115.43C193 113.61 194.51 112.16 196.33 112.2L252.45 113.25C254.27 113.29 255.72 114.79 255.68 116.61C255.65 118.43 254.14 119.88 252.32 119.84L196.2 118.79C196.1 118.79 196 118.79 195.91 118.77Z" fill="#005AAF"/>
<path d="M304.39 193.96C282.26 210.34 222.07 226.91 222.07 226.91C222.07 226.91 163.2 207.02 141.07 190.64C141.07 190.64 140.24 187.75 136.86 199.34C130.4 221.48 130 255.72 130.4 266.79C132.24 317.52 141.93 312.46 141.93 312.46C154.38 315.69 195.89 319.58 232.78 319.12C257.75 318.81 300.57 314.97 307.49 313.12C307.49 313.12 308.41 311.51 310.72 266.78C313.03 222.05 310.41 202.34 304.38 193.95L304.39 193.96Z" fill="#1A2B5B"/>
<path d="M230.031 269.441C228.431 269.441 227.091 268.171 227.031 266.551C226.961 264.891 228.26 263.491 229.92 263.431C240.64 263.001 261.19 257.251 274.79 250.881C276.29 250.181 278.09 250.821 278.79 252.331C279.49 253.841 278.851 255.631 277.341 256.331C262.901 263.101 241.731 268.991 230.151 269.451C230.111 269.451 230.071 269.451 230.031 269.451V269.441Z" fill="#97C7BC"/>
<path d="M210.28 269.004C210.28 269.004 210.2 269.004 210.16 269.004C198.65 268.544 175.91 262.204 161.48 255.444C159.97 254.744 159.33 252.954 160.03 251.444C160.73 249.934 162.53 249.294 164.03 249.994C177.63 256.364 199.73 262.564 210.4 262.994C212.06 263.064 213.35 264.464 213.29 266.124C213.23 267.744 211.89 269.014 210.29 269.014L210.28 269.004Z" fill="#97C7BC"/>
<path d="M219.631 273.874C219.251 273.874 218.86 273.804 218.49 273.654C216.95 273.024 216.211 271.274 216.841 269.734C217.091 269.084 217.6 266.994 216.79 265.454C216.18 264.294 214.831 263.444 212.781 262.954C211.161 262.564 210.17 260.944 210.56 259.324C210.95 257.714 212.561 256.714 214.191 257.104C218.041 258.034 220.72 259.934 222.16 262.744C224.34 267.004 222.61 271.514 222.41 272.014C221.93 273.184 220.811 273.884 219.631 273.884V273.874Z" fill="#97C7BC"/>
<path d="M226.49 272.762C226.08 272.762 225.65 272.672 225.25 272.492C223.74 271.802 223.07 270.022 223.76 268.512C224.1 267.742 224.79 265.362 223.88 263.852C222.94 262.302 220.35 261.822 218.34 261.692C216.68 261.582 215.43 260.152 215.54 258.492C215.65 256.832 217.06 255.572 218.74 255.692C223.76 256.022 227.23 257.732 229.06 260.782C231.73 265.242 229.51 270.422 229.25 271.002C228.75 272.112 227.65 272.772 226.51 272.772L226.49 272.762Z" fill="#97C7BC"/>
<path d="M211 270.993C210.91 270.993 210.84 270.993 210.8 270.993C209.14 270.913 207.86 269.503 207.94 267.843C208.02 266.183 209.48 264.913 211.09 264.983C211.1 264.983 213.25 264.933 215.48 262.363C216.57 261.113 218.47 260.973 219.72 262.063C220.97 263.153 221.11 265.053 220.02 266.303C216.2 270.693 212.04 270.993 211 270.993Z" fill="#97C7BC"/>
<path d="M213.16 275.8C213.07 275.8 213 275.8 212.96 275.8C211.3 275.72 210.02 274.31 210.1 272.65C210.18 270.99 211.63 269.72 213.25 269.79C213.26 269.79 215.41 269.74 217.64 267.17C218.73 265.92 220.63 265.78 221.88 266.88C223.13 267.97 223.27 269.871 222.17 271.121C218.35 275.511 214.19 275.8 213.15 275.8H213.16Z" fill="#97C7BC"/>
<path d="M219.65 305.733C216.88 305.733 214.1 304.593 212.39 302.603C209.99 299.803 210.03 296.323 210.39 293.283C210.78 289.943 211.43 286.443 212.41 282.243C212.84 280.393 213.31 278.543 213.79 276.693C213.9 276.283 214.04 275.843 214.19 275.393C214.28 275.123 214.4 274.753 214.5 274.423C213.12 274.073 212.14 272.763 212.25 271.283C212.37 269.633 213.79 268.363 215.47 268.503C216.96 268.613 218.21 269.453 219.28 270.593C219.73 270.903 220.1 271.343 220.33 271.863C221.04 272.823 221.67 273.883 222.25 274.853C222.55 275.353 222.8 275.783 223.01 276.063C226.69 281.203 228.73 286.343 229.09 291.343C229.64 299.053 227.43 303.743 222.5 305.303C221.58 305.593 220.62 305.733 219.65 305.733ZM218.95 280.793C218.72 281.733 218.48 282.673 218.27 283.613C217.34 287.593 216.74 290.883 216.37 293.993C216.15 295.823 216.08 297.653 216.96 298.693C217.72 299.573 219.43 299.973 220.69 299.583C221.41 299.353 223.58 298.673 223.09 291.793C222.84 288.293 221.45 284.603 218.96 280.803L218.95 280.793Z" fill="#97C7BC"/>
<path d="M229.13 305.302C227.16 305.302 225.15 304.692 223.25 303.462C221.86 302.562 221.46 300.692 222.36 299.302C223.26 297.902 225.13 297.512 226.52 298.412C229.29 300.212 231.04 298.782 231.61 298.312C235.98 294.752 234.27 291.242 225.16 279.182C223.56 277.062 221.85 274.802 220.11 272.382C219.14 271.032 219.45 269.152 220.8 268.182C222.15 267.212 224.03 267.522 225 268.872C226.7 271.252 228.38 273.472 229.95 275.552C237.95 286.132 244.86 295.272 235.41 302.972C233.51 304.522 231.34 305.292 229.12 305.292L229.13 305.302Z" fill="#97C7BC"/>
<path d="M213.21 263.632C212.09 263.632 211.07 262.872 210.78 261.732L207.08 246.922C206.74 245.582 207.56 244.222 208.9 243.882C210.24 243.552 211.6 244.362 211.94 245.702L215.64 260.512C215.98 261.852 215.16 263.212 213.82 263.552C213.62 263.602 213.41 263.632 213.21 263.632Z" fill="#97C7BC"/>
<path d="M212.33 265.681C211.61 265.681 210.89 265.371 210.4 264.771L200.68 253.001C199.8 251.931 199.95 250.351 201.02 249.471C202.09 248.591 203.67 248.741 204.55 249.811L214.27 261.581C215.15 262.651 215 264.231 213.93 265.111C213.46 265.501 212.9 265.681 212.34 265.681H212.33Z" fill="#97C7BC"/>
<path d="M185.44 47.3208C190.68 57.8808 205.56 65.0708 222.75 64.3208C238.96 63.6108 252.49 56.0309 257.58 45.9709C250.25 43.4509 242.54 41.7109 234.51 40.8509C217.29 39.0109 200.57 41.4608 185.43 47.3208H185.44Z" fill="#9EC3D7"/>
<path d="M229.11 43.1018C225.18 43.6918 220.35 44.0718 216.43 43.7818C213.6 43.5718 211.63 42.9318 211.4 39.9518C211.21 37.5918 213.05 33.2318 214.6 31.2118C216.29 29.0118 218.66 27.0718 221.93 27.0318C231.45 26.9318 233.48 39.7619 233 41.1819C232.64 42.2319 231.11 42.8018 229.13 43.1018H229.11Z" fill="black"/>
<path d="M126.36 104.453L140.15 112.483C153.8 80.4228 175 68.8628 175 68.8628C175 68.8628 169.05 63.5428 163.62 58.8828C147.35 70.1028 134.28 85.8228 126.36 104.453Z" fill="black"/>
<path d="M316.25 95.9403L303.22 105.15C286.8 74.4204 264.67 64.7604 264.67 64.7604C264.67 64.7604 270.13 58.9303 275.13 53.8203C292.32 63.5703 306.73 78.0703 316.25 95.9403Z" fill="black"/>
<path d="M304.39 176.293C281.37 189.683 222.07 206.903 222.07 206.903C222.07 206.903 163.2 187.013 141.07 170.633V180.633C163.2 197.013 222.07 216.903 222.07 216.903C222.07 216.903 282.26 200.333 304.39 183.953V176.293Z" fill="white"/>
<path d="M222.04 217.521L221.87 217.461C221.28 217.261 162.66 197.351 140.71 181.111L140.47 180.931V169.461L141.41 170.161C162.62 185.861 218.5 205.061 222.07 206.281C225.69 205.221 282.02 188.621 304.08 175.781L304.97 175.271V184.251L304.73 184.431C282.77 200.681 222.82 217.311 222.21 217.471L222.03 217.521H222.04ZM141.65 180.341C163.04 196.011 218.55 215.091 222.08 216.291C225.67 215.291 282.41 199.301 303.8 183.661V177.311C280.38 190.511 222.82 207.301 222.23 207.471L222.05 207.521L221.87 207.461C221.29 207.261 164.29 187.901 141.65 171.791V180.341Z" fill="#B4B4B5"/>
<path d="M304.39 183.961C282.26 200.341 222.07 216.911 222.07 216.911C222.07 216.911 163.2 197.021 141.07 180.641V190.641C163.2 207.021 222.07 226.911 222.07 226.911C222.07 226.911 282.26 210.341 304.39 193.961V183.961Z" fill="#007976"/>
<path d="M174.93 188.314L173.6 249.393L152.58 307.153L114.96 304.943C114.96 304.943 125.24 160.793 143.4 169.393C162.32 178.353 174.94 188.314 174.94 188.314H174.93Z" fill="#B0BCAB"/>
<path d="M169.48 237.121C168.86 216.701 167.56 197.881 165.69 181.851C163.76 180.601 161.58 179.231 159.14 177.781C161.3 194.591 162.78 214.991 163.46 237.301L169.47 237.121H169.48Z" fill="#1A2B5B"/>
<path d="M154.04 234.102C153.86 210.872 153.08 190.212 151.77 173.632C149.77 172.562 147.66 171.472 145.46 170.402C146.95 187.402 147.84 209.282 148.03 234.142L154.04 234.092V234.102Z" fill="#B27915"/>
<path d="M143.72 169.394C145.38 180.014 197.83 265.994 207.45 277.944C217.08 289.894 206.12 319.104 136.41 317.114C87.7401 315.724 60.5001 315.564 53.4201 291.884C45.8501 266.564 95.9101 239.434 95.9101 239.434C95.9101 239.434 97.2301 194.964 119.14 162.094L143.71 169.394H143.72Z" fill="#B0BCAB"/>
<path d="M194.17 277.272C174.96 277.662 157.22 303.392 136.42 317.122C135.4 317.062 172.01 319.392 185.55 318.122C198.51 316.912 218 306.132 216.42 298.532C213 282.022 209.78 276.952 194.17 277.272Z" fill="white"/>
<path d="M174.23 318.982C160.67 318.982 140.81 318.352 136.67 317.652L136.59 317.712H136.39V317.602C136.11 317.542 135.94 317.482 135.91 317.422L135.72 317.112L136.09 316.492H136.27C143.6 311.642 150.59 305.262 157.35 299.082C169.82 287.692 181.6 276.932 194.17 276.672C209.88 276.382 213.52 281.542 217.01 298.402C217.37 300.132 216.79 302.042 215.29 304.072C210.37 310.732 196.23 317.702 185.62 318.692C183.45 318.892 179.28 318.982 174.24 318.982H174.23ZM138.19 316.622C145.54 317.052 174 318.592 185.49 317.512C195.64 316.562 209.65 309.682 214.32 303.362C215.61 301.612 216.12 300.022 215.84 298.632C212.39 281.992 209.35 277.502 194.18 277.842C182.05 278.092 170.43 288.712 158.13 299.952C151.73 305.802 145.12 311.832 138.19 316.622Z" fill="#B4B4B5"/>
<path d="M198.83 284.912C184.96 284.502 172.27 297.192 158.33 311.132C172 314.102 183.16 313.042 194.13 312.662C203.52 312.332 216.37 304.122 216.43 298.522C216.49 292.922 214.9 285.392 198.84 284.912H198.83Z" fill="#007976"/>
<path d="M202.11 318.035C203.29 318.215 204.21 317.975 205.19 317.245C211.43 312.585 213.71 306.975 204.56 294.725L203.3 293.035C200.96 293.035 198.53 293.415 196.04 294.325C189.48 296.725 186.25 298.315 182.95 300.175C188.32 307.395 196.18 317.145 202.09 318.045L202.11 318.035Z" fill="white"/>
<path d="M200.67 327.513C204.36 328.073 207.91 327.173 210.92 324.923C220.35 317.903 222.64 308.923 217.79 298.163C215.37 296.393 212.6 294.893 209.59 293.973C214.95 301.763 219.42 312.343 207.71 321.073C198.41 328.013 186.42 313.373 178.53 302.703C177.36 303.373 176.06 304.103 174.55 304.933C181.29 314.093 190.72 326.003 200.66 327.513H200.67Z" fill="#005AAF"/>
<path d="M203.3 293.033L204.56 294.723C213.71 306.983 211.43 312.583 205.19 317.243C204.21 317.973 203.29 318.213 202.11 318.033C196.19 317.133 188.33 307.383 182.97 300.163C181.59 300.943 180.2 301.763 178.55 302.703C186.44 313.373 198.43 328.013 207.73 321.073C219.44 312.343 214.96 301.753 209.61 293.973C207.61 293.363 205.5 293.023 203.31 293.023L203.3 293.033Z" fill="#005AAF"/>
<path d="M132.07 301.924C126.06 307.934 118.68 312.724 111.93 316.324C115.5 316.474 119.23 316.604 123.13 316.724C127.72 313.724 132.29 310.214 136.33 306.174C169.96 272.544 186.78 266.464 199.19 266.004C198.04 264.244 196.82 262.364 195.53 260.344C180.88 261.964 163.4 270.594 132.07 301.914V301.924Z" fill="#1A2B5B"/>
<path d="M86.4803 297.254C100.15 290.644 117.16 282.424 123.63 275.034C145.92 249.604 165.68 240.604 181.67 238.154C180.56 236.344 179.44 234.514 178.32 232.664C160.44 235.814 140.96 246.124 119.1 271.074C113.44 277.534 96.3402 285.804 83.8602 291.844C79.9902 293.714 76.4203 295.444 73.5103 296.944C68.1703 299.704 64.0603 302.264 61.2603 304.544C62.7903 305.904 64.5102 307.104 66.4102 308.164C68.4402 306.694 71.5302 304.744 76.2802 302.284C79.1502 300.804 82.6603 299.104 86.4803 297.254Z" fill="#1A2B5B"/>
<path d="M82.62 278.333C94.35 273.383 108.94 267.233 115.72 259.033C127.88 244.333 142.63 226.493 174.12 225.693C172.84 223.553 171.56 221.413 170.29 219.273C153.87 219.983 134.52 226.853 111.08 255.203C105.25 262.263 91.4 268.103 80.28 272.793C77.95 273.773 75.72 274.714 73.68 275.614C65.51 279.214 58.07 284.383 52.79 288.513C52.91 289.643 53.09 290.763 53.43 291.883C53.74 292.923 54.11 293.914 54.5 294.864C59.5 290.774 67.45 284.934 76.11 281.114C78.13 280.224 80.32 279.293 82.62 278.333Z" fill="#B27915"/>
<path d="M111.17 238.862C123.14 225.992 137.49 210.602 164.29 209.072C163.03 206.892 161.8 204.762 160.6 202.672C145.7 204.222 128.18 211.742 106.77 234.762C98.5898 243.552 82.1998 252.762 70.9298 256.962C66.6398 260.732 62.5498 264.912 59.3198 269.342C63.4498 266.872 68.1398 264.422 73.0198 262.602C84.9398 258.162 102.36 248.322 111.17 238.852V238.862Z" fill="#1A2B5B"/>
<path d="M100.67 224.752C121.24 199.872 139.16 193.182 154.74 192.272C153.63 190.252 152.58 188.322 151.59 186.492C136.11 188.042 118.18 195.272 98.3598 218.172C97.6598 222.182 97.1598 225.792 96.7998 228.862C98.0598 227.692 99.3398 226.352 100.66 224.742L100.67 224.752Z" fill="#B27915"/>
<path d="M143.91 170.133C132.8 171.143 120.51 175.303 107.13 185.813C105.68 189.613 104.41 193.393 103.3 197.093C119.33 181.843 133.57 176.723 146.26 175.993C145.07 173.433 144.26 171.453 143.91 170.143V170.133Z" fill="#1A2B5B"/>
<path d="M134.46 285.174C136.94 282.984 139.45 280.754 142.02 278.534C162.21 261.084 176.61 253.924 189.7 251.144C188.6 249.384 187.47 247.584 186.33 245.734C172.92 248.984 158.16 256.634 138.09 273.984C135.5 276.224 132.97 278.464 130.48 280.674C118.4 291.374 106.99 301.474 94.3399 306.074C86.7499 308.834 80.7599 310.854 76.6499 312.184C80.2399 313.164 84.2399 313.914 88.6099 314.504C90.9699 313.684 93.5699 312.754 96.3899 311.734C110.11 306.744 121.94 296.274 134.46 285.184V285.174Z" fill="#B27915"/>
<path d="M269.2 188.314L270.53 249.393L291.55 307.153L329.17 304.943C329.17 304.943 318.89 160.793 300.73 169.393C281.81 178.353 269.19 188.314 269.19 188.314H269.2Z" fill="#B0BCAB"/>
<path d="M280.66 237.313C281.34 214.993 282.83 194.583 284.98 177.793C282.54 179.243 280.36 180.613 278.43 181.863C276.57 197.873 275.27 216.703 274.64 237.133L280.65 237.313H280.66Z" fill="#1A2B5B"/>
<path d="M296.1 234.142C296.29 209.272 297.18 187.402 298.67 170.402C296.47 171.482 294.37 172.562 292.36 173.632C291.05 190.212 290.26 210.872 290.09 234.102L296.1 234.152V234.142Z" fill="#B27915"/>
<path d="M300.4 169.394C298.74 180.014 246.29 265.994 236.67 277.944C227.04 289.894 238 319.104 307.71 317.114C356.38 315.724 383.62 315.564 390.7 291.884C398.27 266.564 348.21 239.434 348.21 239.434C348.21 239.434 346.89 194.964 324.98 162.094L300.41 169.394H300.4Z" fill="#B0BCAB"/>
<path d="M249.96 277.272C269.17 277.662 286.91 303.392 307.71 317.122C308.73 317.062 272.12 319.392 258.58 318.122C245.62 316.912 226.13 306.132 227.71 298.532C231.13 282.022 234.35 276.952 249.96 277.272Z" fill="white"/>
<path d="M269.9 318.984C264.86 318.984 260.69 318.893 258.52 318.693C247.91 317.703 233.77 310.734 228.85 304.074C227.35 302.044 226.77 300.133 227.13 298.403C231.08 279.353 236.01 276.393 249.97 276.673C262.54 276.933 274.32 287.694 286.79 299.084C293.55 305.264 300.54 311.644 307.87 316.504H308.03L308.42 317.114L308.23 317.423C308.19 317.483 308.03 317.544 307.76 317.604V317.704L307.57 317.714L307.47 317.653C303.35 318.353 283.47 318.984 269.9 318.984ZM248.54 277.844C234.62 277.844 231.62 282.533 228.29 298.643C228 300.033 228.51 301.624 229.81 303.374C234.48 309.694 248.49 316.574 258.64 317.524C270.14 318.604 298.6 317.063 305.94 316.633C299.01 311.853 292.4 305.814 286 299.964C273.7 288.724 262.08 278.104 249.95 277.854C249.47 277.844 249 277.844 248.54 277.844Z" fill="#B4B4B5"/>
<path d="M245.3 284.912C259.17 284.502 271.86 297.192 285.8 311.132C272.13 314.102 260.97 313.042 250 312.662C240.61 312.332 227.76 304.122 227.7 298.522C227.64 292.922 229.23 285.392 245.29 284.912H245.3Z" fill="#007976"/>
<path d="M242.02 318.035C240.84 318.215 239.92 317.975 238.94 317.245C232.7 312.585 230.42 306.975 239.57 294.725L240.83 293.035C243.17 293.035 245.6 293.415 248.09 294.325C254.65 296.725 257.88 298.315 261.18 300.175C255.81 307.395 247.95 317.145 242.04 318.045L242.02 318.035Z" fill="white"/>
<path d="M243.45 327.513C239.76 328.073 236.21 327.173 233.2 324.923C223.77 317.903 221.48 308.923 226.33 298.163C228.75 296.393 231.52 294.893 234.53 293.973C229.17 301.763 224.7 312.343 236.41 321.073C245.71 328.013 257.7 313.373 265.59 302.703C266.76 303.373 268.06 304.103 269.57 304.933C262.83 314.093 253.4 326.003 243.46 327.513H243.45Z" fill="#005AAF"/>
<path d="M240.82 293.033L239.56 294.723C230.41 306.983 232.69 312.583 238.93 317.243C239.91 317.973 240.83 318.213 242.01 318.033C247.93 317.133 255.79 307.383 261.15 300.163C262.53 300.943 263.92 301.763 265.57 302.703C257.68 313.373 245.69 328.013 236.39 321.073C224.68 312.343 229.16 301.753 234.51 293.973C236.51 293.363 238.62 293.023 240.81 293.023L240.82 293.033Z" fill="#005AAF"/>
<path d="M248.6 260.34C247.31 262.35 246.09 264.24 244.94 266C257.36 266.46 274.17 272.54 307.8 306.17C311.85 310.22 316.41 313.73 321 316.73C324.89 316.61 328.62 316.48 332.19 316.33C325.45 312.73 318.07 307.94 312.06 301.93C280.73 270.6 263.25 261.97 248.6 260.35V260.34Z" fill="#1A2B5B"/>
<path d="M360.27 291.84C347.79 285.8 330.69 277.54 325.03 271.07C303.17 246.12 283.69 235.82 265.81 232.66C264.69 234.51 263.57 236.34 262.46 238.15C278.45 240.6 298.21 249.59 320.5 275.03C326.97 282.41 343.98 290.64 357.65 297.25C361.47 299.1 364.99 300.8 367.85 302.28C372.6 304.74 375.69 306.68 377.72 308.16C379.62 307.1 381.34 305.9 382.87 304.54C380.07 302.26 375.96 299.71 370.62 296.94C367.71 295.44 364.14 293.71 360.27 291.84Z" fill="#1A2B5B"/>
<path d="M391.33 288.51C386.05 284.38 378.61 279.22 370.44 275.61C368.4 274.71 366.17 273.77 363.84 272.79C352.72 268.1 338.87 262.259 333.04 255.199C309.61 226.849 290.26 219.98 273.83 219.27C272.65 221.27 271.45 223.27 270.25 225.27C286.12 225.27 305.02 230.76 328.4 259.03C335.18 267.23 349.77 273.38 361.5 278.33C363.8 279.3 365.99 280.23 368.01 281.11C376.65 284.92 384.61 290.77 389.62 294.86C390.01 293.9 390.38 292.919 390.69 291.879C391.03 290.759 391.21 289.63 391.33 288.51Z" fill="#B27915"/>
<path d="M332.96 238.862C341.77 248.332 359.19 258.162 371.1 262.612C375.98 264.432 380.68 266.882 384.8 269.352C381.57 264.922 377.48 260.732 373.19 256.972C361.92 252.772 345.53 243.562 337.35 234.762C315.94 211.742 298.42 204.222 283.52 202.672C282.42 204.592 281.29 206.552 280.13 208.552C294.53 209.402 311.63 215.952 332.95 238.862H332.96Z" fill="#1A2B5B"/>
<path d="M343.46 224.75C344.78 226.35 346.06 227.69 347.32 228.87C346.96 225.8 346.46 222.19 345.76 218.18C325.94 195.27 308.02 188.04 292.53 186.5C291.55 188.33 290.5 190.26 289.38 192.28C304.96 193.19 322.88 199.88 343.45 224.76L343.46 224.75Z" fill="#B27915"/>
<path d="M337 185.811C323.62 175.301 311.32 171.141 300.21 170.141C299.86 171.451 299.06 173.441 297.86 175.991C310.55 176.731 324.78 181.851 340.82 197.101C339.72 193.401 338.45 189.621 336.99 185.821L337 185.811Z" fill="#1A2B5B"/>
<path d="M313.65 280.67C311.16 278.46 308.63 276.22 306.04 273.98C285.97 256.63 271.21 248.98 257.8 245.73C256.65 247.58 255.53 249.38 254.43 251.14C267.52 253.92 281.92 261.081 302.11 278.531C304.68 280.751 307.19 282.98 309.67 285.17C322.19 296.26 334.02 306.73 347.74 311.72C350.57 312.75 353.16 313.67 355.52 314.49C359.9 313.9 363.89 313.15 367.48 312.17C363.36 310.84 357.38 308.821 349.79 306.061C337.14 301.461 325.73 291.36 313.65 280.66V280.67Z" fill="#B27915"/>
<path d="M139.98 261.721C150.131 261.721 158.36 253.492 158.36 243.341C158.36 233.19 150.131 224.961 139.98 224.961C129.829 224.961 121.6 233.19 121.6 243.341C121.6 253.492 129.829 261.721 139.98 261.721Z" fill="white"/>
<path d="M144.79 234.765L136.96 243.075L144.96 251.695L139.87 255.275L128.99 243.045C131.23 240.475 135.82 235.125 139.87 231.305L144.79 234.755V234.765Z" fill="black"/>
<path d="M147.3 247.124C145.93 247.124 144.96 245.984 144.3 245.254C143.5 244.374 142.41 243.434 141.85 243.084C141.83 243.084 141.83 243.054 141.85 243.044C142.41 242.694 143.5 241.744 144.3 240.874C144.96 240.154 145.95 239.004 147.3 239.004C148.56 239.004 149.52 239.924 149.52 241.014C149.52 241.674 149.29 242.524 148.23 243.044C148.2 243.044 148.2 243.074 148.23 243.084C149.29 243.594 149.52 244.454 149.52 245.114C149.52 246.214 148.56 247.124 147.3 247.124Z" fill="#AD8B0A"/>
<path d="M139.98 260.053C130.77 260.053 123.27 252.553 123.27 243.343C123.27 234.133 130.77 226.633 139.98 226.633C149.19 226.633 156.69 234.133 156.69 243.343C156.69 252.553 149.19 260.053 139.98 260.053ZM139.98 229.793C132.51 229.793 126.43 235.873 126.43 243.343C126.43 250.813 132.51 256.893 139.98 256.893C147.45 256.893 153.53 250.813 153.53 243.343C153.53 235.873 147.45 229.793 139.98 229.793Z" fill="#AD8B0A"/>
<path d="M303.19 261.721C313.341 261.721 321.57 253.492 321.57 243.341C321.57 233.19 313.341 224.961 303.19 224.961C293.039 224.961 284.81 233.19 284.81 243.341C284.81 253.492 293.039 261.721 303.19 261.721Z" fill="white"/>
<path d="M308 234.765L300.17 243.075L308.17 251.695L303.08 255.275L292.2 243.045C294.44 240.475 299.03 235.125 303.08 231.305L308 234.755V234.765Z" fill="black"/>
<path d="M310.51 247.124C309.14 247.124 308.17 245.984 307.51 245.254C306.71 244.374 305.62 243.434 305.06 243.084C305.04 243.084 305.04 243.054 305.06 243.044C305.62 242.694 306.71 241.744 307.51 240.874C308.17 240.154 309.16 239.004 310.51 239.004C311.77 239.004 312.73 239.924 312.73 241.014C312.73 241.674 312.5 242.524 311.44 243.044C311.41 243.044 311.41 243.074 311.44 243.084C312.5 243.594 312.73 244.454 312.73 245.114C312.73 246.214 311.77 247.124 310.51 247.124Z" fill="#AD8B0A"/>
<path d="M303.19 260.053C293.98 260.053 286.48 252.553 286.48 243.343C286.48 234.133 293.98 226.633 303.19 226.633C312.4 226.633 319.9 234.133 319.9 243.343C319.9 252.553 312.4 260.053 303.19 260.053ZM303.19 229.793C295.72 229.793 289.64 235.873 289.64 243.343C289.64 250.813 295.72 256.893 303.19 256.893C310.66 256.893 316.74 250.813 316.74 243.343C316.74 235.873 310.66 229.793 303.19 229.793Z" fill="#AD8B0A"/>
<path d="M431.92 0.961792C432.14 1.06179 432.3 1.22185 432.3 1.39185C432.3 1.53185 432.23 1.77189 432.11 2.06189C432.01 2.35189 431.89 3.38187 431.89 4.41187C431.89 5.95187 431.94 7.67184 432.32 9.88184C432.66 11.7818 433.28 13.4119 434.29 13.4119C435.06 13.4119 435.66 12.5718 436.59 10.0718C437.12 10.9118 437.65 11.4619 438.13 11.9219C438.42 12.1819 438.42 12.4719 438.3 12.8119C437.39 15.2619 435.9 16.5519 434.22 16.5519C432.35 16.5519 430.38 14.3419 429.73 10.2919C429.35 8.01187 429.15 5.51189 429.15 3.31189C429.15 1.99189 429.1 1.27188 428.86 0.171875C430.01 0.311875 431.19 0.601792 431.91 0.961792H431.92ZM443.06 2.4718C443.16 2.4218 443.25 2.37183 443.32 2.37183C443.42 2.37183 443.49 2.42184 443.58 2.51184C445.76 4.41184 447.68 7.7218 448.29 10.7218C448.36 11.0318 448.22 11.1318 448.03 11.2518C447.41 11.6618 446.81 11.9918 446.16 12.2118C445.87 12.3118 445.7 12.2318 445.66 11.9518C444.84 8.52178 443.62 6.02178 441.17 3.57178C442.08 2.99178 442.68 2.6618 443.07 2.4718H443.06Z" fill="#AD8B0A"/>
<path d="M433.99 26.882C434.25 27.002 434.37 27.1419 434.37 27.3419C434.37 27.4619 434.32 27.5819 434.25 27.7019C434.03 28.0819 433.87 28.5219 433.77 28.9719C433.53 30.1919 433.29 31.9719 433.19 33.3419C435.4 31.1119 438.28 29.552 441.21 29.552C444.71 29.552 446.8 31.5919 446.8 34.6919C446.8 37.3119 445.24 39.0319 443.18 40.0719C441.57 40.8919 439.1 41.4619 437.04 41.7319C436.51 41.8019 436.3 41.782 436.08 41.422C435.62 40.602 435.19 39.962 434.45 39.382C437.14 39.212 439.44 38.762 441.05 38.042C442.99 37.202 443.88 35.952 443.88 34.422C443.88 33.122 443.06 31.9519 441 31.9519C438.94 31.9519 436.34 33.3219 434.09 35.6019C433.66 36.0319 433.35 36.442 433.06 36.922C432.92 37.162 432.82 37.1619 432.51 37.0919C431.96 36.9019 431.38 36.6819 430.88 36.4419C430.64 36.3419 430.54 36.3019 430.54 35.9619C430.68 33.1819 431 30.3419 431.28 28.2119C431.38 27.4919 431.5 26.872 431.5 26.052C432.44 26.312 433.44 26.602 434 26.912L433.99 26.882ZM434.59 20.812C434.71 20.692 434.85 20.6219 435.05 20.6919C436.83 21.3919 438.31 22.302 439.76 23.552C439.88 23.652 439.93 23.722 439.93 23.812C439.93 23.882 439.88 23.9819 439.81 24.1019C439.5 24.6019 438.99 25.302 438.59 25.782C438.49 25.902 438.4 25.9719 438.33 25.9719C438.23 25.9719 438.16 25.922 438.04 25.802C436.7 24.622 435.09 23.522 433.19 22.682C433.77 21.822 434.22 21.192 434.61 20.812H434.59Z" fill="#AD8B0A"/>
<path d="M435.86 49.2529C438.81 48.2729 441.14 47.793 442.87 47.793C446.13 47.793 448.34 49.933 448.34 52.933C448.34 55.383 447.19 57.083 444.91 58.313C443.66 59.013 441.98 59.6829 439.94 59.8929C439.51 59.9629 439.32 59.873 439.15 59.553C438.89 59.073 438.45 58.5429 437.69 57.9729C440.5 57.5429 441.82 57.133 443.47 56.313C444.84 55.593 445.63 54.4629 445.63 52.7329C445.63 51.0029 444.57 50.0929 442.65 50.0929C440.99 50.0929 438.47 50.9129 435.86 51.9629C435.26 52.2229 434.78 52.5129 434.52 52.7029C434.33 52.8729 434.18 52.9429 434.04 52.9429C433.82 52.9429 433.66 52.8029 433.42 52.5129C432.87 51.8129 432.51 50.973 432.12 50.183C433.32 49.993 434.5 49.6829 435.86 49.2429V49.2529Z" fill="#AD8B0A"/>
<path d="M435.47 66.0238C435.88 66.1238 436.05 66.2438 436.05 66.4838C436.05 66.7438 435.91 67.0338 435.81 67.2738C435.69 67.6138 435.59 68.3537 435.47 70.2037C435.23 73.9037 435.11 76.3438 435.11 79.4938C435.11 81.9138 435.4 82.4738 437.32 82.4738C439.46 82.4738 442.79 81.1738 445.72 78.0538C445.82 78.9638 446.03 79.7537 446.27 80.3337C446.39 80.5937 446.46 80.7638 446.46 80.9138C446.46 81.1338 446.36 81.3238 445.98 81.6538C443.39 84.0338 440 85.2538 436.88 85.2538C433.76 85.2538 432.37 84.0338 432.37 80.3538C432.37 76.3238 432.59 72.8638 432.71 69.9838C432.76 68.5638 432.83 67.0338 432.47 65.5938C433.57 65.7137 434.73 65.8338 435.47 66.0238Z" fill="#AD8B0A"/>
<path d="M436.79 92.3527C437.05 92.3527 437.2 92.5427 437.2 92.8527C437.2 93.0727 437.18 93.2127 437.22 93.4327C437.27 93.7427 437.34 94.0527 437.46 94.3927C437.58 94.8027 437.72 95.2326 437.89 95.7126C439.21 95.2126 440.39 94.8027 441.2 94.5627C442.38 94.1827 443.41 94.0627 444.51 94.0627C446.96 94.0627 448.59 95.4527 448.59 97.6427C448.59 100.183 446.77 101.673 443.65 101.673C443.29 101.673 443.03 101.653 442.81 101.623C442.43 101.603 442.31 101.483 442.19 101.193C441.9 100.453 441.64 99.8227 441.18 99.2227C442.28 99.3927 442.62 99.4127 443.41 99.4127C445.19 99.4127 446.1 98.7127 446.1 97.4927C446.1 96.7027 445.45 96.0527 444.47 96.0527C443.56 96.0527 442.72 96.1926 441.59 96.5826C440.61 96.9426 439.62 97.3227 438.66 97.7627C439.62 100.473 440.58 103.213 441.49 105.873C441.54 105.973 441.59 106.093 441.59 106.183C441.59 106.323 441.49 106.443 441.3 106.563C440.72 106.853 440.17 107.023 439.57 107.183C439.33 107.283 439.23 107.063 439.21 106.923C438.44 104.213 437.67 101.833 436.57 98.7427C436.31 98.8627 435.87 99.0827 435.37 99.2927C434.72 99.6027 434.34 99.8427 433.95 100.113C433.78 100.233 433.69 100.333 433.54 100.333C433.39 100.333 433.25 100.213 433.08 100.023C432.58 99.4227 432.14 98.6326 431.76 97.9626C432.38 97.8626 432.89 97.7227 433.63 97.4827C434.35 97.2427 435.02 96.9827 435.72 96.6627C435.34 95.5127 435.14 94.9327 434.9 94.3627C434.66 93.7827 434.42 93.2826 433.99 92.7026C434.95 92.5326 435.91 92.3627 436.77 92.3627L436.79 92.3527ZM440.75 90.8427C440.85 90.7727 440.92 90.7227 441.01 90.7227C441.08 90.7227 441.15 90.7727 441.25 90.8427C442.02 91.3227 442.74 91.9427 443.19 92.5227C443.29 92.6227 443.33 92.7127 443.33 92.8127C443.33 92.9127 443.28 93.0026 443.19 93.0726C442.85 93.4126 442.35 93.7727 441.89 94.1027C441.82 94.1527 441.75 94.2026 441.67 94.2026C441.59 94.2026 441.55 94.1526 441.45 94.0826C440.68 93.2426 440.11 92.6427 439.15 92.0427C439.92 91.4227 440.47 91.0127 440.73 90.8427H440.75Z" fill="#AD8B0A"/>
<path d="M431.92 113.763C432.14 113.863 432.3 114.023 432.3 114.193C432.3 114.333 432.23 114.573 432.11 114.863C432.01 115.153 431.89 116.183 431.89 117.213C431.89 118.753 431.94 120.473 432.32 122.683C432.66 124.583 433.28 126.213 434.29 126.213C435.06 126.213 435.66 125.373 436.59 122.873C437.12 123.713 437.65 124.263 438.13 124.723C438.42 124.983 438.42 125.273 438.3 125.613C437.39 128.063 435.9 129.353 434.22 129.353C432.35 129.353 430.38 127.143 429.73 123.093C429.35 120.813 429.15 118.313 429.15 116.113C429.15 114.793 429.1 114.073 428.86 112.973C430.01 113.113 431.19 113.403 431.91 113.763H431.92ZM443.06 115.273C443.16 115.223 443.25 115.173 443.32 115.173C443.42 115.173 443.49 115.223 443.58 115.313C445.76 117.213 447.68 120.523 448.29 123.523C448.36 123.833 448.22 123.933 448.03 124.053C447.41 124.463 446.81 124.793 446.16 125.013C445.87 125.113 445.7 125.033 445.66 124.753C444.84 121.323 443.62 118.823 441.17 116.373C442.08 115.793 442.68 115.463 443.07 115.273H443.06Z" fill="#AD8B0A"/>
<path d="M436.96 145.991C435.3 146.041 433.67 146.041 432.02 145.891C431.76 145.891 431.66 145.791 431.64 145.481C431.54 144.951 431.5 143.991 431.5 143.441C433.28 143.661 435.1 143.701 436.9 143.631C436.88 142.721 436.88 141.781 436.85 140.871C434.55 140.941 432.82 140.941 431.11 140.751C430.85 140.751 430.73 140.651 430.7 140.411C430.63 139.811 430.58 139.231 430.53 138.251C432.62 138.491 434.71 138.491 436.82 138.491C436.82 137.601 436.8 136.981 436.77 136.161C436.72 135.611 436.67 135.181 436.48 134.551C437.75 134.621 438.78 134.771 439.5 134.981C439.79 135.081 439.93 135.411 439.76 135.701C439.59 136.041 439.42 136.441 439.4 136.851C439.38 137.331 439.38 137.671 439.35 138.391C441.58 138.221 443.19 137.961 444.61 137.671C444.9 137.601 444.99 137.671 445.02 137.961C445.12 138.631 445.14 139.281 445.14 139.711C445.14 140.021 445.07 140.071 444.88 140.091C443.18 140.381 441.64 140.571 439.34 140.711C439.34 141.671 439.36 142.561 439.36 143.421C441.18 143.301 442.34 143.061 444.06 142.801C444.35 142.731 444.42 142.781 444.44 142.991C444.46 143.451 444.51 144.241 444.51 144.961C444.51 145.201 444.41 145.271 444.15 145.301C442.57 145.561 441.46 145.731 439.45 145.881C439.5 146.981 439.55 148.161 439.62 149.261C441.92 149.911 443.89 150.771 445.98 152.161C446.22 152.381 446.22 152.451 446.15 152.741C445.98 153.201 445.48 154.081 445.09 154.521C444.99 154.661 444.9 154.711 444.78 154.711C444.71 154.711 444.61 154.691 444.52 154.591C443.06 153.441 441.57 152.601 439.74 151.851C439.72 154.441 438.16 155.501 434.87 155.501C431.75 155.501 429.97 154.131 429.97 152.141C429.97 150.151 431.87 148.731 434.77 148.731C435.37 148.731 435.95 148.731 437.07 148.831C437.02 147.771 436.97 146.791 436.95 145.971L436.96 145.991ZM434.9 150.841C433.15 150.841 432.31 151.341 432.31 152.111C432.31 152.731 433.03 153.191 434.69 153.191C435.65 153.191 436.54 152.901 436.87 152.471C437.06 152.211 437.13 151.801 437.13 151.131C436.43 150.961 435.57 150.841 434.9 150.841Z" fill="#AD8B0A"/>
<path d="M432.4 163.751C432.35 162.531 432.3 162.141 432.06 161.211C433.26 161.311 434.34 161.471 434.94 161.621C435.2 161.671 435.44 161.911 435.44 162.121C435.44 162.291 435.37 162.461 435.3 162.621C435.16 162.981 435.08 163.292 435.06 163.682C435.04 164.262 435.04 165.171 435.01 165.981C436.67 165.761 439.21 165.502 440.94 165.312C440.96 164.112 440.96 162.812 440.96 161.932C440.96 161.052 440.89 160.111 440.65 159.191C442.11 159.361 442.95 159.482 443.55 159.672C443.89 159.772 444.01 159.891 444.01 160.131C444.01 160.321 443.91 160.511 443.87 160.611C443.75 160.991 443.65 161.281 443.63 161.691C443.58 162.991 443.56 163.922 443.53 165.052C445.47 164.912 446.91 164.832 448.21 164.792C448.4 164.792 448.5 164.811 448.5 165.031C448.52 165.681 448.55 166.351 448.5 167.001C448.5 167.311 448.45 167.341 448.19 167.341C446.61 167.341 445 167.411 443.41 167.531C443.34 169.111 443.27 170.291 443.12 171.231C442.86 173.101 441.78 173.891 439.98 173.891C439.55 173.891 439 173.891 438.49 173.821C438.11 173.801 438.01 173.631 438.01 173.201C437.96 172.411 437.82 171.812 437.48 171.042C438.27 171.262 438.92 171.331 439.52 171.331C440.17 171.331 440.53 171.142 440.65 170.302C440.75 169.562 440.79 168.691 440.82 167.761C438.9 167.901 436.81 168.142 434.96 168.432C434.94 171.052 434.91 172.491 435.01 173.851C435.15 175.821 435.68 176.201 438.61 176.201C440.75 176.201 443.05 175.981 444.83 175.721C445.19 175.701 445.26 175.741 445.31 176.031C445.41 176.531 445.45 177.592 445.45 178.052C445.45 178.342 445.35 178.461 445.14 178.481C444.04 178.651 441.06 178.841 439.12 178.841C434.27 178.841 432.86 177.831 432.57 174.691C432.45 173.391 432.4 171.381 432.4 168.831C431.18 169.001 430.41 169.141 429.5 169.331C429.24 169.401 428.85 169.501 428.42 169.691C428.11 169.831 427.94 169.742 427.8 169.432C427.51 168.832 427.25 167.851 427.13 167.031C427.63 167.031 428.67 166.932 429.7 166.792C430.37 166.692 431.52 166.481 432.41 166.331V163.761L432.4 163.751Z" fill="#AD8B0A"/>
<path d="M439.27 198.362H436.85L436.18 184.082H439.92L439.27 198.362ZM439.73 200.692V203.932H436.32V200.692H439.73Z" fill="#AD8B0A"/>
</svg>
