<svg width="387" height="387" viewBox="0 0 387 387" fill="none" xmlns="http://www.w3.org/2000/svg">
<rect x="34.5" y="35.9219" width="316" height="316" rx="158" fill="white"/>
<path d="M249.16 94.1914L158.44 190.471L251.09 290.291L192.17 331.711L66.1802 190.121C92.1502 160.391 145.26 98.4414 192.17 54.1914L249.16 94.1914Z" fill="black"/>
<path d="M278.27 237.232C262.46 237.232 251.19 223.982 243.49 215.592C234.22 205.432 221.57 194.502 215.14 190.422C214.93 190.312 214.93 190.092 215.14 189.982C221.57 185.892 234.22 174.962 243.49 164.812C251.18 156.422 262.56 143.172 278.27 143.172C292.81 143.172 303.99 153.772 303.99 166.472C303.99 174.092 301.36 183.922 289.02 189.992C288.7 190.102 288.7 190.322 289.02 190.432C301.24 196.392 303.99 206.332 303.99 213.952C303.99 226.652 292.82 237.252 278.27 237.252V237.232Z" fill="#AD8B0A"/>
<path d="M193.5 387C86.8 387 0 300.2 0 193.5C0 86.8 86.8 0 193.5 0C300.2 0 387 86.8 387 193.5C387 300.2 300.2 387 193.5 387ZM193.5 36.63C107 36.63 36.63 107 36.63 193.5C36.63 280 107 350.37 193.5 350.37C280 350.37 350.37 280 350.37 193.5C350.37 107 280 36.63 193.5 36.63Z" fill="#AD8B0A"/>
</svg>
