<svg width="205" height="52" viewBox="0 0 205 52" fill="none" xmlns="http://www.w3.org/2000/svg">
<path d="M49.0402 18.2898V22.6198H50.6502C52.5002 22.6198 54.2202 22.6298 55.8302 22.5798V36.3098H60.6902V22.0698C62.7502 21.6698 64.6802 20.9898 66.6002 19.8498V13.3098C62.1302 17.4198 58.1802 18.3198 50.6602 18.2998H49.0402V18.2898ZM156.25 18.2898V22.6198H157.85C159.7 22.6198 161.42 22.6298 163.03 22.5798V36.3098H167.88V22.0698C169.95 21.6698 171.87 20.9898 173.79 19.8498V13.3098C169.32 17.4198 165.37 18.3198 157.84 18.2998H156.23L156.25 18.2898ZM123.31 15.9498H114.9V20.6298H123.31V15.9498ZM125.95 22.5198C125.95 27.2798 122.38 32.4098 115.54 32.4098V36.1598C118.26 36.1598 122.01 35.7298 125.32 33.6998C128 32.0498 131.18 28.7398 131.18 22.3298V14.6298H125.95V22.5198ZM78.9002 13.1898H74.0402V16.4398H70.2002V21.2998H74.0402V36.2998H78.9002V21.2998H83.9702V24.5698C83.9702 24.9298 83.4902 25.8698 82.5302 26.0698V29.9998C84.5302 29.9998 88.6602 27.8798 88.6602 23.7098V16.4498H78.9102V13.1998L78.9002 13.1898ZM110.76 16.4398H104.18V13.0098H99.3202V16.4398H92.3402V21.2998H99.3202V36.2998H104.18V21.2998H110.76V16.4398ZM93.2102 30.0998C93.2102 30.7398 92.6902 31.9198 91.9802 32.1398V35.4698C94.0502 35.4698 97.2902 33.4498 97.2902 29.5398V24.3398H93.2102V30.0898V30.0998ZM110.28 30.0998V24.3498H106.2V29.5498C106.2 33.4598 109.44 35.4798 111.5 35.4798V32.1498C110.8 31.9198 110.28 30.7498 110.28 30.1098V30.0998ZM143 13.0098H138.09V16.9998H134.67V21.8598H138.09V29.5298C138.09 30.3598 137.42 31.8798 136.5 32.1798V36.2998C139.18 36.2998 143 33.6798 143 28.6198V21.8598H147.5V30.6898C147.5 31.0498 147.02 31.9798 146.05 32.1798V36.4798C148.06 36.4798 152.74 34.3598 152.74 30.1798V16.9898H142.99V12.9998L143 13.0098ZM146.47 15.6298C147.49 15.6298 148.32 14.7998 148.32 13.7698C148.32 12.7398 147.49 11.9198 146.47 11.9198C145.45 11.9198 144.62 12.7498 144.62 13.7698C144.62 14.7898 145.45 15.6298 146.47 15.6298ZM151.08 11.9198C150.05 11.9198 149.22 12.7498 149.22 13.7698C149.22 14.7898 150.05 15.6298 151.08 15.6298C152.11 15.6298 152.93 14.7998 152.93 13.7698C152.93 12.7398 152.11 11.9198 151.08 11.9198ZM182.47 13.0198H177.23V36.3098H182.47V26.5998C184.98 27.2498 187.64 27.3998 190.68 27.4298V22.7198C187.37 22.6198 184.8 22.2598 182.47 21.2598V13.0298V13.0198ZM185.23 15.6398C186.26 15.6398 187.09 14.8098 187.09 13.7798C187.09 12.7498 186.26 11.9298 185.23 11.9298C184.2 11.9298 183.38 12.7598 183.38 13.7798C183.38 14.7998 184.21 15.6398 185.23 15.6398ZM189.84 11.9298C188.81 11.9298 187.98 12.7598 187.98 13.7798C187.98 14.7998 188.81 15.6398 189.84 15.6398C190.87 15.6398 191.69 14.8098 191.69 13.7798C191.69 12.7498 190.86 11.9298 189.84 11.9298ZM31.6602 24.4098C32.9702 24.7198 34.2802 23.8998 34.5802 22.5998C34.8702 21.3898 35.0102 20.1298 35.0102 18.8798C35.0102 9.88982 27.7002 2.58984 18.7202 2.58984C9.74015 2.58984 2.43018 9.88982 2.43018 18.8798C2.43018 23.7898 4.60018 28.3398 8.31018 31.4098C7.68018 32.9798 7.3302 34.6898 7.3302 36.4898C7.3302 44.0198 13.4602 50.1398 20.9902 50.1398C28.5202 50.1398 34.6302 44.0298 34.6502 36.5198C34.6502 35.8798 34.3902 35.2498 33.9402 34.7898C33.4702 34.3298 32.8602 34.0798 32.2202 34.0798H21.9102C20.5702 34.0798 19.4702 35.1698 19.4702 36.5098C19.4702 37.8498 20.5702 38.9398 21.9102 38.9398H29.4302C28.3702 42.5898 24.9902 45.2698 21.0002 45.2698C16.1502 45.2698 12.2102 41.3298 12.2102 36.4798C12.2102 33.3798 13.8302 30.6598 16.2502 29.0998C17.3802 30.4898 19.0602 31.3998 21.0002 31.3998C24.3902 31.3998 27.1302 28.6498 27.1302 25.2598C27.1302 21.8698 24.3802 19.1098 21.0002 19.1098C17.9602 19.1098 15.4502 21.3398 14.9602 24.2398C13.4502 24.9898 12.0802 25.9998 10.9602 27.2298C8.64021 25.0898 7.32019 22.0898 7.32019 18.8598C7.32019 12.5598 12.4402 7.42981 18.7402 7.42981C25.0402 7.42981 30.1602 12.5598 30.1602 18.8598C30.1602 19.7398 30.0602 20.6198 29.8602 21.4798C29.5502 22.7798 30.3602 24.0998 31.6702 24.3998L31.6602 24.4098ZM198.2 6.21979C195.87 6.21979 193.98 8.09979 193.98 10.4098C193.98 12.7198 195.87 14.5998 198.2 14.5998C200.53 14.5998 202.44 12.7198 202.44 10.4098C202.44 8.09979 200.54 6.21979 198.2 6.21979ZM200.79 12.1298C200.59 12.0398 200.34 11.8598 200.06 11.5798L198.8 10.3598C199.3 10.2898 199.68 10.1498 199.92 9.95984C200.15 9.76984 200.28 9.53985 200.28 9.27985C200.28 9.03985 200.18 8.82984 199.96 8.64984C199.76 8.46984 199.49 8.3598 199.19 8.28979C198.88 8.21979 198.41 8.18982 197.77 8.18982H195.58V8.30981H195.8C196.03 8.30981 196.2 8.35983 196.32 8.44983C196.4 8.50983 196.44 8.66982 196.44 8.93982V11.6798C196.44 11.9198 196.4 12.0698 196.35 12.1298C196.24 12.2498 196.05 12.2998 195.8 12.2998H195.58V12.4198H198.15V12.2998H197.92C197.7 12.2998 197.53 12.2598 197.41 12.1698C197.33 12.0998 197.29 11.9398 197.29 11.6798V10.4398C197.29 10.4398 197.38 10.4398 197.43 10.4398H197.55C197.64 10.4398 197.76 10.4398 197.91 10.4398L199.95 12.4198H201.06C200.4 13.3198 199.39 13.9498 198.19 13.9498C196.21 13.9498 194.61 12.3598 194.61 10.4098C194.61 8.45979 196.21 6.8598 198.19 6.8598C200.17 6.8598 201.78 8.44979 201.78 10.4098C201.78 11.0798 201.54 11.6798 201.2 12.2198C201.07 12.1898 200.89 12.1798 200.79 12.1298ZM197.55 10.2598H197.45C197.45 10.2598 197.36 10.2598 197.3 10.2598V8.51984C197.6 8.45984 197.82 8.4198 197.99 8.4198C198.37 8.4198 198.68 8.5098 198.91 8.6698C199.15 8.8398 199.27 9.04982 199.27 9.31982C199.27 9.59982 199.13 9.81982 198.84 9.99982C198.54 10.1798 198.12 10.2598 197.55 10.2598Z" fill="white" stroke="white" stroke-width="3.71" stroke-linecap="round" stroke-linejoin="round"/>
<path d="M66.6005 13.2969C62.1305 17.4069 58.1805 18.3069 50.6605 18.2869H49.0405V22.6169H50.6506C52.5006 22.6169 54.2206 22.6269 55.8306 22.5769V36.3069H60.6906V22.0669C62.7506 21.6669 64.6805 20.9869 66.6005 19.8469V13.3069V13.2969Z" fill="#005AAF"/>
<path d="M173.81 13.2969C169.34 17.4069 165.39 18.3069 157.86 18.2869H156.25V22.6169H157.85C159.7 22.6169 161.421 22.6269 163.031 22.5769V36.3069H167.88V22.0669C169.95 21.6669 171.87 20.9869 173.79 19.8469V13.3069L173.81 13.2969Z" fill="#005AAF"/>
<path d="M123.321 15.9453H114.911V20.6253H123.321V15.9453Z" fill="#005AAF"/>
<path d="M125.951 14.6367V22.5267C125.951 27.2867 122.381 32.4167 115.541 32.4167V36.1667C118.261 36.1667 122.011 35.7367 125.321 33.7067C128.001 32.0567 131.181 28.7467 131.181 22.3367V14.6367H125.951Z" fill="#005AAF"/>
<path d="M86.4007 16.4492H78.9007V13.1992H74.0406V16.4492H70.2007V21.3092H74.0406V36.3092H78.9007V21.3092H83.9706V24.5792C83.9706 24.9392 83.4907 25.8792 82.5307 26.0792V30.0092C84.5307 30.0092 88.6606 27.8892 88.6606 23.7192V16.4592H86.4106L86.4007 16.4492Z" fill="#005AAF"/>
<path d="M110.76 21.3095V16.4495H104.18V13.0195H99.3203V16.4495H92.3403V21.3095H99.3203V36.2995H104.18V21.3095H110.76Z" fill="#005AAF"/>
<path d="M93.2105 30.0998C93.2105 30.7398 92.6905 31.9198 91.9805 32.1398V35.4698C94.0505 35.4698 97.2905 33.4498 97.2905 29.5398V24.3398H93.2105V30.0898V30.0998Z" fill="#005AAF"/>
<path d="M110.281 30.0977V24.3477H106.201V29.5477C106.201 33.4577 109.441 35.4777 111.501 35.4777V32.1477C110.801 31.9177 110.281 30.7477 110.281 30.1077V30.0977Z" fill="#005AAF"/>
<path d="M143 17.0095V13.0195H138.09V17.0095H134.67V21.8695H138.09V29.5395C138.09 30.3695 137.42 31.8895 136.5 32.1895V36.3095C139.18 36.3095 143 33.6895 143 28.6295V21.8695H147.5V30.6995C147.5 31.0595 147.02 31.9895 146.05 32.1895V36.4895C148.06 36.4895 152.74 34.3695 152.74 30.1895V16.9995H142.99L143 17.0095Z" fill="#005AAF"/>
<path d="M146.471 15.6397C147.491 15.6397 148.321 14.8097 148.321 13.7797C148.321 12.7497 147.491 11.9297 146.471 11.9297C145.451 11.9297 144.621 12.7597 144.621 13.7797C144.621 14.7997 145.451 15.6397 146.471 15.6397Z" fill="#005AAF"/>
<path d="M151.08 15.6397C152.1 15.6397 152.93 14.8097 152.93 13.7797C152.93 12.7497 152.11 11.9297 151.08 11.9297C150.05 11.9297 149.22 12.7597 149.22 13.7797C149.22 14.7997 150.05 15.6397 151.08 15.6397Z" fill="#005AAF"/>
<path d="M182.47 13.0195H177.23V36.3095H182.47V26.5995C184.98 27.2495 187.64 27.3995 190.68 27.4295V22.7195C187.37 22.6195 184.8 22.2595 182.47 21.2595V13.0295V13.0195Z" fill="#005AAF"/>
<path d="M185.23 15.6397C186.26 15.6397 187.09 14.8097 187.09 13.7797C187.09 12.7497 186.26 11.9297 185.23 11.9297C184.2 11.9297 183.38 12.7597 183.38 13.7797C183.38 14.7997 184.21 15.6397 185.23 15.6397Z" fill="#005AAF"/>
<path d="M189.85 11.918C188.82 11.918 187.99 12.748 187.99 13.768C187.99 14.788 188.82 15.628 189.85 15.628C190.88 15.628 191.7 14.798 191.7 13.768C191.7 12.738 190.87 11.918 189.85 11.918Z" fill="#005AAF"/>
<path d="M32.2204 34.0681H21.9104C20.5704 34.0681 19.4704 35.1581 19.4704 36.4981C19.4704 37.8381 20.5704 38.9281 21.9104 38.9281H29.4304C28.3704 42.5781 24.9904 45.2581 21.0004 45.2581C16.1504 45.2581 12.2104 41.3181 12.2104 36.4681C12.2104 31.6181 16.1504 27.6781 21.0004 27.6781C22.3404 27.6781 23.4304 26.5881 23.4304 25.2481C23.4304 23.9081 22.3504 22.8081 21.0004 22.8081C17.0304 22.8081 13.4504 24.5181 10.9604 27.2281C8.64045 25.0881 7.32043 22.0881 7.32043 18.8581C7.32043 12.5581 12.4404 7.4281 18.7404 7.4281C25.0404 7.4281 30.1604 12.5581 30.1604 18.8581C30.1604 19.7381 30.0604 20.6181 29.8604 21.4781C29.5504 22.7781 30.3604 24.0981 31.6704 24.3981C32.9804 24.7081 34.2905 23.8881 34.5905 22.5881C34.8805 21.3781 35.0204 20.1181 35.0204 18.8681C35.0204 9.8781 27.7104 2.57812 18.7304 2.57812C9.75041 2.57812 2.44043 9.8781 2.44043 18.8681C2.44043 23.7781 4.61043 28.3281 8.32043 31.3981C7.69043 32.9681 7.34045 34.6781 7.34045 36.4781C7.34045 44.0081 13.4704 50.1281 21.0004 50.1281C28.5304 50.1281 34.6404 44.0181 34.6604 36.5081C34.6604 35.8681 34.4004 35.2381 33.9504 34.7781C33.4804 34.3181 32.8704 34.0681 32.2304 34.0681H32.2204Z" fill="#005AAF"/>
<path d="M27.1304 25.2477C27.1304 28.6277 24.3804 31.3877 21.0004 31.3877C17.6204 31.3877 14.8604 28.6377 14.8604 25.2477C14.8604 21.8577 17.6004 19.0977 21.0004 19.0977C24.4004 19.0977 27.1304 21.8477 27.1304 25.2477Z" fill="#F0B400"/>
<path d="M193.98 10.4088C193.98 12.7188 195.871 14.5988 198.201 14.5988C200.531 14.5988 202.44 12.7188 202.44 10.4088C202.44 8.09875 200.541 6.21875 198.201 6.21875C195.861 6.21875 193.98 8.09875 193.98 10.4088ZM194.62 10.4088C194.62 8.44875 196.221 6.85876 198.201 6.85876C200.181 6.85876 201.79 8.44875 201.79 10.4088C201.79 12.3688 200.181 13.9488 198.201 13.9488C196.221 13.9488 194.62 12.3588 194.62 10.4088Z" fill="black"/>
<path d="M197.31 8.49969C197.61 8.43969 197.83 8.39972 198 8.39972C198.38 8.39972 198.69 8.48972 198.92 8.64972C199.16 8.81972 199.28 9.02968 199.28 9.29968C199.28 9.57968 199.14 9.79968 198.85 9.97968C198.55 10.1597 198.13 10.2397 197.56 10.2397H197.46C197.46 10.2397 197.37 10.2397 197.31 10.2397V8.49969ZM201.61 12.2897C201.28 12.2697 201 12.2097 200.8 12.1197C200.6 12.0297 200.35 11.8497 200.07 11.5697L198.81 10.3497C199.31 10.2797 199.69 10.1397 199.93 9.94971C200.16 9.75971 200.29 9.52971 200.29 9.26971C200.29 9.02971 200.19 8.81971 199.97 8.63971C199.77 8.45971 199.5 8.34972 199.2 8.27972C198.89 8.20972 198.42 8.17969 197.78 8.17969H195.59V8.29968H195.81C196.04 8.29968 196.21 8.3497 196.33 8.4397C196.41 8.4997 196.45 8.65969 196.45 8.92969V11.6697C196.45 11.9097 196.41 12.0597 196.36 12.1197C196.25 12.2397 196.06 12.2897 195.81 12.2897H195.59V12.4097H198.16V12.2897H197.93C197.71 12.2897 197.54 12.2497 197.42 12.1597C197.34 12.0897 197.3 11.9297 197.3 11.6697V10.4297C197.3 10.4297 197.39 10.4297 197.44 10.4297H197.56C197.65 10.4297 197.77 10.4297 197.92 10.4297L199.96 12.4097H201.6V12.2897H201.61Z" fill="black"/>
</svg>
