<svg width="810" height="101" viewBox="0 0 810 101" fill="none" xmlns="http://www.w3.org/2000/svg">
<path d="M62.36 17.6791L31.44 50.489L63.02 84.509L42.94 98.629L0 50.369C8.85 40.239 26.95 19.1191 42.94 4.03906L62.36 17.6691V17.6791Z" fill="black"/>
<path d="M177.83 89.548C174.39 87.258 168.82 81.2979 165.12 79.1279C163.09 93.1079 150.31 100.198 138.94 100.198C121.1 100.198 112.12 89.3379 112.12 77.9979C112.12 64.3679 126.12 56.528 141.72 55.918V50.4579H116.29V34.168H141.72V27.6379H116.34V10.7479H141.72V2.16797H164.84V10.7479H187.05V27.6379H164.84V34.168H187.05V50.4579H164.84V59.418C172.77 61.948 182.1 67.878 190.03 73.788L177.83 89.548ZM142.51 73.168C141.06 72.928 139.74 72.808 138.41 72.808C135.9 72.808 132.07 74.1379 132.07 77.8779C132.07 80.6479 133.92 82.7079 137.09 82.7079C139.73 82.7079 142.51 81.0179 142.51 77.5179V73.178V73.168Z" fill="black"/>
<path d="M273.77 76.7401C284.74 76.7401 295.7 74.8102 296.63 74.8102V95.8002C289.23 97.1302 284.87 98.0901 271.92 98.0901C251.04 98.0901 230.43 90.9701 230.43 70.5801C230.43 59.4801 236.51 49.8301 246.95 42.8301L236.46 42.8701L235.56 7.81018L257.81 7.77014C258.32 17.4301 258.32 27.6002 258.84 36.6802C268.62 32.9402 280.51 30.7701 293.72 30.7701V50.8002C271.66 52.1302 255.54 58.1601 255.54 67.2101C255.54 73.4801 264.66 76.7401 273.77 76.7401ZM285.43 13.8301C285.43 19.2101 281.09 23.4401 275.76 23.4401C270.43 23.4401 265.89 19.2101 265.89 13.8301C265.89 8.45008 270.43 4.41016 275.76 4.41016C281.09 4.41016 285.43 8.64008 285.43 13.8301ZM310.87 13.8301C310.87 19.2101 306.33 23.4401 301.2 23.4401C295.67 23.4401 291.33 19.2101 291.33 13.8301C291.33 8.45008 295.67 4.41016 301.2 4.41016C306.33 4.41016 310.87 8.64008 310.87 13.8301Z" fill="black"/>
<path d="M408.75 50.7794C409.14 75.1594 386.04 95.1194 363.05 99.2294L353.54 82.7094C366.09 78.8493 385.78 69.9394 385.78 53.7694C385.78 44.1194 378.47 34.8394 369.13 34.7394C367.41 34.7194 365.83 35.0993 364.24 35.9493L364.56 62.4894L341.07 63.1494C340.63 54.7694 340.13 42.9294 340.13 32.9194C340.13 22.9094 340.13 14.8994 341.22 7.10938L364.19 7.28943L364.23 18.4094C368.19 17.0794 372.29 16.3594 376.65 16.3594C394.75 16.3594 408.42 30.8794 408.74 50.7794H408.75Z" fill="black"/>
<path d="M530.24 58.6682C528.55 76.6682 515.64 97.9582 499.24 96.6282C488.89 95.7882 485.31 86.9282 482.87 81.7682C480.92 77.6382 479.04 74.4681 475.1 74.4681C464.67 74.4681 458.64 93.0881 456.53 96.4681L433.77 86.4481L470.19 5.07812L492.13 14.9581C486.82 26.5781 481.99 41.3281 474.59 54.4781C476.88 52.7281 481.83 50.8782 483.8 50.7682C499.29 49.9382 494.59 69.0481 501.03 70.0681C505.35 70.7581 508.89 61.4482 509.66 53.7782L530.24 58.6582V58.6682Z" fill="black"/>
<path d="M619.5 100.609C615.26 100.609 611.42 99.9495 608.4 98.6995L607.81 98.4595V72.1195H597.6L606.55 77.4695L606.03 78.3096C598.79 90.0596 589.6 95.9296 577.94 99.3096L577.3 99.4995L565.52 83.3096L566.77 82.9095C572.84 80.9795 579.69 76.9295 585.11 72.1295H567.24V56.4395H607.8V47.4795H631.18V56.4395H666.67L666.23 56.3795C649.89 54.0095 631.63 50.0996 619.6 39.0396C607.45 49.8596 589.49 53.6695 571.85 56.1495L571.1 56.2595L564.2 37.9495L565.45 37.8395C577.99 36.7695 594.45 33.3095 605.89 26.7495C604.03 27.1395 601.98 27.3295 599.65 27.3295C595.85 27.3295 592.54 26.7595 589.81 25.6495L589.22 25.4095V21.2395H566.85V5.20947H589.22V0.269531H610.07V5.20947H628.64V0.269531H649.49V5.20947H671.86V21.2395H649.49V25.4095L648.9 25.6495C646.09 26.8095 643.05 27.3295 639.06 27.3295C637.24 27.3295 635.5 27.1895 633.87 26.9095C646.8 33.9895 662.26 36.6495 673.51 37.6095L674.81 37.7195L666.96 56.4495H671.47V72.1395H653.86C659.38 77.0295 666.42 81.2095 672.71 83.2695L674 83.6895L661.52 99.6195L660.91 99.4495C649.46 96.1795 639.14 89.2795 633.29 78.5195L632.84 77.6995L642.04 72.1495H631.15V98.4895L630.57 98.7295C627.48 100.019 623.85 100.64 619.46 100.64L619.5 100.609ZM610.09 21.2295V24.5396L610.22 24.4395H628.66V21.2195H610.09V21.2295Z" fill="#AD8B0A"/>
<path d="M810 98.7678H721.05V90.6378C719.75 93.2278 718.23 95.6978 716.57 97.9178L716.07 98.5878L698.5 88.6578L698.91 87.8478C705.93 74.0578 708.79 61.7078 708.79 45.1978V3.00781H808.23V29.3079L806.83 30.0778C805.11 30.9778 803.55 32.8077 801.58 33.0677H808.74V45.6877H797.75C801.91 49.0777 805.16 52.2778 807.65 55.4078L808.27 56.1877L793.3 66.8778H804.34V79.7778H777.9V83.0778H809.98V98.7678H810ZM723.03 83.0778H755.8V79.7778H731.28V66.8778H755.8V63.4078C748.09 63.6778 740.42 63.7978 734.21 63.8978L731.08 63.9678V49.4178H739.9L742.53 45.6877H728.71C728.5 59.8777 726.55 72.7578 723.04 83.0778H723.03ZM777.92 66.8778H791.02L786.43 60.3778C784.32 60.8378 780.38 61.2278 777.92 61.5378V66.8778ZM728.71 33.0677H792.97C790.65 32.7577 788.61 30.4478 786.93 29.9678H728.71V33.0677ZM762.75 49.4178H779.62L778.43 47.3978L777.4 45.6877H765.16C764.48 46.9277 763.69 48.1678 762.75 49.4178ZM728.71 18.7578H786.12V15.2878H728.71V18.7578Z" fill="black"/>
<path d="M72.2798 66.4294C66.8898 66.4294 63.0498 61.9094 60.4298 59.0494C57.2698 55.5894 52.9598 51.8594 50.7698 50.4694C50.6998 50.4294 50.6998 50.3593 50.7698 50.3193C52.9598 48.9293 57.2698 45.1994 60.4298 41.7394C63.0498 38.8794 66.9298 34.3594 72.2798 34.3594C77.2398 34.3594 81.0398 37.9694 81.0398 42.2994C81.0398 44.8994 80.1398 48.2493 75.9398 50.3193C75.8298 50.3593 75.8298 50.4294 75.9398 50.4694C80.1098 52.4994 81.0398 55.8894 81.0398 58.4894C81.0398 62.8194 77.2298 66.4294 72.2798 66.4294Z" fill="#AD8B0A"/>
</svg>
